{"glyphs":{"0":{"ha":1179,"x_min":0,"x_max":0,"o":"m 782 0 b 1046 264 928 0 1046 118 l 1046 754 b 782 1019 1046 900 928 1019 l 375 1019 b 111 754 229 1019 111 900 l 111 264 b 375 0 111 118 229 0 z m 782 969 b 997 754 900 969 997 872 l 997 264 b 782 50 997 146 900 50 l 375 50 b 160 264 257 50 160 146 l 160 754 b 375 969 160 872 257 969 z "},"1":{"ha":628,"x_min":0,"x_max":0,"o":"m 69 968 l 278 968 b 369 878 328 968 369 928 l 369 0 l 419 0 l 419 878 b 278 1018 419 954 356 1018 l 69 1018 z "},"2":{"ha":1157,"x_min":0,"x_max":0,"o":"m 1010 0 l 1010 50 l 139 50 l 139 150 b 260 329 139 236 175 289 l 838 604 b 954 671 878 624 921 644 b 1017 783 997 704 1017 740 l 1017 844 b 843 1019 1017 940 939 1019 l 133 1019 l 133 969 l 843 969 b 968 844 913 969 968 914 l 968 783 b 815 649 968 722 890 685 b 239 375 811 647 807 644 b 122 276 185 349 146 317 b 90 150 100 242 90 200 l 90 0 l 1010 0 z "},"3":{"ha":1140,"x_min":0,"x_max":0,"o":"m 994 678 l 994 843 b 821 1018 994 939 917 1018 l 111 1018 l 111 968 l 821 968 b 946 843 890 968 946 913 l 946 678 b 822 554 946 610 890 554 b 821 554 822 554 821 554 l 111 554 l 111 504 l 821 504 b 822 504 821 504 822 504 b 946 381 890 504 946 449 l 946 174 b 821 50 946 106 890 50 l 111 50 l 111 0 l 821 0 b 994 174 917 0 994 78 l 994 381 b 911 529 994 443 961 499 b 994 678 961 560 994 615 z "},"4":{"ha":1275,"x_min":0,"x_max":0,"o":"m 1171 421 l 1036 421 l 1036 1018 l 988 1018 l 988 421 l 217 421 b 150 453 186 421 163 431 b 146 538 133 479 135 515 l 378 1018 l 322 1018 l 101 558 b 108 426 85 526 81 469 b 217 371 131 390 169 371 l 988 371 l 988 0 l 1036 0 l 1036 371 l 1171 371 l 1171 421 z "},"5":{"ha":1157,"x_min":0,"x_max":0,"o":"m 832 0 b 1006 174 928 0 1006 78 l 1006 408 b 832 582 1006 504 928 582 l 161 582 l 161 969 l 981 969 l 981 1019 l 111 1019 l 111 532 l 832 532 b 957 408 901 532 957 476 l 957 174 b 832 50 957 106 901 50 l 111 50 l 111 0 l 832 0 z "},"6":{"ha":1232,"x_min":0,"x_max":0,"o":"m 943 0 b 1117 174 1039 0 1117 78 l 1117 450 b 943 624 1117 546 1039 624 l 285 624 b 161 572 236 624 192 604 l 161 844 b 285 969 161 914 217 969 l 1092 969 l 1092 1019 l 285 1019 b 111 844 189 1019 111 940 l 111 457 l 111 450 l 111 174 b 285 0 111 78 189 0 z m 943 574 b 1068 450 1013 574 1068 518 l 1068 174 b 943 50 1068 106 1013 50 l 285 50 b 161 174 217 50 161 106 l 161 454 b 285 574 164 521 218 574 z "},"7":{"ha":956,"x_min":0,"x_max":0,"o":"m 347 303 l 347 328 b 386 442 347 371 353 411 l 832 836 b 871 922 857 860 871 890 b 847 983 871 944 861 967 b 767 1018 833 999 810 1018 l 6 1018 l 6 968 l 767 968 b 821 922 819 968 821 925 b 799 871 821 903 814 886 l 353 479 b 297 326 304 435 297 378 b 297 303 297 318 297 310 l 297 0 l 347 0 z "},"8":{"ha":1222,"x_min":0,"x_max":0,"o":"m 1089 678 l 1089 843 b 915 1018 1089 939 1011 1018 l 285 1018 b 111 843 189 1018 111 939 l 111 678 b 194 529 111 615 144 560 b 111 381 144 499 111 443 l 111 174 b 285 0 111 78 189 0 l 915 0 b 1089 174 1011 0 1089 78 l 1089 381 b 1006 529 1089 443 1056 499 b 1089 678 1056 560 1089 615 z m 1040 381 l 1040 174 b 915 50 1040 106 985 50 l 285 50 b 161 174 217 50 161 106 l 161 381 b 283 504 161 449 215 504 l 917 504 b 1040 381 985 504 1040 449 z m 283 554 b 161 678 215 554 161 610 l 161 843 b 285 968 161 913 217 968 l 915 968 b 1040 843 985 968 1040 913 l 1040 678 b 917 554 1040 610 985 554 z "},"9":{"ha":1239,"x_min":0,"x_max":0,"o":"m 285 1019 b 111 846 189 1019 111 942 l 111 569 b 285 396 111 474 189 396 l 943 396 b 1067 447 992 396 1035 415 l 1067 175 b 943 50 1067 106 1011 50 l 136 50 l 136 0 l 943 0 b 1117 175 1039 0 1117 79 l 1117 563 l 1117 569 l 1117 846 b 943 1019 1117 942 1039 1019 z m 285 446 b 160 569 215 446 160 501 l 160 846 b 285 969 160 914 215 969 l 943 969 b 1067 846 1011 969 1067 914 l 1067 564 b 943 446 1064 499 1010 446 z "},"A":{"ha":1236,"x_min":0,"x_max":0,"o":"m 238 308 l 938 308 l 1058 0 l 1111 0 l 757 907 b 692 994 743 942 721 972 b 588 1028 663 1017 626 1028 b 483 994 550 1028 514 1017 b 419 907 456 972 433 942 l 64 0 l 118 0 z m 588 979 b 710 889 643 979 689 944 l 918 358 l 257 358 l 465 889 b 588 979 488 944 533 979 z "},"Æ":{"ha":1963,"x_min":0,"x_max":0,"o":"m 917 846 b 1038 968 917 913 971 968 l 1792 968 l 1792 1017 l 1038 1017 b 868 846 944 1017 868 940 l 868 604 l 746 924 b 688 993 739 940 717 971 b 583 1026 658 1015 622 1026 b 479 993 546 1026 510 1015 b 415 906 451 971 429 940 l 60 -1 l 114 -1 l 286 442 l 868 442 l 868 169 b 1038 -1 868 75 944 -1 l 1792 -1 l 1792 49 l 1038 49 b 917 169 971 49 917 103 l 917 442 l 1726 442 l 1726 492 l 917 492 l 917 532 l 917 846 z m 461 888 b 583 978 483 943 529 978 b 699 906 639 978 685 943 l 858 492 l 306 492 l 461 888 z "},"Á":{"ha":1236,"x_min":0,"x_max":0,"o":"m 238 308 l 938 308 l 1058 0 l 1111 0 l 757 907 b 692 994 743 942 721 972 b 588 1028 663 1017 626 1028 b 483 994 550 1028 514 1017 b 419 907 456 972 433 942 l 64 0 l 118 0 z m 588 979 b 710 889 643 979 689 944 l 918 358 l 257 358 l 465 889 b 588 979 488 944 533 979 z m 603 1125 l 693 1276 l 633 1276 l 543 1125 z "},"Ă":{"ha":1236,"x_min":0,"x_max":0,"o":"m 238 308 l 938 308 l 1058 0 l 1111 0 l 757 907 b 692 994 743 942 721 972 b 588 1028 663 1017 626 1028 b 483 994 550 1028 514 1017 b 419 907 456 972 433 942 l 64 0 l 118 0 z m 588 979 b 710 889 643 979 689 944 l 918 358 l 257 358 l 465 889 b 588 979 488 944 533 979 z m 671 1122 b 819 1208 732 1122 789 1156 l 776 1233 b 671 1172 754 1196 714 1172 l 506 1172 b 400 1233 461 1172 421 1196 l 357 1208 b 506 1122 388 1156 444 1122 z "},"Â":{"ha":1236,"x_min":0,"x_max":0,"o":"m 238 308 l 938 308 l 1058 0 l 1111 0 l 757 907 b 692 994 743 942 721 972 b 588 1028 663 1017 626 1028 b 483 994 550 1028 514 1017 b 419 907 456 972 433 942 l 64 0 l 118 0 z m 588 979 b 710 889 643 979 689 944 l 918 358 l 257 358 l 465 889 b 588 979 488 944 533 979 z m 581 1219 l 393 1072 l 474 1072 l 581 1156 l 686 1072 l 764 1072 z "},"Ä":{"ha":1236,"x_min":0,"x_max":0,"o":"m 238 308 l 938 308 l 1058 0 l 1111 0 l 757 907 b 692 994 743 942 721 972 b 588 1028 663 1017 626 1028 b 483 994 550 1028 514 1017 b 419 907 456 972 433 942 l 64 0 l 118 0 z m 588 979 b 710 889 643 979 689 944 l 918 358 l 257 358 l 465 889 b 588 979 488 944 533 979 z m 497 1126 l 497 1244 l 447 1244 l 447 1126 z m 719 1126 l 719 1244 l 669 1244 l 669 1126 z "},"À":{"ha":1236,"x_min":0,"x_max":0,"o":"m 118 0 l 64 0 l 419 907 b 483 994 433 942 456 972 b 588 1028 514 1017 550 1028 b 692 994 626 1028 663 1017 b 757 907 721 972 743 942 l 1111 0 l 1058 0 l 938 308 l 238 308 z m 588 979 b 465 889 533 979 488 944 l 257 358 l 918 358 l 710 889 b 588 979 689 944 643 979 z m 664 1072 l 574 1224 l 514 1224 l 604 1072 z "},"Ā":{"ha":1236,"x_min":0,"x_max":0,"o":"m 238 308 l 938 308 l 1058 0 l 1111 0 l 757 907 b 692 994 743 942 721 972 b 588 1028 663 1017 626 1028 b 483 994 550 1028 514 1017 b 419 907 456 972 433 942 l 64 0 l 118 0 z m 588 979 b 710 889 643 979 689 944 l 918 358 l 257 358 l 465 889 b 588 979 488 944 533 979 z m 364 1121 l 814 1121 l 814 1171 l 364 1171 z "},"Å":{"ha":1236,"x_min":0,"x_max":0,"o":"m 238 308 l 938 308 l 1058 0 l 1111 0 l 757 907 b 692 994 743 942 721 972 b 588 1028 663 1017 626 1028 b 483 994 550 1028 514 1017 b 419 907 456 972 433 942 l 64 0 l 118 0 z m 588 979 b 710 889 643 979 689 944 l 918 358 l 257 358 l 465 889 b 588 979 488 944 533 979 z "},"Ã":{"ha":1236,"x_min":0,"x_max":0,"o":"m 238 308 l 938 308 l 1058 0 l 1111 0 l 757 907 b 692 994 743 942 721 972 b 588 1028 663 1017 626 1028 b 483 994 550 1028 514 1017 b 419 907 456 972 433 942 l 64 0 l 118 0 z m 588 979 b 710 889 643 979 689 944 l 918 358 l 257 358 l 465 889 b 588 979 488 944 533 979 z m 683 1085 b 710 1086 693 1085 701 1085 b 831 1149 757 1092 799 1114 l 794 1182 b 703 1135 771 1157 739 1140 b 603 1157 668 1131 633 1139 b 469 1186 564 1182 517 1193 b 349 1124 424 1181 381 1158 l 386 1090 b 476 1138 410 1117 442 1133 b 576 1115 511 1142 547 1135 b 683 1085 608 1094 646 1085 z "},"B":{"ha":1258,"x_min":0,"x_max":0,"o":"m 1013 511 b 1090 656 1060 542 1090 596 l 1090 844 b 917 1019 1090 940 1013 1019 l 111 1019 l 111 1 l 136 1 l 136 0 l 931 0 b 1104 174 1026 0 1104 78 l 1104 358 b 1013 511 1104 424 1068 482 z m 161 969 l 917 969 b 1042 844 986 969 1042 914 l 1042 656 b 917 532 1042 588 986 532 l 161 532 z m 1056 174 b 931 50 1056 106 1000 50 l 161 50 l 161 482 l 931 482 b 1056 358 1000 482 1056 426 z "},"C":{"ha":1204,"x_min":0,"x_max":0,"o":"m 1068 1019 l 375 1019 b 111 754 229 1019 111 900 l 111 264 b 375 0 111 118 229 0 l 1068 0 l 1068 50 l 375 50 b 160 264 257 50 160 146 l 160 754 b 375 969 160 872 257 969 l 1068 969 z "},"Ć":{"ha":1204,"x_min":0,"x_max":0,"o":"m 1068 1019 l 375 1019 b 111 754 229 1019 111 900 l 111 264 b 375 0 111 118 229 0 l 1068 0 l 1068 50 l 375 50 b 160 264 257 50 160 146 l 160 754 b 375 969 160 872 257 969 l 1068 969 z m 617 1069 l 707 1221 l 647 1221 l 557 1069 z "},"Č":{"ha":1204,"x_min":0,"x_max":0,"o":"m 1068 1019 l 375 1019 b 111 754 229 1019 111 900 l 111 264 b 375 0 111 118 229 0 l 1068 0 l 1068 50 l 375 50 b 160 264 257 50 160 146 l 160 754 b 375 969 160 872 257 969 l 1068 969 z m 600 1068 l 788 1214 l 757 1254 l 600 1132 l 447 1253 l 417 1214 z "},"Ç":{"ha":1204,"x_min":0,"x_max":0,"o":"m 676 -268 b 747 -233 703 -265 729 -254 b 776 -160 767 -214 776 -187 b 747 -86 776 -132 767 -106 b 676 -51 729 -65 703 -53 l 592 -51 l 610 0 l 1068 0 l 1068 50 l 375 50 b 160 264 257 50 160 146 l 160 754 b 375 969 160 872 257 969 l 1068 969 l 1068 1019 l 375 1019 b 111 754 229 1019 111 900 l 111 264 b 375 0 111 118 229 0 l 557 0 l 522 -100 l 672 -100 b 726 -160 703 -103 726 -129 b 672 -218 726 -190 703 -215 l 483 -218 l 483 -268 l 676 -268 z "},"D":{"ha":1358,"x_min":0,"x_max":0,"o":"m 935 0 b 1199 264 1081 0 1199 118 l 1199 753 b 935 1018 1199 899 1081 1018 l 111 1018 l 111 0 z m 160 50 l 160 968 l 935 968 b 1150 753 1053 968 1150 871 l 1150 264 b 935 50 1150 146 1053 50 z "},"Ď":{"ha":1394,"x_min":0,"x_max":0,"o":"m 935 0 b 1199 264 1081 0 1199 118 l 1199 753 b 935 1018 1199 899 1081 1018 l 111 1018 l 111 0 z m 160 50 l 160 968 l 935 968 b 1150 753 1053 968 1150 871 l 1150 264 b 935 50 1150 146 1053 50 z m 583 1068 l 771 1214 l 740 1254 l 583 1132 l 431 1253 l 400 1214 z "},"E":{"ha":1164,"x_min":0,"x_max":0,"o":"m 111 171 b 281 0 111 76 188 0 l 1035 0 l 1035 50 l 281 50 b 160 171 214 50 160 104 l 160 483 l 982 483 l 982 533 l 160 533 l 160 847 b 281 969 160 914 214 969 l 1035 969 l 1035 1018 l 281 1018 b 111 847 188 1018 111 942 l 111 171 z "},"É":{"ha":1147,"x_min":0,"x_max":0,"o":"m 111 171 b 281 0 111 76 188 0 l 1035 0 l 1035 50 l 281 50 b 160 171 214 50 160 104 l 160 483 l 982 483 l 982 533 l 160 533 l 160 847 b 281 969 160 914 214 969 l 1035 969 l 1035 1018 l 281 1018 b 111 847 188 1018 111 942 l 111 171 z m 558 1125 l 649 1276 l 589 1276 l 499 1125 z "},"Ě":{"ha":1147,"x_min":0,"x_max":0,"o":"m 111 171 b 281 0 111 76 188 0 l 1035 0 l 1035 50 l 281 50 b 160 171 214 50 160 104 l 160 483 l 982 483 l 982 533 l 160 533 l 160 847 b 281 969 160 914 214 969 l 1035 969 l 1035 1018 l 281 1018 b 111 847 188 1018 111 942 l 111 171 z m 572 1068 l 760 1214 l 729 1254 l 572 1132 l 419 1253 l 389 1214 z "},"Ê":{"ha":1221,"x_min":0,"x_max":0,"o":"m 111 171 b 281 0 111 76 188 0 l 1035 0 l 1035 50 l 281 50 b 160 171 214 50 160 104 l 160 483 l 982 483 l 982 533 l 160 533 l 160 847 b 281 969 160 914 214 969 l 1035 969 l 1035 1018 l 281 1018 b 111 847 188 1018 111 942 l 111 171 z m 585 1219 l 397 1072 l 478 1072 l 585 1156 l 690 1072 l 768 1072 z "},"Ë":{"ha":1147,"x_min":0,"x_max":0,"o":"m 111 171 b 281 0 111 76 188 0 l 1035 0 l 1035 50 l 281 50 b 160 171 214 50 160 104 l 160 483 l 982 483 l 982 533 l 160 533 l 160 847 b 281 969 160 914 214 969 l 1035 969 l 1035 1018 l 281 1018 b 111 847 188 1018 111 942 l 111 171 z m 476 1069 l 476 1188 l 426 1188 l 426 1069 z m 699 1069 l 699 1188 l 649 1188 l 649 1069 z "},"Ė":{"ha":1147,"x_min":0,"x_max":0,"o":"m 111 171 b 281 0 111 76 188 0 l 1035 0 l 1035 50 l 281 50 b 160 171 214 50 160 104 l 160 483 l 982 483 l 982 533 l 160 533 l 160 847 b 281 969 160 914 214 969 l 1035 969 l 1035 1018 l 281 1018 b 111 847 188 1018 111 942 l 111 171 z "},"È":{"ha":1147,"x_min":0,"x_max":0,"o":"m 111 171 b 281 0 111 76 188 0 l 1035 0 l 1035 50 l 281 50 b 160 171 214 50 160 104 l 160 483 l 982 483 l 982 533 l 160 533 l 160 847 b 281 969 160 914 214 969 l 1035 969 l 1035 1018 l 281 1018 b 111 847 188 1018 111 942 l 111 171 z m 635 1069 l 544 1221 l 485 1221 l 575 1069 z "},"Ē":{"ha":1147,"x_min":0,"x_max":0,"o":"m 111 171 b 281 0 111 76 188 0 l 1035 0 l 1035 50 l 281 50 b 160 171 214 50 160 104 l 160 483 l 982 483 l 982 533 l 160 533 l 160 847 b 281 969 160 914 214 969 l 1035 969 l 1035 1018 l 281 1018 b 111 847 188 1018 111 942 l 111 171 z m 349 1122 l 799 1122 l 799 1172 l 349 1172 z "},"Ð":{"ha":1364,"x_min":0,"x_max":0,"o":"m 935 0 b 1199 264 1081 0 1199 118 l 1199 753 b 935 1018 1199 899 1081 1018 l 111 1018 l 111 557 l -53 557 l -53 507 l 111 507 l 111 0 z m 160 50 l 160 507 l 618 507 l 618 557 l 160 557 l 160 968 l 935 968 b 1150 753 1053 968 1150 871 l 1150 264 b 935 50 1150 146 1053 50 z "},"F":{"ha":1058,"x_min":0,"x_max":0,"o":"m 282 969 l 967 969 l 967 1018 l 282 1018 b 113 847 189 1018 113 942 l 113 0 l 161 0 l 161 500 l 914 500 l 914 550 l 161 550 l 161 847 b 282 969 161 914 215 969 z "},"G":{"ha":1321,"x_min":0,"x_max":0,"o":"m 1161 0 l 1161 532 l 688 532 l 688 482 l 1113 482 l 1113 50 l 374 50 b 160 264 256 50 160 146 l 160 751 b 374 968 160 871 256 968 l 1156 968 l 1156 1018 l 374 1018 b 188 939 304 1018 238 990 b 111 751 138 888 111 821 l 111 264 b 374 0 111 118 229 0 l 1161 0 z "},"Ğ":{"ha":1286,"x_min":0,"x_max":0,"o":"m 1161 0 l 1161 532 l 688 532 l 688 482 l 1113 482 l 1113 50 l 374 50 b 160 264 256 50 160 146 l 160 751 b 374 968 160 871 256 968 l 1156 968 l 1156 1018 l 374 1018 b 188 939 304 1018 238 990 b 111 751 138 888 111 821 l 111 264 b 374 0 111 118 229 0 z m 711 1108 b 860 1194 772 1108 829 1142 l 817 1219 b 711 1158 794 1182 754 1158 l 546 1158 b 440 1219 501 1158 461 1182 l 397 1194 b 546 1108 428 1142 485 1108 z "},"H":{"ha":1278,"x_min":0,"x_max":0,"o":"m 1110 0 l 1110 1018 l 1060 1018 l 1060 533 l 165 533 l 165 1018 l 115 1018 l 115 0 l 165 0 l 165 483 l 1060 483 l 1060 0 z "},"I":{"ha":342,"x_min":0,"x_max":0,"o":"m 176 0 l 176 1018 l 126 1018 l 126 0 z "},"Í":{"ha":401,"x_min":0,"x_max":0,"o":"m 193 0 l 193 1018 l 143 1018 l 143 0 z m 186 1076 l 276 1228 l 217 1228 l 126 1076 z "},"Î":{"ha":401,"x_min":0,"x_max":0,"o":"m 193 0 l 193 1018 l 143 1018 l 143 0 z m 172 1217 l -15 1069 l 65 1069 l 172 1153 l 278 1069 l 356 1069 z "},"Ï":{"ha":336,"x_min":0,"x_max":0,"o":"m 193 0 l 193 1018 l 143 1018 l 143 0 z m 75 1071 l 75 1189 l 25 1189 l 25 1071 z m 297 1071 l 297 1189 l 247 1189 l 247 1071 z "},"İ":{"ha":401,"x_min":0,"x_max":0,"o":"m 193 0 l 193 1018 l 143 1018 l 143 0 z m 193 1093 l 193 1211 l 143 1211 l 143 1093 z "},"Ì":{"ha":401,"x_min":0,"x_max":0,"o":"m 143 0 l 143 1018 l 193 1018 l 193 0 z m 236 1069 l 146 1221 l 86 1221 l 176 1069 z "},"J":{"ha":835,"x_min":0,"x_max":0,"o":"m 622 1018 l 622 264 b 407 50 622 146 525 50 l 83 50 l 83 0 l 407 0 b 671 264 553 0 671 118 l 671 1018 z "},"K":{"ha":1288,"x_min":0,"x_max":0,"o":"m 819 499 b 807 508 815 503 811 506 b 819 518 811 511 815 515 b 892 607 844 539 865 567 l 1179 1018 l 1118 1018 l 851 635 b 718 533 804 564 778 533 l 161 533 l 161 1018 l 113 1018 l 113 0 l 161 0 l 161 483 l 718 483 b 851 383 778 483 804 453 l 1118 0 l 1178 0 l 892 411 b 819 499 865 451 844 479 z "},"L":{"ha":1019,"x_min":0,"x_max":0,"o":"m 906 0 l 906 50 l 253 50 b 161 140 203 50 161 90 l 161 1018 l 111 1018 l 111 140 b 253 0 111 64 175 0 l 906 0 z "},"Ĺ":{"ha":1019,"x_min":0,"x_max":0,"o":"m 906 0 l 906 50 l 253 50 b 161 140 203 50 161 90 l 161 1018 l 111 1018 l 111 140 b 253 0 111 64 175 0 z m 119 1074 l 210 1225 l 150 1225 l 60 1074 z "},"Ľ":{"ha":1019,"x_min":0,"x_max":0,"o":"m 906 0 l 906 50 l 253 50 b 161 140 203 50 161 90 l 161 1018 l 111 1018 l 111 140 b 253 0 111 64 175 0 z m 135 1074 l 322 1219 l 292 1260 l 135 1138 l -18 1258 l -49 1219 z "},"Ł":{"ha":1019,"x_min":0,"x_max":0,"o":"m 906 50 l 253 50 b 161 140 203 50 161 90 l 161 444 l 397 758 l 333 758 l 161 526 l 161 1018 l 111 1018 l 111 460 l -42 254 l 18 254 l 111 378 l 111 140 b 253 0 111 64 175 0 l 906 0 z "},"M":{"ha":1642,"x_min":0,"x_max":0,"o":"m 1458 919 b 1440 981 1458 943 1453 964 b 1396 1013 1429 996 1414 1007 b 1332 1011 1375 1019 1353 1019 b 1278 969 1311 1003 1292 989 l 785 239 l 292 969 b 238 1011 278 989 258 1003 b 174 1013 217 1019 193 1019 b 129 981 156 1007 139 996 b 111 919 117 964 111 943 l 111 0 l 161 0 l 161 919 b 189 965 161 943 171 960 b 250 940 206 971 233 965 l 785 150 l 1319 940 b 1381 965 1336 965 1363 971 b 1408 919 1399 960 1408 943 l 1408 0 l 1458 0 z "},"N":{"ha":1356,"x_min":0,"x_max":0,"o":"m 161 919 b 189 965 161 943 171 960 b 250 940 206 971 233 965 l 251 940 l 981 42 b 1035 1 994 22 1014 8 b 1099 -1 1056 -7 1078 -7 b 1143 32 1117 4 1132 17 b 1161 93 1154 49 1161 69 l 1161 1018 l 1111 1018 l 1111 93 b 1083 46 1111 68 1101 51 b 1021 71 1065 40 1039 46 l 1021 72 l 290 969 b 238 1011 278 989 258 1004 b 174 1013 217 1019 193 1019 b 129 981 156 1007 139 996 b 111 919 117 964 111 943 l 111 0 l 161 0 z "},"Ń":{"ha":1347,"x_min":0,"x_max":0,"o":"m 161 919 b 189 965 161 943 171 960 b 250 940 206 971 233 965 l 251 940 l 981 42 b 1035 1 994 22 1014 8 b 1099 -1 1056 -7 1078 -7 b 1143 32 1117 4 1132 17 b 1161 93 1154 49 1161 69 l 1161 1018 l 1111 1018 l 1111 93 b 1083 46 1111 68 1101 51 b 1021 71 1065 40 1039 46 l 1021 72 l 290 969 b 238 1011 278 989 258 1004 b 174 1013 217 1019 193 1019 b 129 981 156 1007 139 996 b 111 919 117 964 111 943 l 111 0 l 161 0 z m 658 1125 l 749 1276 l 689 1276 l 599 1125 z "},"Ň":{"ha":1347,"x_min":0,"x_max":0,"o":"m 161 919 b 189 965 161 943 171 960 b 250 940 206 971 233 965 l 251 940 l 981 42 b 1035 1 994 22 1014 8 b 1099 -1 1056 -7 1078 -7 b 1143 32 1117 4 1132 17 b 1161 93 1154 49 1161 69 l 1161 1018 l 1111 1018 l 1111 93 b 1083 46 1111 68 1101 51 b 1021 71 1065 40 1039 46 l 1021 72 l 290 969 b 238 1011 278 989 258 1004 b 174 1013 217 1019 193 1019 b 129 981 156 1007 139 996 b 111 919 117 964 111 943 l 111 0 l 161 0 z m 671 1068 l 858 1214 l 828 1254 l 671 1132 l 518 1253 l 488 1214 z "},"Ñ":{"ha":1347,"x_min":0,"x_max":0,"o":"m 161 919 b 189 965 161 943 171 960 b 250 940 206 971 233 965 l 251 940 l 981 42 b 1035 1 994 22 1014 8 b 1099 -1 1056 -7 1078 -7 b 1143 32 1117 4 1132 17 b 1161 93 1154 49 1161 69 l 1161 1018 l 1111 1018 l 1111 93 b 1083 46 1111 68 1101 51 b 1021 71 1065 40 1039 46 l 1021 72 l 290 969 b 238 1011 278 989 258 1004 b 174 1013 217 1019 193 1019 b 129 981 156 1007 139 996 b 111 919 117 964 111 943 l 111 0 l 161 0 z m 733 1071 b 760 1072 743 1071 751 1071 b 881 1135 807 1078 849 1100 l 844 1168 b 753 1121 821 1143 789 1126 b 653 1143 718 1117 683 1125 b 519 1172 614 1168 567 1179 b 399 1110 474 1167 431 1144 l 436 1076 b 526 1124 460 1103 492 1119 b 626 1101 561 1128 597 1121 b 733 1071 658 1081 696 1071 z "},"O":{"ha":1503,"x_min":0,"x_max":0,"o":"m 1032 0 b 1296 264 1178 0 1296 118 l 1296 754 b 1032 1019 1296 900 1178 1019 l 375 1019 b 111 754 229 1019 111 900 l 111 264 b 375 0 111 118 229 0 z m 1032 969 b 1247 754 1150 969 1247 872 l 1247 264 b 1032 50 1247 146 1150 50 l 375 50 b 160 264 257 50 160 146 l 160 754 b 375 969 160 872 257 969 z "},"Œ":{"ha":2206,"x_min":0,"x_max":0,"o":"m 1200 847 b 1321 969 1200 914 1254 969 l 2047 969 l 2047 1018 l 1321 1018 b 1158 897 1244 1018 1179 968 b 936 1019 1111 971 1029 1019 l 376 1019 b 113 754 231 1019 113 900 l 113 264 b 376 0 113 118 231 0 l 936 0 b 1158 122 1029 0 1111 49 b 1321 0 1179 51 1244 0 l 2047 0 l 2047 50 l 1321 50 b 1200 171 1254 50 1200 104 l 1200 264 l 1200 483 l 1994 483 l 1994 533 l 1200 533 l 1200 754 l 1200 847 z m 936 50 l 376 50 b 161 264 258 50 161 146 l 161 754 b 376 969 161 872 258 969 l 936 969 b 1151 754 1054 969 1151 872 l 1151 264 b 936 50 1151 146 1054 50 z "},"Ó":{"ha":1374,"x_min":0,"x_max":0,"o":"m 1032 0 b 1296 264 1178 0 1296 118 l 1296 754 b 1032 1019 1296 900 1178 1019 l 375 1019 b 111 754 229 1019 111 900 l 111 264 b 375 0 111 118 229 0 z m 1032 969 b 1247 754 1150 969 1247 872 l 1247 264 b 1032 50 1247 146 1150 50 l 375 50 b 160 264 257 50 160 146 l 160 754 b 375 969 160 872 257 969 z m 671 1125 l 761 1276 l 701 1276 l 611 1125 z "},"Ô":{"ha":1374,"x_min":0,"x_max":0,"o":"m 1032 0 b 1296 264 1178 0 1296 118 l 1296 754 b 1032 1019 1296 900 1178 1019 l 375 1019 b 111 754 229 1019 111 900 l 111 264 b 375 0 111 118 229 0 z m 1032 969 b 1247 754 1150 969 1247 872 l 1247 264 b 1032 50 1247 146 1150 50 l 375 50 b 160 264 257 50 160 146 l 160 754 b 375 969 160 872 257 969 z m 689 1215 l 501 1068 l 582 1068 l 689 1151 l 794 1068 l 872 1068 z "},"Ö":{"ha":1374,"x_min":0,"x_max":0,"o":"m 1032 0 b 1296 264 1178 0 1296 118 l 1296 754 b 1032 1019 1296 900 1178 1019 l 375 1019 b 111 754 229 1019 111 900 l 111 264 b 375 0 111 118 229 0 z m 1032 969 b 1247 754 1150 969 1247 872 l 1247 264 b 1032 50 1247 146 1150 50 l 375 50 b 160 264 257 50 160 146 l 160 754 b 375 969 160 872 257 969 z m 586 1126 l 586 1244 l 536 1244 l 536 1126 z m 808 1126 l 808 1244 l 758 1244 l 758 1126 z "},"Ò":{"ha":1374,"x_min":0,"x_max":0,"o":"m 1032 0 l 375 0 b 111 264 229 0 111 118 l 111 754 b 375 1019 111 900 229 1019 l 1032 1019 b 1296 754 1178 1019 1296 900 l 1296 264 b 1032 0 1296 118 1178 0 z m 375 969 b 160 754 257 969 160 872 l 160 264 b 375 50 160 146 257 50 l 1032 50 b 1247 264 1150 50 1247 146 l 1247 754 b 1032 969 1247 872 1150 969 z m 733 1069 l 643 1221 l 583 1221 l 674 1069 z "},"Ō":{"ha":1374,"x_min":0,"x_max":0,"o":"m 1032 0 b 1296 264 1178 0 1296 118 l 1296 754 b 1032 1019 1296 900 1178 1019 l 375 1019 b 111 754 229 1019 111 900 l 111 264 b 375 0 111 118 229 0 z m 1032 969 b 1247 754 1150 969 1247 872 l 1247 264 b 1032 50 1247 146 1150 50 l 375 50 b 160 264 257 50 160 146 l 160 754 b 375 969 160 872 257 969 z m 464 1126 l 914 1126 l 914 1176 l 464 1176 z "},"Ø":{"ha":1374,"x_min":0,"x_max":0,"o":"m 1032 0 b 1296 264 1178 0 1296 118 l 1296 754 b 1032 1019 1296 900 1178 1019 l 375 1019 b 111 754 229 1019 111 900 l 111 264 b 358 0 111 124 219 8 z m 447 50 l 986 969 l 1032 969 b 1247 754 1150 969 1247 872 l 1247 264 b 1032 50 1247 146 1150 50 z m 926 969 l 388 50 l 375 50 b 160 264 257 50 160 146 l 160 754 b 375 969 160 872 257 969 z "},"Õ":{"ha":1374,"x_min":0,"x_max":0,"o":"m 1032 0 b 1296 264 1178 0 1296 118 l 1296 754 b 1032 1019 1296 900 1178 1019 l 375 1019 b 111 754 229 1019 111 900 l 111 264 b 375 0 111 118 229 0 z m 1032 969 b 1247 754 1150 969 1247 872 l 1247 264 b 1032 50 1247 146 1150 50 l 375 50 b 160 264 257 50 160 146 l 160 754 b 375 969 160 872 257 969 z m 781 1099 b 807 1100 790 1099 799 1099 b 928 1163 854 1106 896 1128 l 892 1196 b 800 1149 868 1171 836 1154 b 700 1171 765 1144 731 1153 b 567 1200 661 1196 614 1207 b 446 1138 521 1194 478 1172 l 483 1104 b 574 1151 507 1131 539 1147 b 674 1129 608 1156 644 1149 b 781 1099 706 1108 743 1099 z "},"P":{"ha":1193,"x_min":0,"x_max":0,"o":"m 876 392 b 1050 565 972 392 1050 469 l 1050 844 b 876 1019 1050 940 972 1019 l 114 1019 l 114 1 l 164 1 l 164 392 l 876 392 z m 164 969 l 876 969 b 1001 844 946 969 1001 914 l 1001 565 b 876 442 1001 497 946 442 l 164 442 l 164 969 z "},"Q":{"ha":1401,"x_min":0,"x_max":0,"o":"m 721 -111 l 721 0 l 990 0 b 1254 264 1136 0 1254 118 l 1254 754 b 990 1019 1254 900 1136 1019 l 375 1019 b 111 754 229 1019 111 900 l 111 264 b 375 0 111 118 229 0 l 671 0 l 671 -111 z m 990 969 b 1206 754 1108 969 1206 872 l 1206 264 b 990 50 1206 146 1108 50 l 721 50 l 721 185 l 671 185 l 671 50 l 375 50 b 160 264 257 50 160 146 l 160 754 b 375 969 160 872 257 969 z "},"R":{"ha":1263,"x_min":0,"x_max":0,"o":"m 1138 0 l 842 392 l 921 392 b 1094 565 1017 392 1094 469 l 1094 844 b 921 1019 1094 940 1017 1019 l 113 1019 l 113 1 l 163 1 l 163 392 l 779 392 l 1075 0 l 1138 0 z m 163 969 l 921 969 b 1046 844 990 969 1046 914 l 1046 565 b 921 442 1046 497 990 442 l 163 442 l 163 969 z "},"S":{"ha":1221,"x_min":0,"x_max":0,"o":"m 860 0 b 1000 53 915 0 965 18 b 1057 186 1036 86 1057 133 l 1057 306 b 1033 379 1057 311 1056 343 b 875 474 1013 413 968 456 l 349 593 b 154 722 285 607 154 638 l 154 822 b 193 929 153 876 174 910 b 283 969 217 954 251 969 l 1014 969 l 1014 1019 l 283 1019 b 157 963 239 1019 190 999 b 104 822 132 938 103 892 l 104 722 b 133 640 104 692 114 664 b 199 590 149 621 171 604 b 338 544 247 565 304 551 l 865 425 l 865 424 b 1007 307 1003 399 1007 313 l 1007 186 b 860 50 1007 106 946 50 l 113 50 l 113 0 l 860 0 z "},"Š":{"ha":1157,"x_min":0,"x_max":0,"o":"m 860 0 b 1000 53 915 0 965 18 b 1057 186 1036 86 1057 133 l 1057 306 b 1033 379 1057 311 1056 343 b 875 474 1013 413 968 456 l 349 593 b 154 722 285 607 154 638 l 154 822 b 193 929 153 876 174 910 b 283 969 217 954 251 969 l 1014 969 l 1014 1019 l 283 1019 b 157 963 239 1019 190 999 b 104 822 132 938 103 892 l 104 722 b 133 640 104 692 114 664 b 199 590 149 621 171 604 b 338 544 247 565 304 551 l 865 425 l 865 424 b 1007 307 1003 399 1007 313 l 1007 186 b 860 50 1007 106 946 50 l 113 50 l 113 0 z m 581 1074 l 768 1219 l 738 1260 l 581 1138 l 428 1258 l 397 1219 z "},"T":{"ha":1050,"x_min":0,"x_max":0,"o":"m 508 0 l 508 968 l 968 968 l 968 1018 l 0 1018 l 0 968 l 458 968 l 458 0 z "},"Ť":{"ha":1050,"x_min":0,"x_max":0,"o":"m 508 0 l 508 968 l 968 968 l 968 1018 l 0 1018 l 0 968 l 458 968 l 458 0 z m 481 1068 l 668 1214 l 638 1254 l 481 1132 l 328 1253 l 297 1214 z "},"U":{"ha":1315,"x_min":0,"x_max":0,"o":"m 111 1018 l 111 264 b 375 0 111 118 229 0 l 893 0 b 1157 264 1039 0 1157 118 l 1157 1018 l 1108 1018 l 1108 264 b 893 50 1108 146 1011 50 l 375 50 b 160 264 257 50 160 146 l 160 1018 z "},"Ú":{"ha":1315,"x_min":0,"x_max":0,"o":"m 111 1018 l 111 264 b 375 0 111 118 229 0 l 893 0 b 1157 264 1039 0 1157 118 l 1157 1018 l 1108 1018 l 1108 264 b 893 50 1108 146 1011 50 l 375 50 b 160 264 257 50 160 146 l 160 1018 z m 642 1069 l 732 1221 l 672 1221 l 582 1069 z "},"Û":{"ha":1315,"x_min":0,"x_max":0,"o":"m 111 1018 l 111 264 b 375 0 111 118 229 0 l 893 0 b 1157 264 1039 0 1157 118 l 1157 1018 l 1108 1018 l 1108 264 b 893 50 1108 146 1011 50 l 375 50 b 160 264 257 50 160 146 l 160 1018 z m 624 1222 l 436 1075 l 517 1075 l 624 1158 l 729 1075 l 807 1075 z "},"Ü":{"ha":1315,"x_min":0,"x_max":0,"o":"m 111 1018 l 111 264 b 375 0 111 118 229 0 l 893 0 b 1157 264 1039 0 1157 118 l 1157 1018 l 1108 1018 l 1108 264 b 893 50 1108 146 1011 50 l 375 50 b 160 264 257 50 160 146 l 160 1018 z m 535 1072 l 535 1190 l 485 1190 l 485 1072 z m 757 1072 l 757 1190 l 707 1190 l 707 1072 z "},"Ù":{"ha":1315,"x_min":0,"x_max":0,"o":"m 160 1018 l 160 264 b 375 50 160 146 257 50 l 893 50 b 1108 264 1011 50 1108 146 l 1108 1018 l 1157 1018 l 1157 264 b 893 0 1157 118 1039 0 l 375 0 b 111 264 229 0 111 118 l 111 1018 z m 672 1072 l 582 1224 l 522 1224 l 613 1072 z "},"Ū":{"ha":1315,"x_min":0,"x_max":0,"o":"m 111 1018 l 111 264 b 375 0 111 118 229 0 l 893 0 b 1157 264 1039 0 1157 118 l 1157 1018 l 1108 1018 l 1108 264 b 893 50 1108 146 1011 50 l 375 50 b 160 264 257 50 160 146 l 160 1018 z m 407 1069 l 857 1069 l 857 1119 l 407 1119 z "},"V":{"ha":1235,"x_min":0,"x_max":0,"o":"m 606 0 b 710 35 644 0 681 11 b 774 122 738 56 760 86 l 1128 1018 l 1074 1018 l 728 140 l 728 139 b 606 50 706 83 660 50 b 483 139 550 50 504 83 l 139 1018 l 85 1018 l 438 122 b 501 35 450 86 472 56 b 606 0 531 11 567 0 z "},"X":{"ha":1085,"x_min":0,"x_max":0,"o":"m 979 0 l 550 506 l 985 1018 l 917 1018 l 517 544 l 117 1018 l 53 1018 l 485 507 l 56 0 l 122 0 l 518 468 l 915 0 z "},"Y":{"ha":1232,"x_min":0,"x_max":0,"o":"m 567 388 b 643 421 596 390 621 401 b 715 508 668 442 689 468 l 1071 1018 l 1010 1018 l 675 536 b 542 436 628 467 601 436 b 410 538 483 436 458 467 l 74 1018 l 14 1018 l 368 508 b 517 388 411 447 447 397 l 517 0 l 567 0 z "},"Ÿ":{"ha":1232,"x_min":0,"x_max":0,"o":"m 567 388 b 643 421 596 390 621 401 b 715 508 668 442 689 468 l 1071 1018 l 1010 1018 l 675 536 b 542 436 628 467 601 436 b 410 538 483 436 458 467 l 74 1018 l 14 1018 l 368 508 b 517 388 411 447 447 397 l 517 0 l 567 0 z m 451 1015 l 451 1133 l 401 1133 l 401 1015 z m 674 1015 l 674 1133 l 624 1133 l 624 1015 z "},"Z":{"ha":1157,"x_min":0,"x_max":0,"o":"m 997 0 l 997 50 l 214 50 b 161 94 161 50 161 93 b 183 146 161 114 169 133 l 963 836 b 1001 924 986 858 1001 890 b 978 985 1001 946 992 968 b 897 1019 964 1000 940 1019 l 136 1019 l 136 969 l 897 969 b 951 924 950 969 951 926 b 929 874 951 906 943 886 l 150 183 l 150 182 b 111 94 125 160 111 128 b 135 33 111 74 119 50 b 214 0 147 18 172 0 l 997 0 z "},"Ž":{"ha":1157,"x_min":0,"x_max":0,"o":"m 997 0 l 997 50 l 214 50 b 161 94 161 50 161 93 b 183 146 161 114 169 133 l 963 836 b 1001 924 986 858 1001 890 b 978 985 1001 946 992 968 b 897 1019 964 1000 940 1019 l 136 1019 l 136 969 l 897 969 b 951 924 950 969 951 926 b 929 874 951 906 943 886 l 150 183 l 150 182 b 111 94 125 160 111 128 b 135 33 111 74 119 50 b 214 0 147 18 172 0 z m 561 1072 l 749 1218 l 718 1258 l 561 1136 l 408 1257 l 378 1218 z "},"a":{"ha":1260,"x_min":0,"x_max":0,"o":"m 493 889 b 615 979 515 944 561 979 b 738 889 671 979 717 944 l 946 358 l 376 358 l 376 308 l 965 308 l 1086 0 l 1139 0 l 785 907 b 719 994 771 942 749 972 b 615 1028 690 1017 654 1028 b 511 994 578 1028 542 1017 b 447 907 483 972 461 942 l 92 0 l 146 0 z "},"á":{"ha":1236,"x_min":0,"x_max":0,"o":"m 493 889 b 615 979 515 944 561 979 b 738 889 671 979 717 944 l 946 358 l 376 358 l 376 308 l 965 308 l 1086 0 l 1139 0 l 785 907 b 719 994 771 942 749 972 b 615 1028 690 1017 654 1028 b 511 994 578 1028 542 1017 b 447 907 483 972 461 942 l 92 0 l 146 0 z m 576 1075 l 667 1226 l 607 1226 l 517 1075 z "},"â":{"ha":1236,"x_min":0,"x_max":0,"o":"m 493 889 b 615 979 515 944 561 979 b 738 889 671 979 717 944 l 946 358 l 376 358 l 376 308 l 965 308 l 1086 0 l 1139 0 l 785 907 b 719 994 771 942 749 972 b 615 1028 690 1017 654 1028 b 511 994 578 1028 542 1017 b 447 907 483 972 461 942 l 92 0 l 146 0 z m 593 1224 l 406 1076 l 486 1076 l 593 1160 l 699 1076 l 776 1076 z "},"´":{"ha":1157,"x_min":0,"x_max":0,"o":"m 592 839 l 682 990 l 622 990 l 532 839 z "},"ä":{"ha":1236,"x_min":0,"x_max":0,"o":"m 493 889 b 615 979 515 944 561 979 b 738 889 671 979 717 944 l 946 358 l 376 358 l 376 308 l 965 308 l 1086 0 l 1139 0 l 785 907 b 719 994 771 942 749 972 b 615 1028 690 1017 654 1028 b 511 994 578 1028 542 1017 b 447 907 483 972 461 942 l 92 0 l 146 0 z m 500 1074 l 500 1192 l 450 1192 l 450 1074 z m 722 1074 l 722 1192 l 672 1192 l 672 1074 z "},"А":{"ha":1236,"x_min":0,"x_max":0,"o":"m 238 308 l 938 308 l 1058 0 l 1111 0 l 757 907 b 692 994 743 942 721 972 b 588 1028 663 1017 626 1028 b 483 994 550 1028 514 1017 b 419 907 456 972 433 942 l 64 0 l 118 0 z m 588 979 b 710 889 643 979 689 944 l 918 358 l 257 358 l 465 889 b 588 979 488 944 533 979 z "},"Б":{"ha":1222,"x_min":0,"x_max":0,"o":"m 111 0 l 874 0 b 1047 175 969 0 1047 79 l 1047 440 b 874 614 1047 536 969 614 l 161 614 l 161 968 l 1040 968 l 1040 1018 l 111 1018 z m 161 564 l 874 564 b 999 440 943 564 999 508 l 999 175 b 874 50 999 106 943 50 l 161 50 z "},"В":{"ha":1244,"x_min":0,"x_max":0,"o":"m 1013 511 b 1090 656 1060 542 1090 596 l 1090 844 b 917 1019 1090 940 1013 1019 l 111 1019 l 111 1 l 136 1 l 136 0 l 931 0 b 1104 174 1026 0 1104 78 l 1104 358 b 1013 511 1104 424 1068 482 z m 161 969 l 917 969 b 1042 844 986 969 1042 914 l 1042 656 b 917 532 1042 588 986 532 l 161 532 z m 1056 174 b 931 50 1056 106 1000 50 l 161 50 l 161 482 l 931 482 b 1056 358 1000 482 1056 426 z "},"Г":{"ha":1014,"x_min":0,"x_max":0,"o":"m 906 1018 l 253 1018 b 111 878 175 1018 111 954 l 111 0 l 161 0 l 161 878 b 253 968 161 928 203 968 l 906 968 z "},"Д":{"ha":1446,"x_min":0,"x_max":0,"o":"m 1310 -150 l 1358 -150 l 1358 -29 b 1336 26 1358 -8 1351 11 b 1281 49 1321 42 1301 49 l 1207 49 l 872 907 b 807 994 858 942 836 972 b 703 1028 778 1017 742 1028 b 599 994 665 1028 629 1017 b 535 907 571 972 549 942 l 197 49 l 119 49 b 64 26 99 49 79 42 b 42 -29 49 11 42 -8 l 42 -150 l 90 -150 l 90 -29 b 99 -8 90 -21 93 -14 b 119 0 104 -4 111 0 l 1281 0 b 1301 -8 1289 0 1296 -4 b 1310 -29 1307 -14 1310 -21 z m 703 979 b 825 889 758 979 804 944 l 1154 49 l 251 49 l 581 889 b 703 979 603 944 649 979 z "},"Е":{"ha":1147,"x_min":0,"x_max":0,"o":"m 111 171 b 281 0 111 76 188 0 l 979 0 l 979 50 l 281 50 b 160 171 214 50 160 104 l 160 483 l 926 483 l 926 533 l 160 533 l 160 847 b 281 969 160 914 214 969 l 979 969 l 979 1018 l 281 1018 b 111 847 188 1018 111 942 l 111 171 z "},"Ё":{"ha":1147,"x_min":0,"x_max":0,"o":"m 111 171 b 281 0 111 76 188 0 l 1035 0 l 1035 50 l 281 50 b 160 171 214 50 160 104 l 160 483 l 982 483 l 982 533 l 160 533 l 160 847 b 281 969 160 914 214 969 l 1035 969 l 1035 1018 l 281 1018 b 111 847 188 1018 111 942 l 111 171 z "},"И":{"ha":1301,"x_min":0,"x_max":0,"o":"m 161 1018 l 111 1018 l 111 93 b 129 32 111 69 117 49 b 174 0 139 17 156 6 b 238 1 193 -7 217 -7 b 290 43 258 8 278 24 l 972 940 l 972 942 b 1035 967 990 967 1017 972 b 1063 919 1053 961 1063 944 l 1063 -6 l 1113 -6 l 1113 919 b 1094 981 1113 943 1106 964 b 1050 1014 1083 996 1068 1008 b 986 1011 1029 1019 1007 1019 b 932 971 965 1004 946 990 l 251 72 l 250 72 b 189 47 233 47 206 42 b 161 93 171 53 161 69 z "},"К":{"ha":1288,"x_min":0,"x_max":0,"o":"m 819 499 b 807 508 815 503 811 506 b 819 518 811 511 815 515 b 892 607 844 539 865 567 l 1179 1018 l 1118 1018 l 851 635 b 718 533 804 564 778 533 l 161 533 l 161 1018 l 113 1018 l 113 0 l 161 0 l 161 483 l 718 483 b 851 383 778 483 804 453 l 1118 0 l 1178 0 l 892 411 b 819 499 865 451 844 479 z "},"Л":{"ha":1236,"x_min":0,"x_max":0,"o":"m 118 0 l 465 889 b 588 979 488 944 533 979 b 710 889 643 979 689 944 l 1058 0 l 1111 0 l 757 907 b 692 994 743 942 721 972 b 588 1028 663 1017 626 1028 b 483 994 550 1028 514 1017 b 419 907 456 972 433 942 l 64 0 l 118 0 z "},"М":{"ha":1707,"x_min":0,"x_max":0,"o":"m 1458 919 b 1440 981 1458 943 1453 964 b 1396 1013 1429 996 1414 1007 b 1332 1011 1375 1019 1353 1019 b 1278 969 1311 1003 1292 989 l 785 239 l 292 969 b 238 1011 278 989 258 1003 b 174 1013 217 1019 193 1019 b 129 981 156 1007 139 996 b 111 919 117 964 111 943 l 111 0 l 161 0 l 161 919 b 189 965 161 943 171 960 b 250 940 206 971 233 965 l 785 150 l 1319 940 b 1381 965 1336 965 1363 971 b 1408 919 1399 960 1408 943 l 1408 0 l 1458 0 z "},"Н":{"ha":1303,"x_min":0,"x_max":0,"o":"m 1111 0 l 1111 1018 l 1061 1018 l 1061 533 l 167 533 l 167 1018 l 117 1018 l 117 0 l 167 0 l 167 483 l 1061 483 l 1061 0 z "},"О":{"ha":1517,"x_min":0,"x_max":0,"o":"m 1032 0 b 1296 264 1178 0 1296 118 l 1296 754 b 1032 1019 1296 900 1178 1019 l 375 1019 b 111 754 229 1019 111 900 l 111 264 b 375 0 111 118 229 0 z m 1032 969 b 1247 754 1150 969 1247 872 l 1247 264 b 1032 50 1247 146 1150 50 l 375 50 b 160 264 257 50 160 146 l 160 754 b 375 969 160 872 257 969 z "},"П":{"ha":1288,"x_min":0,"x_max":0,"o":"m 1101 0 l 1101 940 b 1079 996 1101 961 1094 981 b 1024 1018 1064 1011 1044 1018 l 189 1018 b 133 996 168 1018 149 1011 b 111 940 118 981 111 961 l 111 0 l 160 0 l 160 940 b 168 961 160 949 163 956 b 189 969 174 965 181 969 l 1024 969 b 1044 961 1032 969 1039 965 b 1053 940 1050 956 1053 949 l 1053 0 z "},"Р":{"ha":1226,"x_min":0,"x_max":0,"o":"m 910 392 b 1083 565 1006 392 1083 469 l 1083 844 b 910 1019 1083 940 1006 1019 l 147 1019 l 147 1 l 197 1 l 197 392 l 910 392 z m 197 969 l 910 969 b 1035 844 979 969 1035 914 l 1035 565 b 910 442 1035 497 979 442 l 197 442 l 197 969 z "},"С":{"ha":1204,"x_min":0,"x_max":0,"o":"m 1068 1019 l 375 1019 b 111 754 229 1019 111 900 l 111 264 b 375 0 111 118 229 0 l 1068 0 l 1068 50 l 375 50 b 160 264 257 50 160 146 l 160 754 b 375 969 160 872 257 969 l 1068 969 z "},"Т":{"ha":1050,"x_min":0,"x_max":0,"o":"m 508 0 l 508 968 l 968 968 l 968 1018 l 0 1018 l 0 968 l 458 968 l 458 0 z "},"У":{"ha":1315,"x_min":0,"x_max":0,"o":"m 118 1017 l 118 569 b 292 396 118 474 196 396 l 950 396 b 1074 447 999 396 1042 415 l 1074 175 b 950 50 1074 106 1018 50 l 143 50 l 143 0 l 950 0 b 1124 175 1046 0 1124 79 l 1124 563 l 1124 569 l 1124 1018 l 1074 1018 l 1074 564 b 950 446 1071 499 1017 446 l 292 446 b 167 569 222 446 167 501 l 167 1017 z m 1124 1018 l 1074 1018 z "},"Х":{"ha":1085,"x_min":0,"x_max":0,"o":"m 979 0 l 550 506 l 985 1018 l 917 1018 l 517 544 l 117 1018 l 53 1018 l 485 507 l 56 0 l 122 0 l 518 468 l 915 0 z "},"Ъ":{"ha":1374,"x_min":0,"x_max":0,"o":"m 3 968 l 264 968 l 264 0 l 1054 0 b 1228 175 1150 0 1228 79 l 1228 454 b 1054 628 1228 550 1150 628 l 314 628 l 314 1018 l 3 1018 z m 314 578 l 1054 578 b 1179 454 1124 578 1179 522 l 1179 175 b 1054 50 1179 106 1124 50 l 314 50 z "},"Ы":{"ha":1256,"x_min":0,"x_max":0,"o":"m 161 628 l 161 1018 l 111 1018 l 111 0 l 874 0 b 1047 175 969 0 1047 79 l 1047 454 b 874 628 1047 550 969 628 z m 161 578 l 874 578 b 999 454 943 578 999 522 l 999 175 b 874 50 999 106 943 50 l 161 50 z m 1189 0 l 1189 1018 l 1139 1018 l 1139 0 z "},"Ь":{"ha":1193,"x_min":0,"x_max":0,"o":"m 164 629 l 164 1019 l 114 1019 l 114 1 l 876 1 b 1050 176 972 1 1050 81 l 1050 456 b 876 629 1050 551 972 629 z m 164 579 l 876 579 b 1001 456 946 579 1001 524 l 1001 176 b 876 51 1001 107 946 51 l 164 51 z "},"Я":{"ha":1281,"x_min":0,"x_max":0,"o":"m 113 0 l 175 0 l 471 392 l 1056 392 l 1056 1 l 1106 1 l 1106 1019 l 329 1019 b 156 844 233 1019 156 940 l 156 565 b 329 392 156 469 233 392 l 408 392 z m 1056 969 l 1056 442 l 329 442 b 204 565 260 442 204 497 l 204 844 b 329 969 204 914 260 969 z "},"Ѓ":{"ha":1064,"x_min":0,"x_max":0,"o":"m 906 1018 l 253 1018 b 111 878 175 1018 111 954 l 111 0 l 161 0 l 161 878 b 253 968 161 928 203 968 l 906 968 z m 517 1125 l 607 1276 l 547 1276 l 457 1125 z "},"Ї":{"ha":1157,"x_min":0,"x_max":0,"o":""},"Ћ":{"ha":1294,"x_min":0,"x_max":0,"o":"m 894 729 l 613 729 b 397 618 524 729 444 685 l 397 968 l 732 968 l 732 1018 l 0 1018 l 0 968 l 347 968 l 347 0 l 397 0 l 397 465 b 613 679 397 583 494 679 l 894 679 b 1110 465 1013 679 1110 583 l 1110 0 l 1158 0 l 1158 465 b 894 729 1158 611 1040 729 z "},"Ќ":{"ha":1288,"x_min":0,"x_max":0,"o":"m 819 499 b 807 508 815 503 811 506 b 819 518 811 511 815 515 b 892 607 844 539 865 567 l 1179 1018 l 1118 1018 l 851 635 b 718 533 804 564 778 533 l 161 533 l 161 1018 l 113 1018 l 113 0 l 161 0 l 161 483 l 718 483 b 851 383 778 483 804 453 l 1118 0 l 1178 0 l 892 411 b 819 499 865 451 844 479 z m 628 1125 l 718 1276 l 658 1276 l 568 1125 z "},"а":{"ha":1236,"x_min":0,"x_max":0,"o":"m 493 889 b 615 979 515 944 561 979 b 738 889 671 979 717 944 l 946 358 l 376 358 l 376 308 l 965 308 l 1086 0 l 1139 0 l 785 907 b 719 994 771 942 749 972 b 615 1028 690 1017 654 1028 b 511 994 578 1028 542 1017 b 447 907 483 972 461 942 l 92 0 l 146 0 z "},"б":{"ha":1179,"x_min":0,"x_max":0,"o":"m 161 968 l 1040 968 l 1040 1018 l 111 1018 l 111 0 l 874 0 b 1047 175 969 0 1047 79 l 1047 440 b 874 614 1047 536 969 614 l 246 614 l 246 564 l 874 564 b 999 440 943 564 999 508 l 999 175 b 874 50 999 106 943 50 l 161 50 z "},"в":{"ha":1226,"x_min":0,"x_max":0,"o":"m 983 513 b 1061 657 1031 543 1061 597 l 1061 844 b 888 1019 1061 940 983 1019 l 111 1019 l 111 1 l 136 1 l 136 0 l 901 0 b 1075 174 997 0 1075 78 l 1075 360 b 983 513 1075 425 1039 483 z m 246 483 l 901 483 b 1026 360 971 483 1026 428 l 1026 174 b 901 50 1026 106 971 50 l 161 50 l 161 969 l 888 969 b 1013 844 957 969 1013 914 l 1013 657 b 888 533 1013 589 957 533 l 246 533 z "},"г":{"ha":1064,"x_min":0,"x_max":0,"o":"m 906 1018 l 253 1018 b 111 878 175 1018 111 954 l 111 0 l 161 0 l 161 878 b 253 968 161 928 203 968 l 906 968 z "},"е":{"ha":1147,"x_min":0,"x_max":0,"o":"m 246 483 l 982 483 l 982 533 l 246 533 z m 160 847 b 281 969 160 914 214 969 l 1035 969 l 1035 1018 l 281 1018 b 111 847 188 1018 111 942 l 111 171 b 281 0 111 76 188 0 l 1035 0 l 1035 50 l 281 50 b 160 171 214 50 160 104 z "},"к":{"ha":1288,"x_min":0,"x_max":0,"o":"m 160 1018 l 111 1018 l 111 0 l 160 0 z m 246 483 l 717 483 b 850 383 776 483 803 453 l 1117 0 l 1176 0 l 890 411 b 818 499 864 451 843 479 b 806 508 814 503 810 506 b 818 518 810 511 814 515 b 890 607 843 539 864 567 l 1178 1018 l 1117 1018 l 850 635 b 717 533 803 564 776 533 l 246 533 z "},"л":{"ha":1236,"x_min":0,"x_max":0,"o":"m 118 0 l 465 889 b 588 979 488 944 533 979 b 710 889 643 979 689 944 l 1058 0 l 1111 0 l 757 907 b 692 994 743 942 721 972 b 588 1028 663 1017 626 1028 b 483 994 550 1028 514 1017 b 419 907 456 972 433 942 l 64 0 l 118 0 z "},"м":{"ha":1563,"x_min":0,"x_max":0,"o":"m 1372 0 l 1372 1018 l 1317 1018 l 742 217 l 167 1018 l 111 1018 l 111 0 l 161 0 l 161 940 l 721 160 l 761 160 l 1322 940 l 1322 0 l 1372 0 z "},"н":{"ha":1278,"x_min":0,"x_max":0,"o":"m 1133 0 l 1133 1018 l 1083 1018 l 1083 533 l 246 533 l 246 483 l 1083 483 l 1083 0 z m 161 0 l 161 1018 l 111 1018 l 111 0 z "},"о":{"ha":1483,"x_min":0,"x_max":0,"o":"m 1032 0 b 1296 264 1178 0 1296 118 l 1296 754 b 1032 1019 1296 900 1178 1019 l 375 1019 b 111 754 229 1019 111 900 l 111 264 b 375 0 111 118 229 0 z m 1032 969 b 1247 754 1150 969 1247 872 l 1247 264 b 1032 50 1247 146 1150 50 l 375 50 b 160 264 257 50 160 146 l 160 754 b 375 969 160 872 257 969 z "},"п":{"ha":1275,"x_min":0,"x_max":0,"o":"m 1101 0 l 1101 940 b 1079 996 1101 961 1094 981 b 1024 1018 1064 1011 1044 1018 l 189 1018 b 133 996 168 1018 149 1011 b 111 940 118 981 111 961 l 111 0 l 160 0 l 160 940 b 168 961 160 949 163 956 b 189 969 174 965 181 969 l 1024 969 b 1044 961 1032 969 1039 965 b 1053 940 1050 956 1053 949 l 1053 0 z "},"р":{"ha":1208,"x_min":0,"x_max":0,"o":"m 161 969 l 874 969 b 999 844 943 969 999 914 l 999 565 b 874 442 999 497 943 442 l 246 442 l 246 392 l 874 392 b 1047 565 969 392 1047 469 l 1047 844 b 874 1019 1047 940 969 1019 l 111 1019 l 111 1 l 161 1 z "},"с":{"ha":1204,"x_min":0,"x_max":0,"o":"m 1068 1019 l 375 1019 b 111 754 229 1019 111 900 l 111 264 b 375 0 111 118 229 0 l 1068 0 l 1068 50 l 375 50 b 160 264 257 50 160 146 l 160 754 b 375 969 160 872 257 969 l 1068 969 z "},"т":{"ha":1050,"x_min":0,"x_max":0,"o":"m 508 0 l 508 968 l 968 968 l 968 1018 l 0 1018 l 0 968 l 458 968 l 458 0 z "},"х":{"ha":1085,"x_min":0,"x_max":0,"o":"m 979 0 l 550 506 l 985 1018 l 917 1018 l 517 544 l 117 1018 l 53 1018 l 485 507 l 56 0 l 122 0 l 518 468 l 915 0 z "},"ѓ":{"ha":1064,"x_min":0,"x_max":0,"o":"m 906 1018 l 253 1018 b 111 878 175 1018 111 954 l 111 0 l 161 0 l 161 878 b 253 968 161 928 203 968 l 906 968 z m 517 1075 l 607 1226 l 547 1226 l 457 1075 z "},"Џ":{"ha":1157,"x_min":0,"x_max":0,"o":"m 976 1018 l 976 78 b 968 57 976 69 974 63 b 947 49 963 53 956 49 l 913 49 l 863 49 l 189 49 b 168 57 181 49 174 53 b 160 78 163 63 160 69 l 160 1018 l 111 1018 l 111 78 b 133 22 111 57 118 38 b 189 0 149 7 168 0 l 549 0 l 549 -221 l 599 -221 l 599 0 l 863 0 l 913 0 l 947 0 b 1003 22 968 0 988 7 b 1025 78 1018 38 1025 57 l 1025 1018 l 976 1018 z "},"à":{"ha":1236,"x_min":0,"x_max":0,"o":"m 146 0 l 92 0 l 447 907 b 511 994 461 942 483 972 b 615 1028 542 1017 578 1028 b 719 994 654 1028 690 1017 b 785 907 749 972 771 942 l 1139 0 l 1086 0 l 965 308 l 376 308 l 376 358 l 946 358 l 738 889 b 615 979 717 944 671 979 b 493 889 561 979 515 944 z m 661 1075 l 571 1226 l 511 1226 l 601 1075 z "},"~":{"ha":1157,"x_min":0,"x_max":0,"o":""},"ã":{"ha":1236,"x_min":0,"x_max":0,"o":"m 493 889 b 615 979 515 944 561 979 b 738 889 671 979 717 944 l 946 358 l 376 358 l 376 308 l 965 308 l 1086 0 l 1139 0 l 785 907 b 719 994 771 942 749 972 b 615 1028 690 1017 654 1028 b 511 994 578 1028 542 1017 b 447 907 483 972 461 942 l 92 0 l 146 0 z m 694 1076 b 721 1078 704 1076 713 1076 b 842 1140 768 1083 810 1106 l 806 1174 b 714 1126 782 1149 750 1132 b 614 1149 679 1122 644 1131 b 481 1178 575 1174 528 1185 b 360 1115 435 1172 392 1150 l 397 1082 b 488 1129 421 1108 453 1125 b 588 1107 522 1133 558 1126 b 694 1076 619 1086 657 1076 z "},"b":{"ha":1218,"x_min":0,"x_max":0,"o":"m 956 513 b 1033 657 1003 543 1033 597 l 1033 844 b 860 1019 1033 940 956 1019 l 111 1019 l 111 1 l 136 1 l 136 0 l 874 0 b 1047 174 969 0 1047 78 l 1047 360 b 956 513 1047 425 1011 483 z m 246 483 l 874 483 b 999 360 943 483 999 428 l 999 174 b 874 50 999 106 943 50 l 161 50 l 161 969 l 860 969 b 985 844 929 969 985 914 l 985 657 b 860 533 985 589 929 533 l 246 533 z "},"\\":{"ha":971,"x_min":0,"x_max":0,"o":"m 800 0 l 203 1018 l 143 1018 l 740 0 z "},"|":{"ha":1157,"x_min":0,"x_max":0,"o":"m 176 -139 l 176 1115 l 126 1115 l 126 -139 z "},"{":{"ha":431,"x_min":0,"x_max":0,"o":"m 338 0 l 338 50 l 304 50 b 233 122 265 50 233 82 l 233 413 b 185 510 233 453 214 488 b 233 607 214 532 233 567 l 233 897 b 304 969 233 936 265 969 l 338 969 l 338 1019 l 304 1019 b 183 897 238 1019 183 964 l 183 607 b 111 535 183 567 150 535 l 111 485 b 183 413 150 485 183 453 l 183 122 b 304 0 183 56 238 0 l 338 0 z "},"}":{"ha":360,"x_min":0,"x_max":0,"o":"m 49 0 l 82 0 b 203 122 149 0 203 56 l 203 413 b 275 485 203 453 236 485 l 275 535 b 203 607 236 535 203 567 l 203 897 b 82 1019 203 964 149 1019 l 49 1019 l 49 969 l 82 969 b 153 897 121 969 153 936 l 153 607 b 201 510 153 567 172 532 b 153 413 172 488 153 453 l 153 122 b 82 50 153 82 121 50 l 49 50 z "},"[":{"ha":418,"x_min":0,"x_max":0,"o":"m 160 940 b 168 961 160 949 163 956 b 189 969 174 965 181 969 l 274 969 l 274 1018 l 189 1018 b 133 996 168 1018 149 1011 b 111 940 118 981 111 961 l 111 78 b 133 22 111 57 118 38 b 189 0 149 7 168 0 l 274 0 l 274 49 l 189 49 b 168 57 181 49 174 53 b 160 78 163 63 160 69 z "},"]":{"ha":411,"x_min":0,"x_max":0,"o":"m 225 78 b 217 57 225 69 222 63 b 196 49 211 53 204 49 l 111 49 l 111 0 l 196 0 b 251 22 217 0 236 7 b 274 78 267 38 274 57 l 274 940 b 251 996 274 961 267 981 b 196 1018 236 1011 217 1018 l 111 1018 l 111 969 l 196 969 b 217 961 204 969 211 965 b 225 940 222 956 225 949 z "},"˘":{"ha":1157,"x_min":0,"x_max":0,"o":"m 657 856 b 806 942 718 856 775 889 l 763 967 b 657 906 740 929 700 906 l 492 906 b 386 967 447 906 407 929 l 343 942 b 492 856 374 889 431 856 l 657 856 z "},"•":{"ha":379,"x_min":0,"x_max":0,"o":"m 111 547 b 186 472 111 506 144 472 b 261 547 228 472 261 506 b 186 622 261 589 228 622 b 111 547 144 622 111 589 z "},"c":{"ha":1204,"x_min":0,"x_max":0,"o":"m 1068 1019 l 375 1019 b 111 754 229 1019 111 900 l 111 264 b 375 0 111 118 229 0 l 1068 0 l 1068 50 l 375 50 b 160 264 257 50 160 146 l 160 754 b 375 969 160 872 257 969 l 1068 969 z "},"ˇ":{"ha":1172,"x_min":0,"x_max":0,"o":"m 578 782 l 765 928 l 735 968 l 578 846 l 425 967 l 394 928 l 578 782 z "},"ç":{"ha":1204,"x_min":0,"x_max":0,"o":"m 649 -268 b 719 -233 675 -265 701 -254 b 749 -160 739 -214 749 -187 b 719 -86 749 -132 739 -106 b 649 -51 701 -65 675 -53 l 564 -51 l 582 0 l 1068 0 l 1068 50 l 375 50 b 160 264 257 50 160 146 l 160 754 b 375 969 160 872 257 969 l 1068 969 l 1068 1019 l 375 1019 b 111 754 229 1019 111 900 l 111 264 b 375 0 111 118 229 0 l 529 0 l 494 -100 l 644 -100 b 699 -160 675 -103 699 -129 b 644 -218 699 -190 675 -215 l 456 -218 l 456 -268 l 649 -268 z "},"¸":{"ha":1157,"x_min":0,"x_max":0,"o":"m 713 -268 l 714 -268 b 785 -233 740 -265 767 -254 b 814 -160 804 -214 814 -187 b 785 -86 814 -132 804 -106 b 714 -51 767 -65 740 -53 l 713 -51 l 629 -51 l 653 17 l 606 33 l 560 -100 l 710 -100 b 764 -160 740 -103 764 -129 b 710 -218 764 -190 740 -215 l 521 -218 l 521 -268 l 713 -268 z "},"¢":{"ha":1204,"x_min":0,"x_max":0,"o":"m 626 -114 l 626 0 l 1068 0 l 1068 50 l 375 50 b 160 264 257 50 160 146 l 160 754 b 375 969 160 872 257 969 l 1068 969 l 1068 1019 l 626 1019 l 626 1115 l 576 1115 l 576 1019 l 375 1019 b 111 754 229 1019 111 900 l 111 264 b 375 0 111 118 229 0 l 576 0 l 576 -114 z "},"ˆ":{"ha":1157,"x_min":0,"x_max":0,"o":"m 571 1008 l 383 861 l 464 861 l 571 944 l 676 861 l 754 861 l 571 1008 z "},":":{"ha":215,"x_min":0,"x_max":0,"o":"m 138 4 l 138 122 l 88 122 l 88 4 z m 138 732 l 138 850 l 88 850 l 88 732 z "},",":{"ha":317,"x_min":0,"x_max":0,"o":"m 107 -92 l 160 -92 l 211 60 l 158 60 l 107 -92 z "},"d":{"ha":1340,"x_min":0,"x_max":0,"o":"m 160 0 l 160 968 l 921 968 b 1136 753 1039 968 1136 871 l 1136 264 b 921 50 1136 146 1039 50 l 246 50 l 246 0 l 921 0 b 1185 264 1067 0 1185 118 l 1185 753 b 921 1018 1185 899 1067 1018 l 111 1018 l 111 0 z "},"¨":{"ha":1157,"x_min":0,"x_max":0,"o":"m 465 840 l 465 958 l 415 958 l 415 840 z m 688 840 l 688 958 l 638 958 l 638 840 z "},"$":{"ha":1204,"x_min":0,"x_max":0,"o":"m 867 0 b 1007 53 922 0 972 18 b 1064 186 1043 86 1064 133 l 1064 349 b 1040 422 1064 354 1063 386 b 882 517 1019 456 975 499 l 881 517 b 356 593 878 517 621 551 b 183 669 253 608 206 643 b 161 721 163 696 161 718 l 161 821 b 200 928 160 875 181 908 b 290 968 224 953 258 968 l 1029 968 l 1029 1018 l 290 1018 b 164 961 246 1018 197 997 b 111 821 139 936 110 890 l 111 722 b 347 543 111 710 115 581 b 874 467 607 503 858 469 b 1014 350 1010 442 1014 357 l 1014 186 b 867 50 1014 106 953 50 l 119 50 l 119 0 z m 642 986 l 642 1171 l 592 1171 l 592 986 z m 642 -153 l 642 32 l 592 32 l 592 -153 z "},"ı":{"ha":342,"x_min":0,"x_max":0,"o":"m 176 0 l 176 1018 l 126 1018 l 126 0 z "},"e":{"ha":1147,"x_min":0,"x_max":0,"o":"m 246 483 l 982 483 l 982 533 l 246 533 z m 160 847 b 281 969 160 914 214 969 l 1035 969 l 1035 1018 l 281 1018 b 111 847 188 1018 111 942 l 111 171 b 281 0 111 76 188 0 l 1035 0 l 1035 50 l 281 50 b 160 171 214 50 160 104 z "},"é":{"ha":1147,"x_min":0,"x_max":0,"o":"m 246 483 l 982 483 l 982 533 l 246 533 z m 160 847 b 281 969 160 914 214 969 l 1035 969 l 1035 1018 l 281 1018 b 111 847 188 1018 111 942 l 111 171 b 281 0 111 76 188 0 l 1035 0 l 1035 50 l 281 50 b 160 171 214 50 160 104 z m 558 1075 l 649 1226 l 589 1226 l 499 1075 z "},"ê":{"ha":1147,"x_min":0,"x_max":0,"o":"m 246 483 l 982 483 l 982 533 l 246 533 z m 160 847 b 281 969 160 914 214 969 l 1035 969 l 1035 1018 l 281 1018 b 111 847 188 1018 111 942 l 111 171 b 281 0 111 76 188 0 l 1035 0 l 1035 50 l 281 50 b 160 171 214 50 160 104 z m 589 1221 l 401 1074 l 482 1074 l 589 1157 l 694 1074 l 772 1074 z "},"ë":{"ha":1147,"x_min":0,"x_max":0,"o":"m 246 483 l 982 483 l 982 533 l 246 533 z m 160 847 b 281 969 160 914 214 969 l 1035 969 l 1035 1018 l 281 1018 b 111 847 188 1018 111 942 l 111 171 b 281 0 111 76 188 0 l 1035 0 l 1035 50 l 281 50 b 160 171 214 50 160 104 z m 488 1076 l 488 1194 l 438 1194 l 438 1076 z m 710 1076 l 710 1194 l 660 1194 l 660 1076 z "},"è":{"ha":1147,"x_min":0,"x_max":0,"o":"m 246 483 l 982 483 l 982 533 l 246 533 z m 160 847 b 281 969 160 914 214 969 l 1035 969 l 1035 1018 l 281 1018 b 111 847 188 1018 111 942 l 111 171 b 281 0 111 76 188 0 l 1035 0 l 1035 50 l 281 50 b 160 171 214 50 160 104 z m 649 1075 l 558 1226 l 499 1226 l 589 1075 z "},"…":{"ha":664,"x_min":0,"x_max":0,"o":"m 138 0 l 138 118 l 88 118 l 88 0 z m 353 0 l 353 118 l 303 118 l 303 0 z m 568 0 l 568 118 l 518 118 l 518 0 z "},"—":{"ha":1544,"x_min":0,"x_max":0,"o":"m 111 481 l 1457 481 l 1457 531 l 111 531 z "},"–":{"ha":1228,"x_min":0,"x_max":0,"o":"m 111 481 l 1113 481 l 1113 531 l 111 531 z "},"=":{"ha":682,"x_min":0,"x_max":0,"o":"m 114 222 l 576 222 l 576 272 l 114 272 z m 114 444 l 576 444 l 576 494 l 114 494 z "},"!":{"ha":347,"x_min":0,"x_max":0,"o":"m 161 278 l 161 1021 l 111 1021 l 111 278 z m 161 0 l 161 146 l 111 146 l 111 0 z "},"f":{"ha":1058,"x_min":0,"x_max":0,"o":"m 282 969 l 967 969 l 967 1018 l 282 1018 b 113 847 189 1018 113 942 l 113 0 l 161 0 l 161 500 l 914 500 l 914 550 l 161 550 l 161 847 b 282 969 161 914 215 969 z "},"g":{"ha":1286,"x_min":0,"x_max":0,"o":"m 1161 0 l 1161 532 l 688 532 l 688 482 l 1113 482 l 1113 50 l 374 50 b 160 264 256 50 160 146 l 160 751 b 374 968 160 871 256 968 l 1156 968 l 1156 1018 l 374 1018 b 188 939 304 1018 238 990 b 111 751 138 888 111 821 l 111 264 b 374 0 111 118 229 0 l 1161 0 z "},"ğ":{"ha":1286,"x_min":0,"x_max":0,"o":"m 1161 0 l 1161 532 l 688 532 l 688 482 l 1113 482 l 1113 50 l 374 50 b 160 264 256 50 160 146 l 160 751 b 374 968 160 871 256 968 l 1156 968 l 1156 1018 l 374 1018 b 188 939 304 1018 238 990 b 111 751 138 888 111 821 l 111 264 b 374 0 111 118 229 0 z m 724 1125 b 872 1211 785 1125 842 1158 l 829 1236 b 724 1175 807 1199 767 1175 l 558 1175 b 453 1236 514 1175 474 1199 l 410 1211 b 558 1125 440 1158 497 1125 z "},"`":{"ha":1157,"x_min":0,"x_max":0,"o":"m 626 839 l 536 990 l 476 990 l 567 839 z "},">":{"ha":751,"x_min":0,"x_max":0,"o":"m 136 78 l 617 404 l 618 406 l 619 407 b 647 463 632 419 647 438 b 619 518 647 486 632 506 l 618 518 l 136 846 l 108 804 l 586 479 b 597 463 594 472 597 465 b 586 444 597 458 594 451 l 108 118 l 136 78 z "},"h":{"ha":1301,"x_min":0,"x_max":0,"o":"m 1133 0 l 1133 1018 l 1083 1018 l 1083 533 l 246 533 l 246 483 l 1083 483 l 1083 0 z m 161 0 l 161 1018 l 111 1018 l 111 0 z "},"-":{"ha":571,"x_min":0,"x_max":0,"o":"m 111 481 l 443 481 l 443 531 l 111 531 z "},"i":{"ha":342,"x_min":0,"x_max":0,"o":"m 176 0 l 176 1018 l 126 1018 l 126 0 z "},"í":{"ha":342,"x_min":0,"x_max":0,"o":"m 176 0 l 176 1018 l 126 1018 l 126 0 z m 140 1075 l 231 1226 l 171 1226 l 81 1075 z "},"î":{"ha":342,"x_min":0,"x_max":0,"o":"m 176 0 l 176 1018 l 126 1018 l 126 0 z m 157 1221 l -31 1074 l 50 1074 l 157 1157 l 263 1074 l 340 1074 z "},"ì":{"ha":342,"x_min":0,"x_max":0,"o":"m 126 0 l 126 1018 l 176 1018 l 176 0 z m 228 1089 l 138 1240 l 78 1240 l 168 1089 z "},"j":{"ha":835,"x_min":0,"x_max":0,"o":"m 622 1018 l 622 264 b 407 50 622 146 525 50 l 83 50 l 83 0 l 407 0 b 671 264 553 0 671 118 l 671 1018 z "},"k":{"ha":1288,"x_min":0,"x_max":0,"o":"m 160 1018 l 111 1018 l 111 0 l 160 0 z m 246 483 l 717 483 b 850 383 776 483 803 453 l 1117 0 l 1176 0 l 890 411 b 818 499 864 451 843 479 b 806 508 814 503 810 506 b 818 518 810 511 814 515 b 890 607 843 539 864 567 l 1178 1018 l 1117 1018 l 850 635 b 717 533 803 564 776 533 l 246 533 z "},"l":{"ha":1019,"x_min":0,"x_max":0,"o":"m 906 0 l 906 50 l 253 50 b 161 140 203 50 161 90 l 161 1018 l 111 1018 l 111 140 b 253 0 111 64 175 0 l 906 0 z "},"<":{"ha":876,"x_min":0,"x_max":0,"o":"m 619 78 l 647 118 l 169 444 b 158 463 161 451 158 458 b 169 479 158 465 161 472 l 647 804 l 619 846 l 138 518 l 136 518 b 108 463 124 506 108 486 b 136 407 108 438 124 419 l 138 406 l 139 404 z "},"m":{"ha":1563,"x_min":0,"x_max":0,"o":"m 1372 0 l 1372 1018 l 1317 1018 l 742 217 l 167 1018 l 111 1018 l 111 0 l 161 0 l 161 940 l 721 160 l 761 160 l 1322 940 l 1322 0 l 1372 0 z "},"¯":{"ha":1157,"x_min":0,"x_max":0,"o":"m 378 868 l 828 868 l 828 918 l 378 918 z "},"n":{"ha":1374,"x_min":0,"x_max":0,"o":"m 1136 0 l 1193 0 l 1193 1018 l 1143 1018 l 1143 64 l 228 1018 l 168 1018 l 168 1 l 218 1 l 218 956 l 1136 0 z "},"ñ":{"ha":1347,"x_min":0,"x_max":0,"o":"m 1136 0 l 1193 0 l 1193 1018 l 1143 1018 l 1143 64 l 228 1018 l 168 1018 l 168 1 l 218 1 l 218 956 z m 764 1065 b 790 1067 774 1065 782 1065 b 911 1129 838 1072 879 1094 l 875 1163 b 783 1115 851 1138 819 1121 b 683 1138 749 1111 714 1119 b 550 1167 644 1163 597 1174 b 429 1104 504 1161 461 1139 l 467 1071 b 557 1118 490 1097 522 1114 b 657 1096 592 1122 628 1115 b 764 1065 689 1075 726 1065 z "},"o":{"ha":1468,"x_min":0,"x_max":0,"o":"m 1032 0 b 1296 264 1178 0 1296 118 l 1296 754 b 1032 1019 1296 900 1178 1019 l 375 1019 b 111 754 229 1019 111 900 l 111 264 b 375 0 111 118 229 0 z m 1032 969 b 1247 754 1150 969 1247 872 l 1247 264 b 1032 50 1247 146 1150 50 l 375 50 b 160 264 257 50 160 146 l 160 754 b 375 969 160 872 257 969 z "},"ó":{"ha":1374,"x_min":0,"x_max":0,"o":"m 1032 0 b 1296 264 1178 0 1296 118 l 1296 754 b 1032 1019 1296 900 1178 1019 l 375 1019 b 111 754 229 1019 111 900 l 111 264 b 375 0 111 118 229 0 z m 1032 969 b 1247 754 1150 969 1247 872 l 1247 264 b 1032 50 1247 146 1150 50 l 375 50 b 160 264 257 50 160 146 l 160 754 b 375 969 160 872 257 969 z m 671 1075 l 761 1226 l 701 1226 l 611 1075 z "},"ô":{"ha":1374,"x_min":0,"x_max":0,"o":"m 1032 0 b 1296 264 1178 0 1296 118 l 1296 754 b 1032 1019 1296 900 1178 1019 l 375 1019 b 111 754 229 1019 111 900 l 111 264 b 375 0 111 118 229 0 z m 1032 969 b 1247 754 1150 969 1247 872 l 1247 264 b 1032 50 1247 146 1150 50 l 375 50 b 160 264 257 50 160 146 l 160 754 b 375 969 160 872 257 969 z m 685 1224 l 497 1076 l 578 1076 l 685 1160 l 790 1076 l 868 1076 z "},"ö":{"ha":1374,"x_min":0,"x_max":0,"o":"m 1032 0 b 1296 264 1178 0 1296 118 l 1296 754 b 1032 1019 1296 900 1178 1019 l 375 1019 b 111 754 229 1019 111 900 l 111 264 b 375 0 111 118 229 0 z m 1032 969 b 1247 754 1150 969 1247 872 l 1247 264 b 1032 50 1247 146 1150 50 l 375 50 b 160 264 257 50 160 146 l 160 754 b 375 969 160 872 257 969 z m 588 1076 l 588 1194 l 538 1194 l 538 1076 z m 810 1076 l 810 1194 l 760 1194 l 760 1076 z "},"œ":{"ha":2206,"x_min":0,"x_max":0,"o":"m 1200 847 b 1321 969 1200 914 1254 969 l 2047 969 l 2047 1018 l 1321 1018 b 1158 897 1244 1018 1179 968 b 936 1019 1111 971 1029 1019 l 376 1019 b 113 754 231 1019 113 900 l 113 264 b 376 0 113 118 231 0 l 936 0 b 1158 122 1029 0 1111 49 b 1321 0 1179 51 1244 0 l 2047 0 l 2047 50 l 1321 50 b 1200 171 1254 50 1200 104 l 1200 264 l 1200 483 l 1994 483 l 1994 533 l 1200 533 l 1200 754 l 1200 847 z m 936 50 l 376 50 b 161 264 258 50 161 146 l 161 754 b 376 969 161 872 258 969 l 936 969 b 1151 754 1054 969 1151 872 l 1151 264 b 936 50 1151 146 1054 50 z "},"ò":{"ha":1374,"x_min":0,"x_max":0,"o":"m 1032 0 l 375 0 b 111 264 229 0 111 118 l 111 754 b 375 1019 111 900 229 1019 l 1032 1019 b 1296 754 1178 1019 1296 900 l 1296 264 b 1032 0 1296 118 1178 0 z m 375 969 b 160 754 257 969 160 872 l 160 264 b 375 50 160 146 257 50 l 1032 50 b 1247 264 1150 50 1247 146 l 1247 754 b 1032 969 1247 872 1150 969 z m 756 1075 l 665 1226 l 606 1226 l 696 1075 z "},"ø":{"ha":1374,"x_min":0,"x_max":0,"o":"m 1032 0 b 1296 264 1178 0 1296 118 l 1296 754 b 1032 1019 1296 900 1178 1019 l 375 1019 b 111 754 229 1019 111 900 l 111 264 b 375 0 111 118 229 0 z m 1032 969 b 1247 754 1150 969 1247 872 l 1247 264 b 1032 50 1247 146 1150 50 l 375 50 b 160 264 257 50 160 146 l 160 754 b 375 969 160 872 257 969 z m 418 0 l 1015 1018 l 956 1018 l 358 0 z "},"õ":{"ha":1374,"x_min":0,"x_max":0,"o":"m 1032 0 b 1296 264 1178 0 1296 118 l 1296 754 b 1032 1019 1296 900 1178 1019 l 375 1019 b 111 754 229 1019 111 900 l 111 264 b 375 0 111 118 229 0 z m 1032 969 b 1247 754 1150 969 1247 872 l 1247 264 b 1032 50 1247 146 1150 50 l 375 50 b 160 264 257 50 160 146 l 160 754 b 375 969 160 872 257 969 z m 775 1076 b 801 1078 785 1076 793 1076 b 922 1140 849 1083 890 1106 l 886 1174 b 794 1126 863 1149 831 1132 b 694 1149 760 1122 725 1131 b 561 1178 656 1174 608 1185 b 440 1115 515 1172 472 1150 l 478 1082 b 568 1129 501 1108 533 1125 b 668 1107 603 1133 639 1126 b 775 1076 700 1086 738 1076 z "},"p":{"ha":1208,"x_min":0,"x_max":0,"o":"m 161 969 l 874 969 b 999 844 943 969 999 914 l 999 565 b 874 442 999 497 943 442 l 246 442 l 246 392 l 874 392 b 1047 565 969 392 1047 469 l 1047 844 b 874 1019 1047 940 969 1019 l 111 1019 l 111 1 l 161 1 z "},"(":{"ha":333,"x_min":0,"x_max":0,"o":"m 190 -60 l 235 -37 b 232 1056 68 310 67 708 l 188 1078 b 92 799 144 989 113 894 b 60 508 71 703 60 606 b 93 219 60 411 71 314 b 190 -60 115 124 147 29 z "},")":{"ha":313,"x_min":0,"x_max":0,"o":"m 104 -60 b 201 219 147 29 179 124 b 235 508 224 314 235 411 b 203 799 235 606 224 703 b 107 1078 182 894 150 989 l 63 1056 b 60 -37 228 708 226 310 z "},".":{"ha":215,"x_min":0,"x_max":0,"o":"m 138 0 l 138 118 l 88 118 l 88 0 z "},"+":{"ha":874,"x_min":0,"x_max":0,"o":"m 442 172 l 442 469 l 721 469 l 721 519 l 442 519 l 442 788 l 392 788 l 392 519 l 111 519 l 111 469 l 392 469 l 392 172 z "},"q":{"ha":1401,"x_min":0,"x_max":0,"o":"m 990 0 b 1169 71 1060 0 1122 26 l 1243 0 l 1310 0 l 1200 104 b 1254 264 1233 149 1254 204 l 1254 754 b 990 1019 1254 900 1136 1019 l 375 1019 b 111 754 229 1019 111 900 l 111 264 b 375 0 111 118 229 0 z m 990 969 b 1206 754 1108 969 1206 872 l 1206 264 b 1165 139 1206 217 1190 174 l 1004 296 l 938 296 l 1133 106 b 990 50 1096 71 1044 50 l 375 50 b 160 264 257 50 160 146 l 160 754 b 375 969 160 872 257 969 z "},"?":{"ha":1069,"x_min":0,"x_max":0,"o":"m 386 183 l 386 321 b 517 461 386 388 429 433 l 813 549 b 919 607 863 564 896 582 b 960 724 947 636 960 674 l 960 843 b 786 1018 960 939 882 1018 l 63 1018 l 63 968 l 786 968 b 911 843 856 968 911 913 l 911 724 b 799 596 911 653 882 621 l 503 508 b 382 439 450 492 410 468 b 336 321 351 407 336 367 l 336 183 z m 386 0 l 386 118 l 336 118 l 336 0 z "},"¿":{"ha":1069,"x_min":0,"x_max":0,"o":"m 386 835 l 336 835 l 336 697 b 382 579 336 651 351 611 b 503 510 410 550 450 526 l 799 422 b 911 294 882 397 911 365 l 911 175 b 786 50 911 106 856 50 l 63 50 l 63 0 l 786 0 b 960 175 882 0 960 79 l 960 294 b 919 411 960 344 947 382 b 813 469 896 436 863 454 l 517 557 b 386 697 429 585 386 631 l 386 835 z m 336 1018 l 336 900 l 386 900 l 386 1018 z "},"\"":{"ha":233,"x_min":0,"x_max":0,"o":"m 106 931 l 106 1076 l 56 1076 l 56 931 z m 192 931 l 192 1076 l 142 1076 l 142 931 z "},"‘":{"ha":268,"x_min":0,"x_max":0,"o":"m 183 928 l 132 1079 l 79 1079 l 131 928 l 183 928 z "},"’":{"ha":264,"x_min":0,"x_max":0,"o":"m 79 928 l 132 928 l 183 1079 l 131 1079 l 79 928 z "},"'":{"ha":106,"x_min":0,"x_max":0,"o":"m 79 931 l 79 1076 l 29 1076 l 29 931 z "},"r":{"ha":1281,"x_min":0,"x_max":0,"o":"m 161 969 l 888 969 b 1013 844 957 969 1013 914 l 1013 565 b 888 442 1013 497 957 442 l 246 442 l 246 392 l 746 392 l 1042 0 l 1104 0 l 808 392 l 888 392 b 1061 565 983 392 1061 469 l 1061 844 b 888 1019 1061 940 983 1019 l 111 1019 l 111 1 l 161 1 z "},"s":{"ha":1157,"x_min":0,"x_max":0,"o":"m 860 0 b 1000 53 915 0 965 18 b 1057 186 1036 86 1057 133 l 1057 306 b 1033 379 1057 311 1056 343 b 875 474 1013 413 968 456 l 349 593 b 154 722 285 607 154 638 l 154 822 b 193 929 153 876 174 910 b 283 969 217 954 251 969 l 1014 969 l 1014 1019 l 283 1019 b 157 963 239 1019 190 999 b 104 822 132 938 103 892 l 104 722 b 133 640 104 692 114 664 b 199 590 149 621 171 604 b 338 544 247 565 304 551 l 865 425 l 865 424 b 1007 307 1003 399 1007 313 l 1007 186 b 860 50 1007 106 946 50 l 113 50 l 113 0 l 860 0 z "},"š":{"ha":1157,"x_min":0,"x_max":0,"o":"m 860 0 b 1000 53 915 0 965 18 b 1057 186 1036 86 1057 133 l 1057 306 b 1033 379 1057 311 1056 343 b 875 474 1013 413 968 456 l 349 593 b 154 722 285 607 154 638 l 154 822 b 193 929 153 876 174 910 b 283 969 217 954 251 969 l 1014 969 l 1014 1019 l 283 1019 b 157 963 239 1019 190 999 b 104 822 132 938 103 892 l 104 722 b 133 640 104 692 114 664 b 199 590 149 621 171 604 b 338 544 247 565 304 551 l 865 425 l 865 424 b 1007 307 1003 399 1007 313 l 1007 186 b 860 50 1007 106 946 50 l 113 50 l 113 0 z m 576 1068 l 764 1214 l 733 1254 l 576 1132 l 424 1253 l 393 1214 z "},"ş":{"ha":1157,"x_min":0,"x_max":0,"o":"m 625 -268 b 696 -233 651 -265 678 -254 b 725 -160 715 -214 725 -187 b 696 -86 725 -132 715 -106 b 625 -51 678 -65 651 -53 l 540 -51 l 558 0 l 860 0 b 1000 53 915 0 965 18 b 1057 186 1036 86 1057 133 l 1057 306 b 1033 379 1057 311 1056 343 b 875 474 1013 413 968 456 l 349 593 b 154 722 285 607 154 638 l 154 822 b 193 929 153 876 174 910 b 283 969 217 954 251 969 l 1014 969 l 1014 1019 l 283 1019 b 157 963 239 1019 190 999 b 104 822 132 938 103 892 l 104 722 b 133 640 104 692 114 664 b 199 590 149 621 171 604 b 338 544 247 565 304 551 l 865 425 l 865 424 b 1007 307 1003 399 1007 313 l 1007 186 b 860 50 1007 106 946 50 l 113 50 l 113 0 l 504 0 l 471 -100 l 621 -100 b 675 -160 651 -103 675 -129 b 621 -218 675 -190 651 -215 l 432 -218 l 432 -268 l 625 -268 z "},";":{"ha":1157,"x_min":0,"x_max":0,"o":"m 160 -92 l 211 60 l 158 60 l 107 -92 z m 203 735 l 203 853 l 153 853 l 153 735 z "},"/":{"ha":954,"x_min":0,"x_max":0,"o":"m 203 0 l 800 1018 l 740 1018 l 143 0 z "}," ":{"ha":711,"x_min":0,"x_max":0,"o":""},"£":{"ha":1040,"x_min":0,"x_max":0,"o":"m 938 50 l 238 50 b 288 171 268 81 288 124 l 288 483 l 886 483 l 886 533 l 288 533 l 288 847 b 408 969 288 914 342 969 l 744 969 b 865 847 811 969 865 914 l 915 847 b 744 1018 915 942 839 1018 l 408 1018 b 239 847 315 1018 239 942 l 239 533 l 115 533 l 115 483 l 239 483 l 239 171 b 117 50 239 104 183 50 l 117 0 l 938 0 z "},"t":{"ha":1050,"x_min":0,"x_max":0,"o":"m 508 0 l 508 968 l 968 968 l 968 1018 l 0 1018 l 0 968 l 458 968 l 458 0 z "},"˜":{"ha":1157,"x_min":0,"x_max":0,"o":"m 690 813 b 717 814 700 813 708 813 b 838 876 764 819 806 842 l 801 910 b 710 863 778 885 746 868 b 610 885 675 858 640 867 b 476 914 571 910 524 921 b 356 851 431 908 388 886 l 393 818 b 483 865 417 844 449 861 b 583 843 518 869 554 863 b 690 813 615 822 653 813 z "},"u":{"ha":1315,"x_min":0,"x_max":0,"o":"m 111 1018 l 111 264 b 375 0 111 118 229 0 l 893 0 b 1157 264 1039 0 1157 118 l 1157 1018 l 1108 1018 l 1108 264 b 893 50 1108 146 1011 50 l 375 50 b 160 264 257 50 160 146 l 160 1018 z "},"ú":{"ha":1315,"x_min":0,"x_max":0,"o":"m 111 1018 l 111 264 b 375 0 111 118 229 0 l 893 0 b 1157 264 1039 0 1157 118 l 1157 1018 l 1108 1018 l 1108 264 b 893 50 1108 146 1011 50 l 375 50 b 160 264 257 50 160 146 l 160 1018 z m 640 1075 l 731 1226 l 671 1226 l 581 1075 z "},"û":{"ha":1315,"x_min":0,"x_max":0,"o":"m 111 1018 l 111 264 b 375 0 111 118 229 0 l 893 0 b 1157 264 1039 0 1157 118 l 1157 1018 l 1108 1018 l 1108 264 b 893 50 1108 146 1011 50 l 375 50 b 160 264 257 50 160 146 l 160 1018 z m 654 1221 l 467 1074 l 547 1074 l 654 1157 l 760 1074 l 838 1074 z "},"ü":{"ha":1315,"x_min":0,"x_max":0,"o":"m 111 1018 l 111 264 b 375 0 111 118 229 0 l 893 0 b 1157 264 1039 0 1157 118 l 1157 1018 l 1108 1018 l 1108 264 b 893 50 1108 146 1011 50 l 375 50 b 160 264 257 50 160 146 l 160 1018 z m 557 1021 l 557 1139 l 507 1139 l 507 1021 z m 779 1021 l 779 1139 l 729 1139 l 729 1021 z "},"ù":{"ha":1315,"x_min":0,"x_max":0,"o":"m 160 1018 l 160 264 b 375 50 160 146 257 50 l 893 50 b 1108 264 1011 50 1108 146 l 1108 1018 l 1157 1018 l 1157 264 b 893 0 1157 118 1039 0 l 375 0 b 111 264 229 0 111 118 l 111 1018 z m 703 1076 l 613 1228 l 553 1228 l 643 1076 z "},"_":{"ha":797,"x_min":0,"x_max":0,"o":"m 44 -50 l 771 -50 l 771 0 l 44 0 z "},"І":{"ha":1157,"x_min":0,"x_max":0,"o":""},"v":{"ha":1235,"x_min":0,"x_max":0,"o":"m 606 0 b 710 35 644 0 681 11 b 774 122 738 56 760 86 l 1128 1018 l 1074 1018 l 728 140 l 728 139 b 606 50 706 83 660 50 b 483 139 550 50 504 83 l 139 1018 l 85 1018 l 438 122 b 501 35 450 86 472 56 b 606 0 531 11 567 0 z "},"x":{"ha":1085,"x_min":0,"x_max":0,"o":"m 979 0 l 550 506 l 985 1018 l 917 1018 l 517 544 l 117 1018 l 53 1018 l 485 507 l 56 0 l 122 0 l 518 468 l 915 0 z "},"y":{"ha":1153,"x_min":0,"x_max":0,"o":"m 542 386 b 643 421 582 386 615 397 b 715 508 668 442 689 468 l 1071 1018 l 1010 1018 l 675 536 b 542 436 628 467 601 436 b 410 538 483 436 458 467 l 74 1018 l 14 1018 l 368 508 b 542 386 417 440 456 386 z m 567 0 l 567 357 l 517 357 l 517 0 z "},"ÿ":{"ha":1232,"x_min":0,"x_max":0,"o":"m 542 386 b 643 421 582 386 615 397 b 715 508 668 442 689 468 l 1071 1018 l 1010 1018 l 675 536 b 542 436 628 467 601 436 b 410 538 483 436 458 467 l 74 1018 l 14 1018 l 368 508 b 542 386 417 440 456 386 z m 567 0 l 567 357 l 517 357 l 517 0 z m 454 1076 l 454 1194 l 404 1194 l 404 1076 z m 676 1076 l 676 1194 l 626 1194 l 626 1076 z "},"¥":{"ha":1232,"x_min":0,"x_max":0,"o":"m 567 147 l 778 147 l 778 197 l 567 197 l 567 272 l 778 272 l 778 322 l 567 322 l 567 388 b 643 421 596 390 621 401 b 715 508 668 442 689 468 l 1071 1018 l 1010 1018 l 675 536 b 542 436 628 467 601 436 b 410 538 483 436 458 467 l 74 1018 l 14 1018 l 368 508 b 517 388 411 447 447 397 l 517 322 l 315 322 l 315 272 l 517 272 l 517 197 l 315 197 l 315 147 l 517 147 l 517 0 l 567 0 z "},"z":{"ha":1157,"x_min":0,"x_max":0,"o":"m 997 0 l 997 50 l 214 50 b 161 94 161 50 161 93 b 183 146 161 114 169 133 l 963 836 b 1001 924 986 858 1001 890 b 978 985 1001 946 992 968 b 897 1019 964 1000 940 1019 l 136 1019 l 136 969 l 897 969 b 951 924 950 969 951 926 b 929 874 951 906 943 886 l 150 183 l 150 182 b 111 94 125 160 111 128 b 135 33 111 74 119 50 b 214 0 147 18 172 0 l 997 0 z "},"ž":{"ha":1157,"x_min":0,"x_max":0,"o":"m 997 0 l 997 50 l 214 50 b 161 94 161 50 161 93 b 183 146 161 114 169 133 l 963 836 b 1001 924 986 858 1001 890 b 978 985 1001 946 992 968 b 897 1019 964 1000 940 1019 l 136 1019 l 136 969 l 897 969 b 951 924 950 969 951 926 b 929 874 951 906 943 886 l 150 183 l 150 182 b 111 94 125 160 111 128 b 135 33 111 74 119 50 b 214 0 147 18 172 0 z m 563 1074 l 750 1219 l 719 1260 l 563 1138 l 410 1258 l 379 1219 z "},"·":{"ha":215,"x_min":0,"x_max":0,"o":"m 138 417 l 138 535 l 88 535 l 88 417 z "},"‚":{"ha":317,"x_min":0,"x_max":0,"o":"m 107 -92 l 160 -92 l 211 60 l 158 60 l 107 -92 z "},"„":{"ha":386,"x_min":0,"x_max":0,"o":"m 107 -92 l 160 -92 l 211 60 l 158 60 z m 204 -92 l 257 -92 l 308 60 l 256 60 z "},"˚":{"ha":1124,"x_min":0,"x_max":0,"o":"m 547 1079 b 651 1185 604 1079 651 1126 b 547 1290 651 1243 604 1290 b 442 1185 489 1290 442 1243 b 547 1079 442 1126 489 1079 z m 547 1246 b 608 1185 581 1246 608 1218 b 547 1124 608 1150 581 1124 b 485 1185 513 1124 485 1150 b 547 1246 485 1218 513 1246 z "},"å":{"ha":1236,"x_min":0,"x_max":0,"o":"m 493 889 b 615 979 515 944 561 979 b 738 889 671 979 717 944 l 946 358 l 376 358 l 376 308 l 965 308 l 1086 0 l 1139 0 l 785 907 b 719 994 771 942 749 972 b 615 1028 690 1017 654 1028 b 511 994 578 1028 542 1017 b 447 907 483 972 461 942 l 92 0 l 146 0 z m 588 1079 b 692 1185 644 1079 692 1126 b 588 1290 692 1243 644 1290 b 482 1185 529 1290 482 1243 b 588 1079 482 1126 529 1079 z m 588 1246 b 649 1185 621 1246 649 1218 b 588 1124 649 1150 621 1124 b 525 1185 553 1124 525 1150 b 588 1246 525 1218 553 1246 z "},"Ý":{"ha":1232,"x_min":0,"x_max":0,"o":"m 567 388 b 643 421 596 390 621 401 b 715 508 668 442 689 468 l 1071 1018 l 1010 1018 l 675 536 b 542 436 628 467 601 436 b 410 538 483 436 458 467 l 74 1018 l 14 1018 l 368 508 b 517 388 411 447 447 397 l 517 0 l 567 0 z m 531 1069 l 621 1221 l 561 1221 l 471 1069 z "},"ï":{"ha":342,"x_min":0,"x_max":0,"o":"m 176 0 l 176 1018 l 126 1018 l 126 0 z m 68 1076 l 68 1194 l 18 1194 l 18 1076 z m 290 1076 l 290 1194 l 240 1194 l 240 1076 z "},"þ":{"ha":911,"x_min":0,"x_max":0,"o":"m 519 958 l 161 958 l 161 1125 l 111 1125 l 111 -129 l 161 -129 l 161 79 l 519 79 b 783 343 665 79 783 197 l 783 693 b 519 958 783 839 665 958 z m 735 343 b 519 129 735 225 638 129 l 161 129 l 161 908 l 519 908 b 735 693 638 908 735 811 l 735 343 z "},"Þ":{"ha":908,"x_min":0,"x_max":0,"o":"m 519 958 l 161 958 l 161 1125 l 111 1125 l 111 -129 l 161 -129 l 161 79 l 519 79 b 783 343 665 79 783 197 l 783 693 b 519 958 783 839 665 958 z m 735 343 b 519 129 735 225 638 129 l 161 129 l 161 908 l 519 908 b 735 693 638 908 735 811 z "},"€":{"ha":1179,"x_min":0,"x_max":0,"o":"m 460 968 l 1075 968 l 1075 1018 l 460 1018 b 306 972 404 1018 351 1003 b 197 854 264 944 228 906 b 128 657 165 799 142 732 l -56 657 l -56 608 l 119 608 b 114 510 117 576 114 543 b 119 410 114 475 117 443 l -56 410 l -56 361 l 128 361 b 197 164 142 288 165 219 b 306 46 228 113 264 74 b 460 0 351 15 404 0 l 1075 0 l 1075 50 l 460 50 b 240 189 346 50 278 125 b 178 361 213 238 190 296 l 931 361 l 931 410 l 169 410 b 164 510 165 442 164 475 b 169 608 164 543 165 576 l 1028 608 l 1028 657 l 178 657 b 240 829 190 722 213 781 b 460 968 278 893 346 968 z "},"@":{"ha":1388,"x_min":0,"x_max":0,"o":"m 1204 -171 l 1204 -121 l 310 -121 b 210 -64 276 -121 240 -100 b 163 51 181 -29 163 15 l 163 749 l 163 750 b 211 879 161 797 179 846 b 310 922 231 899 263 922 l 1032 922 b 1131 879 1079 922 1111 899 b 1179 750 1163 846 1181 797 l 1179 749 l 1179 235 l 981 235 l 981 463 b 932 579 981 501 963 544 b 819 638 899 617 858 638 l 515 638 b 408 593 481 638 440 621 b 356 490 375 563 356 525 l 356 340 b 407 233 356 304 375 265 b 515 185 439 203 479 185 l 1229 185 l 1229 749 b 1165 914 1231 811 1208 871 b 1032 971 1131 951 1082 971 l 310 971 b 176 914 260 971 213 951 b 113 749 135 871 111 811 l 113 51 b 310 -171 113 -46 206 -171 z m 515 588 l 819 588 b 931 463 871 588 931 519 l 931 235 l 515 235 b 442 269 492 235 464 247 b 406 340 419 292 406 318 l 406 490 b 442 556 406 511 419 536 b 515 588 464 575 492 588 z "},"&":{"ha":1360,"x_min":0,"x_max":0,"o":"m 1282 554 l 310 554 l 285 554 b 161 678 217 554 161 610 l 161 844 b 285 969 161 914 217 969 l 1065 969 l 1065 1019 l 285 1019 b 111 844 189 1019 111 940 l 111 678 b 208 522 111 610 150 550 b 167 486 193 513 179 500 b 111 339 131 444 111 392 l 111 217 b 167 68 111 161 131 108 b 319 0 206 25 260 0 l 947 0 b 1100 69 1007 0 1061 25 b 1156 219 1136 110 1156 164 l 1156 504 l 1282 504 l 1282 554 z m 1107 219 b 947 50 1107 136 1047 50 l 319 50 b 161 217 217 50 161 136 l 161 339 b 310 504 161 417 222 504 l 1107 504 l 1107 219 z "},"*":{"ha":676,"x_min":0,"x_max":0,"o":"m 335 925 l 335 1074 l 285 1074 l 285 925 z m 206 715 l 299 832 l 260 863 l 167 746 z m 257 875 l 274 922 l 133 972 l 117 926 z m 414 715 l 453 746 l 360 863 l 321 832 z m 363 875 l 503 926 l 486 972 l 346 922 z "},"°":{"ha":443,"x_min":0,"x_max":0,"o":"m 210 825 b 349 963 286 825 349 886 b 210 1101 349 1039 286 1101 b 72 963 135 1101 72 1039 b 210 825 72 886 135 825 z m 210 1051 b 299 963 260 1051 299 1011 b 210 874 299 914 260 874 b 122 963 161 874 122 914 b 210 1051 122 1011 161 1051 z "},"ý":{"ha":1153,"x_min":0,"x_max":0,"o":"m 542 386 b 643 421 582 386 615 397 b 715 508 668 442 689 468 l 1071 1018 l 1010 1018 l 675 536 b 542 436 628 467 601 436 b 410 538 483 436 458 467 l 74 1018 l 14 1018 l 368 508 b 542 386 417 440 456 386 z m 567 0 l 567 357 l 517 357 l 517 0 z m 531 1043 l 621 1194 l 561 1194 l 471 1043 z "},"ē":{"ha":1147,"x_min":0,"x_max":0,"o":"m 246 483 l 982 483 l 982 533 l 246 533 z m 160 847 b 281 969 160 914 214 969 l 1035 969 l 1035 1018 l 281 1018 b 111 847 188 1018 111 942 l 111 171 b 281 0 111 76 188 0 l 1035 0 l 1035 50 l 281 50 b 160 171 214 50 160 104 z m 354 1121 l 804 1121 l 804 1171 l 354 1171 z "},"č":{"ha":1204,"x_min":0,"x_max":0,"o":"m 1068 1019 l 375 1019 b 111 754 229 1019 111 900 l 111 264 b 375 0 111 118 229 0 l 1068 0 l 1068 50 l 375 50 b 160 264 257 50 160 146 l 160 754 b 375 969 160 872 257 969 l 1068 969 z m 628 1063 l 815 1208 l 785 1249 l 628 1126 l 475 1247 l 444 1208 z "},"ę":{"ha":1147,"x_min":0,"x_max":0,"o":"m 244 483 l 981 483 l 981 533 l 244 533 l 244 483 z m 1033 50 l 279 50 b 158 171 213 50 158 104 l 158 847 b 279 969 158 914 213 969 l 1033 969 l 1033 1018 l 279 1018 b 110 847 186 1018 110 942 l 110 171 b 279 0 110 76 186 0 l 975 0 l 911 -112 b 906 -215 890 -149 889 -186 b 1007 -268 925 -247 964 -268 l 1082 -268 l 1082 -218 l 1007 -218 b 949 -190 982 -218 958 -207 b 956 -137 940 -176 943 -158 l 1033 0 z "},"ć":{"ha":1204,"x_min":0,"x_max":0,"o":"m 1068 1019 l 375 1019 b 111 754 229 1019 111 900 l 111 264 b 375 0 111 118 229 0 l 1068 0 l 1068 50 l 375 50 b 160 264 257 50 160 146 l 160 754 b 375 969 160 872 257 969 l 1068 969 z m 619 1072 l 710 1224 l 650 1224 l 560 1072 z "},"ā":{"ha":1236,"x_min":0,"x_max":0,"o":"m 493 889 b 615 979 515 944 561 979 b 738 889 671 979 717 944 l 946 358 l 376 358 l 376 308 l 965 308 l 1086 0 l 1139 0 l 785 907 b 719 994 771 942 749 972 b 615 1028 690 1017 654 1028 b 511 994 578 1028 542 1017 b 447 907 483 972 461 942 l 92 0 l 146 0 z m 400 1122 l 850 1122 l 850 1172 l 400 1172 z "},"ą":{"ha":1236,"x_min":0,"x_max":0,"o":"m 1146 -218 l 1071 -218 b 1013 -190 1046 -218 1022 -207 b 1008 -172 1010 -185 1008 -179 b 1019 -137 1008 -162 1011 -150 l 1097 0 l 1139 0 l 785 907 b 719 994 771 942 749 972 b 615 1028 690 1017 654 1028 b 511 994 578 1028 542 1017 b 447 907 483 972 461 942 l 92 0 l 146 0 l 493 889 b 615 979 515 944 561 979 b 738 889 671 979 717 944 l 946 358 l 376 358 l 376 308 l 965 308 l 1067 47 l 975 -112 b 958 -171 964 -132 958 -151 b 969 -215 958 -186 963 -201 b 1071 -268 989 -247 1028 -268 l 1146 -268 z "},"Ż":{"ha":1157,"x_min":0,"x_max":0,"o":"m 997 0 l 997 50 l 214 50 b 161 94 161 50 161 93 b 183 146 161 114 169 133 l 963 836 b 1001 924 986 858 1001 890 b 978 985 1001 946 992 968 b 897 1019 964 1000 940 1019 l 136 1019 l 136 969 l 897 969 b 951 924 950 969 951 926 b 929 874 951 906 943 886 l 150 183 l 150 182 b 111 94 125 160 111 128 b 135 33 111 74 119 50 b 214 0 147 18 172 0 z m 581 1074 l 581 1192 l 531 1192 l 531 1074 z "},"˙":{"ha":897,"x_min":0,"x_max":0,"o":"m 469 1074 l 469 1192 l 419 1192 l 419 1074 z "},"ż":{"ha":1157,"x_min":0,"x_max":0,"o":"m 997 0 l 997 50 l 214 50 b 161 94 161 50 161 93 b 183 146 161 114 169 133 l 963 836 b 1001 924 986 858 1001 890 b 978 985 1001 946 992 968 b 897 1019 964 1000 940 1019 l 136 1019 l 136 969 l 897 969 b 951 924 950 969 951 926 b 929 874 951 906 943 886 l 150 183 l 150 182 b 111 94 125 160 111 128 b 135 33 111 74 119 50 b 214 0 147 18 172 0 z m 603 1074 l 603 1192 l 553 1192 l 553 1074 z "},"ń":{"ha":1347,"x_min":0,"x_max":0,"o":"m 1136 0 l 1193 0 l 1193 1018 l 1143 1018 l 1143 64 l 228 1018 l 168 1018 l 168 1 l 218 1 l 218 956 z m 678 1019 l 768 1171 l 708 1171 l 618 1019 z "},"ņ":{"ha":1347,"x_min":0,"x_max":0,"o":"m 1136 0 l 1193 0 l 1193 1018 l 1143 1018 l 1143 64 l 228 1018 l 168 1018 l 168 1 l 218 1 l 218 956 l 1136 0 z "},"ź":{"ha":1157,"x_min":0,"x_max":0,"o":"m 997 0 l 997 50 l 214 50 b 161 94 161 50 161 93 b 183 146 161 114 169 133 l 963 836 b 1001 924 986 858 1001 890 b 978 985 1001 946 992 968 b 897 1019 964 1000 940 1019 l 136 1019 l 136 969 l 897 969 b 951 924 950 969 951 926 b 929 874 951 906 943 886 l 150 183 l 150 182 b 111 94 125 160 111 128 b 135 33 111 74 119 50 b 214 0 147 18 172 0 z m 550 1074 l 640 1225 l 581 1225 l 490 1074 z "},"ė":{"ha":1147,"x_min":0,"x_max":0,"o":"m 246 483 l 982 483 l 982 533 l 246 533 z m 160 847 b 281 969 160 914 214 969 l 1035 969 l 1035 1018 l 281 1018 b 111 847 188 1018 111 942 l 111 171 b 281 0 111 76 188 0 l 1035 0 l 1035 50 l 281 50 b 160 171 214 50 160 104 z m 599 1124 l 599 1242 l 549 1242 l 549 1124 z "},"ō":{"ha":1374,"x_min":0,"x_max":0,"o":"m 1032 0 b 1296 264 1178 0 1296 118 l 1296 754 b 1032 1019 1296 900 1178 1019 l 375 1019 b 111 754 229 1019 111 900 l 111 264 b 375 0 111 118 229 0 z m 1032 969 b 1247 754 1150 969 1247 872 l 1247 264 b 1032 50 1247 146 1150 50 l 375 50 b 160 264 257 50 160 146 l 160 754 b 375 969 160 872 257 969 z m 461 1124 l 911 1124 l 911 1174 l 461 1174 z "},"ī":{"ha":342,"x_min":0,"x_max":0,"o":"m 176 0 l 176 1018 l 126 1018 l 126 0 z m -74 1124 l 376 1124 l 376 1174 l -74 1174 z "},"˛":{"ha":1157,"x_min":0,"x_max":0,"o":"m 657 -268 l 657 -218 l 582 -218 b 524 -190 557 -218 533 -207 b 531 -137 515 -176 518 -158 l 615 13 l 572 38 l 486 -112 b 481 -215 465 -149 464 -186 b 582 -268 500 -247 539 -268 l 657 -268 z "},"ų":{"ha":1315,"x_min":0,"x_max":0,"o":"m 111 1018 l 111 264 b 375 0 111 118 229 0 l 893 0 b 1157 264 1039 0 1157 118 l 1157 1018 l 1108 1018 l 1108 264 b 893 50 1108 146 1011 50 l 375 50 b 160 264 257 50 160 146 l 160 1018 z m 1157 -268 l 1157 -218 l 1082 -218 b 1024 -190 1057 -218 1033 -207 b 1031 -137 1015 -176 1018 -158 l 1115 13 l 1072 38 l 986 -112 b 981 -215 965 -149 964 -186 b 1082 -268 1000 -247 1039 -268 z "},"Ą":{"ha":1236,"x_min":0,"x_max":0,"o":"m 1147 -218 l 1072 -218 b 1014 -190 1047 -218 1024 -207 b 1021 -137 1006 -176 1008 -158 l 1099 0 l 1111 0 l 757 907 b 692 994 743 942 721 972 b 588 1028 663 1017 626 1028 b 483 994 550 1028 514 1017 b 419 907 456 972 433 942 l 64 0 l 118 0 l 238 308 l 938 308 l 1051 18 l 976 -112 b 971 -215 956 -149 954 -186 b 1072 -268 990 -247 1029 -268 l 1147 -268 z m 588 979 b 710 889 643 979 689 944 l 918 358 l 257 358 l 465 889 b 588 979 488 944 533 979 z "},"Į":{"ha":342,"x_min":0,"x_max":0,"o":"m 217 -218 l 142 -218 b 83 -190 117 -218 93 -207 b 90 -137 75 -176 78 -158 l 168 0 l 176 0 l 176 1018 l 126 1018 l 126 28 l 46 -112 b 40 -215 25 -149 24 -186 b 142 -268 60 -247 99 -268 l 217 -268 z "},"ŗ":{"ha":1281,"x_min":0,"x_max":0,"o":"m 161 969 l 888 969 b 1013 844 957 969 1013 914 l 1013 565 b 888 442 1013 497 957 442 l 246 442 l 246 392 l 746 392 l 1042 0 l 1104 0 l 808 392 l 888 392 b 1061 565 983 392 1061 469 l 1061 844 b 888 1019 1061 940 983 1019 l 111 1019 l 111 1 l 161 1 z "},"Ę":{"ha":1221,"x_min":0,"x_max":0,"o":"m 1035 0 l 1035 50 l 281 50 b 160 171 214 50 160 104 l 160 483 l 982 483 l 982 533 l 160 533 l 160 847 b 281 969 160 914 214 969 l 1035 969 l 1035 1018 l 281 1018 b 111 847 188 1018 111 942 l 111 171 b 281 0 111 76 188 0 l 969 0 l 906 -112 b 900 -215 885 -149 883 -186 b 1001 -268 919 -247 958 -268 l 1076 -268 l 1076 -218 l 1001 -218 b 943 -190 976 -218 953 -207 b 950 -137 935 -176 938 -158 l 1028 0 z "},"ś":{"ha":1157,"x_min":0,"x_max":0,"o":"m 860 0 b 1000 53 915 0 965 18 b 1057 186 1036 86 1057 133 l 1057 306 b 1033 379 1057 311 1056 343 b 875 474 1013 413 968 456 l 349 593 b 154 722 285 607 154 638 l 154 822 b 193 929 153 876 174 910 b 283 969 217 954 251 969 l 1014 969 l 1014 1019 l 283 1019 b 157 963 239 1019 190 999 b 104 822 132 938 103 892 l 104 722 b 133 640 104 692 114 664 b 199 590 149 621 171 604 b 338 544 247 565 304 551 l 865 425 l 865 424 b 1007 307 1003 399 1007 313 l 1007 186 b 860 50 1007 106 946 50 l 113 50 l 113 0 z m 572 1074 l 663 1225 l 603 1225 l 513 1074 z "},"ł":{"ha":1019,"x_min":0,"x_max":0,"o":"m 906 50 l 253 50 b 161 140 203 50 161 90 l 161 443 l 333 669 l 333 758 l 161 526 l 161 1018 l 111 1018 l 111 460 l -42 254 l 18 254 l 111 376 l 111 140 b 253 0 111 64 175 0 l 906 0 z "},"у":{"ha":1315,"x_min":0,"x_max":0,"o":"m 118 1017 l 118 569 b 292 396 118 474 196 396 l 950 396 b 1074 447 999 396 1042 415 l 1074 175 b 950 50 1074 106 1018 50 l 143 50 l 143 0 l 950 0 b 1124 175 1046 0 1124 79 l 1124 563 l 1124 569 l 1124 1018 l 1074 1018 l 1074 564 b 950 446 1071 499 1017 446 l 292 446 b 167 569 222 446 167 501 l 167 1017 z m 1124 1018 l 1074 1018 z "},"Ў":{"ha":1315,"x_min":0,"x_max":0,"o":"m 118 1017 l 118 569 b 292 396 118 474 196 396 l 950 396 b 1074 447 999 396 1042 415 l 1074 175 b 950 50 1074 106 1018 50 l 143 50 l 143 0 l 950 0 b 1124 175 1046 0 1124 79 l 1124 563 l 1124 569 l 1124 1018 l 1074 1018 l 1074 564 b 950 446 1071 499 1017 446 l 292 446 b 167 569 222 446 167 501 l 167 1017 z m 1124 1018 l 1074 1018 z m 699 1072 b 847 1158 760 1072 817 1106 l 804 1183 b 699 1122 782 1146 742 1122 l 533 1122 b 428 1183 489 1122 449 1146 l 385 1158 b 533 1072 415 1106 472 1072 z "},"W":{"ha":2172,"x_min":0,"x_max":0,"o":"m 1550 -6 b 1654 29 1589 -6 1625 6 b 1718 117 1683 50 1706 81 l 2072 1018 l 2018 1018 l 1672 133 b 1550 44 1651 78 1606 44 b 1428 135 1496 44 1460 71 l 1111 957 b 1032 1018 1097 996 1067 1018 b 953 957 997 1018 967 996 l 636 135 b 514 44 604 71 568 44 b 392 133 458 44 413 78 l 46 1018 l -7 1018 l 346 117 b 410 29 358 81 381 50 b 514 -6 439 6 475 -6 b 615 26 553 -6 586 6 b 682 114 640 47 663 75 l 682 115 l 999 939 b 1032 969 1006 958 1018 969 b 1065 939 1046 969 1058 958 l 1382 117 l 1382 115 l 1382 114 b 1449 26 1401 75 1424 47 b 1550 -6 1478 6 1511 -6 z "},"w":{"ha":2172,"x_min":0,"x_max":0,"o":"m 1550 -6 b 1654 29 1589 -6 1625 6 b 1718 117 1683 50 1706 81 l 2072 1018 l 2018 1018 l 1672 133 b 1550 44 1651 78 1606 44 b 1428 135 1496 44 1460 71 l 1111 957 b 1032 1018 1097 996 1067 1018 b 953 957 997 1018 967 996 l 636 135 b 514 44 604 71 568 44 b 392 133 458 44 413 78 l 46 1018 l -7 1018 l 346 117 b 410 29 358 81 381 50 b 514 -6 439 6 475 -6 b 615 26 553 -6 586 6 b 682 114 640 47 663 75 l 682 115 l 999 939 b 1032 969 1006 958 1018 969 b 1065 939 1046 969 1058 958 l 1382 117 l 1382 115 l 1382 114 b 1449 26 1401 75 1424 47 b 1550 -6 1478 6 1511 -6 z "},"©":{"ha":832,"x_min":0,"x_max":0,"o":"m 386 332 b 693 640 556 332 693 471 b 386 947 693 811 556 947 b 79 640 215 947 79 811 b 386 332 79 471 215 332 z m 386 893 b 636 640 524 893 636 779 b 386 389 636 501 524 389 b 135 640 246 389 135 501 b 386 893 135 779 246 893 z m 469 708 l 514 708 b 386 808 508 774 454 808 b 242 651 296 808 242 740 b 381 488 242 539 300 488 b 517 607 460 488 508 536 l 474 607 b 386 525 461 556 432 525 b 286 646 332 525 286 563 b 386 769 286 733 328 769 b 469 708 435 769 460 749 z "},"®":{"ha":586,"x_min":0,"x_max":0,"o":"m 293 579 b 513 799 414 579 513 678 b 293 1018 513 921 414 1018 b 74 799 171 1018 74 921 b 293 579 74 678 171 579 z m 293 979 b 472 799 392 979 472 899 b 293 619 472 700 392 619 b 113 799 193 619 113 700 b 293 979 113 899 193 979 z m 213 915 l 213 697 l 244 697 l 244 789 l 310 789 b 351 756 339 789 351 782 l 353 724 b 357 697 353 710 356 704 l 392 697 b 385 735 386 706 385 714 l 385 763 b 357 804 382 785 376 794 b 388 857 376 814 388 832 b 317 915 388 894 367 915 z m 244 890 l 314 890 b 356 853 342 890 356 879 b 313 817 356 828 342 817 l 244 817 z "},"¤":{"ha":1035,"x_min":0,"x_max":0,"o":"m 844 529 b 757 764 844 617 814 699 l 892 899 l 857 933 l 722 799 b 489 886 657 856 575 886 b 254 799 401 886 319 856 l 119 933 l 85 899 l 219 764 b 132 529 163 699 132 617 b 219 294 132 442 163 360 l 85 160 l 119 125 l 254 260 b 489 172 319 203 401 172 b 722 260 575 172 657 203 l 857 125 l 892 160 l 757 294 b 844 529 814 360 844 442 z m 271 313 b 181 529 213 369 181 447 b 271 746 181 611 213 689 b 489 836 329 804 406 836 b 706 746 571 836 647 804 b 796 529 764 689 796 611 b 706 313 796 447 764 369 b 489 222 647 254 571 222 b 271 313 406 222 329 254 z "},"ľ":{"ha":1076,"x_min":0,"x_max":0,"o":"m 906 0 l 906 50 l 253 50 b 161 140 203 50 161 90 l 161 1018 l 111 1018 l 111 140 b 253 0 111 64 175 0 z m 557 858 l 610 858 l 661 1010 l 608 1010 z "},"Ŕ":{"ha":1304,"x_min":0,"x_max":0,"o":"m 1138 0 l 842 392 l 921 392 b 1094 565 1017 392 1094 469 l 1094 844 b 921 1019 1094 940 1017 1019 l 113 1019 l 113 1 l 163 1 l 163 392 l 779 392 l 1075 0 l 1138 0 z m 163 969 l 921 969 b 1046 844 990 969 1046 914 l 1046 565 b 921 442 1046 497 990 442 l 163 442 l 163 969 z m 575 1069 l 665 1221 l 606 1221 l 515 1069 z "},"Ů":{"ha":1315,"x_min":0,"x_max":0,"o":"m 111 1018 l 111 264 b 375 0 111 118 229 0 l 893 0 b 1157 264 1039 0 1157 118 l 1157 1018 l 1108 1018 l 1108 264 b 893 50 1108 146 1011 50 l 375 50 b 160 264 257 50 160 146 l 160 1018 z m 622 1072 b 726 1178 679 1072 726 1119 b 622 1283 726 1236 679 1283 b 517 1178 564 1283 517 1236 b 622 1072 517 1119 564 1072 z m 622 1239 b 683 1178 656 1239 683 1211 b 622 1117 683 1143 656 1117 b 560 1178 588 1117 560 1143 b 622 1239 560 1211 588 1239 z "},"Ř":{"ha":1304,"x_min":0,"x_max":0,"o":"m 1138 0 l 842 392 l 921 392 b 1094 565 1017 392 1094 469 l 1094 844 b 921 1019 1094 940 1017 1019 l 113 1019 l 113 1 l 163 1 l 163 392 l 779 392 l 1075 0 l 1138 0 z m 163 969 l 921 969 b 1046 844 990 969 1046 914 l 1046 565 b 921 442 1046 497 990 442 l 163 442 l 163 969 z m 563 1071 l 750 1217 l 719 1257 l 563 1135 l 410 1256 l 379 1217 z "},"Ű":{"ha":1315,"x_min":0,"x_max":0,"o":"m 111 1018 l 111 264 b 375 0 111 118 229 0 l 893 0 b 1157 264 1039 0 1157 118 l 1157 1018 l 1108 1018 l 1108 264 b 893 50 1108 146 1011 50 l 375 50 b 160 264 257 50 160 146 l 160 1018 z m 550 1075 l 640 1226 l 581 1226 l 490 1075 z m 693 1075 l 783 1226 l 724 1226 l 633 1075 z "},"ě":{"ha":1147,"x_min":0,"x_max":0,"o":"m 246 483 l 982 483 l 982 533 l 246 533 z m 160 847 b 281 969 160 914 214 969 l 1035 969 l 1035 1018 l 281 1018 b 111 847 188 1018 111 942 l 111 171 b 281 0 111 76 188 0 l 1035 0 l 1035 50 l 281 50 b 160 171 214 50 160 104 z m 578 1074 l 765 1219 l 735 1260 l 578 1138 l 425 1258 l 394 1219 z "},"ď":{"ha":1604,"x_min":0,"x_max":0,"o":"m 160 0 l 160 968 l 921 968 b 1136 753 1039 968 1136 871 l 1136 264 b 921 50 1136 146 1039 50 l 246 50 l 246 0 l 921 0 b 1185 264 1067 0 1185 118 l 1185 753 b 921 1018 1185 899 1067 1018 l 111 1018 l 111 0 z m 544 1065 l 597 1065 l 649 1217 l 596 1217 z "},"ň":{"ha":1347,"x_min":0,"x_max":0,"o":"m 1136 0 l 1193 0 l 1193 1018 l 1143 1018 l 1143 64 l 228 1018 l 168 1018 l 168 1 l 218 1 l 218 956 z m 693 1047 l 881 1193 l 850 1233 l 693 1111 l 540 1232 l 510 1193 z "},"ő":{"ha":1374,"x_min":0,"x_max":0,"o":"m 1032 0 b 1296 264 1178 0 1296 118 l 1296 754 b 1032 1019 1296 900 1178 1019 l 375 1019 b 111 754 229 1019 111 900 l 111 264 b 375 0 111 118 229 0 z m 1032 969 b 1247 754 1150 969 1247 872 l 1247 264 b 1032 50 1247 146 1150 50 l 375 50 b 160 264 257 50 160 146 l 160 754 b 375 969 160 872 257 969 z m 592 1075 l 682 1226 l 622 1226 l 532 1075 z m 735 1075 l 825 1226 l 765 1226 l 675 1075 z "},"ů":{"ha":1315,"x_min":0,"x_max":0,"o":"m 111 1018 l 111 264 b 375 0 111 118 229 0 l 893 0 b 1157 264 1039 0 1157 118 l 1157 1018 l 1108 1018 l 1108 264 b 893 50 1108 146 1011 50 l 375 50 b 160 264 257 50 160 146 l 160 1018 z m 626 1079 b 731 1185 683 1079 731 1126 b 626 1290 731 1243 683 1290 b 521 1185 568 1290 521 1243 b 626 1079 521 1126 568 1079 z m 626 1246 b 688 1185 660 1246 688 1218 b 626 1124 688 1150 660 1124 b 564 1185 592 1124 564 1150 b 626 1246 564 1218 592 1246 z "},"ă":{"ha":1236,"x_min":0,"x_max":0,"o":"m 493 889 b 615 979 515 944 561 979 b 738 889 671 979 717 944 l 946 358 l 376 358 l 376 308 l 965 308 l 1086 0 l 1139 0 l 785 907 b 719 994 771 942 749 972 b 615 1028 690 1017 654 1028 b 511 994 578 1028 542 1017 b 447 907 483 972 461 942 l 92 0 l 146 0 z m 701 1122 b 850 1208 763 1122 819 1156 l 807 1233 b 701 1172 785 1196 744 1172 l 536 1172 b 431 1233 492 1172 451 1196 l 388 1208 b 536 1122 418 1156 475 1122 z "},"ĺ":{"ha":1019,"x_min":0,"x_max":0,"o":"m 906 0 l 906 50 l 253 50 b 161 140 203 50 161 90 l 161 1018 l 111 1018 l 111 140 b 253 0 111 64 175 0 z m 494 839 l 585 990 l 525 990 l 435 839 z "},"ř":{"ha":1281,"x_min":0,"x_max":0,"o":"m 161 969 l 888 969 b 1013 844 957 969 1013 914 l 1013 565 b 888 442 1013 497 957 442 l 246 442 l 246 392 l 746 392 l 1042 0 l 1104 0 l 808 392 l 888 392 b 1061 565 983 392 1061 469 l 1061 844 b 888 1019 1061 940 983 1019 l 111 1019 l 111 1 l 161 1 z m 554 1074 l 742 1219 l 711 1260 l 554 1138 l 401 1258 l 371 1219 z "},"ť":{"ha":1314,"x_min":0,"x_max":0,"o":"m 508 0 l 508 968 l 968 968 l 968 1018 l 0 1018 l 0 968 l 458 968 l 458 0 z m 1129 928 l 1182 928 l 1233 1079 l 1181 1079 z "},"ū":{"ha":1315,"x_min":0,"x_max":0,"o":"m 111 1018 l 111 264 b 375 0 111 118 229 0 l 893 0 b 1157 264 1039 0 1157 118 l 1157 1018 l 1108 1018 l 1108 264 b 893 50 1108 146 1011 50 l 375 50 b 160 264 257 50 160 146 l 160 1018 z m 422 1074 l 872 1074 l 872 1124 l 422 1124 z "},"“":{"ha":383,"x_min":0,"x_max":0,"o":"m 183 928 l 132 1079 l 79 1079 l 131 928 z m 294 928 l 243 1079 l 190 1079 l 242 928 z "},"”":{"ha":413,"x_min":0,"x_max":0,"o":"m 243 928 l 294 1079 l 242 1079 l 190 928 z m 132 928 l 183 1079 l 131 1079 l 79 928 z "},"Ų":{"ha":1315,"x_min":0,"x_max":0,"o":"m 746 -218 l 671 -218 b 613 -190 646 -218 622 -207 b 619 -137 604 -176 607 -158 l 697 0 l 893 0 b 1157 264 1039 0 1157 118 l 1157 1018 l 1108 1018 l 1108 264 b 893 50 1108 146 1011 50 l 375 50 b 160 264 257 50 160 146 l 160 1018 l 111 1018 l 111 264 b 375 0 111 118 229 0 l 639 0 l 575 -112 b 569 -215 554 -149 553 -186 b 671 -268 589 -247 628 -268 l 746 -268 z "},"Ś":{"ha":1204,"x_min":0,"x_max":0,"o":"m 860 0 b 1000 53 915 0 965 18 b 1057 186 1036 86 1057 133 l 1057 306 b 1033 379 1057 311 1056 343 b 875 474 1013 413 968 456 l 349 593 b 154 722 285 607 154 638 l 154 822 b 193 929 153 876 174 910 b 283 969 217 954 251 969 l 1014 969 l 1014 1019 l 283 1019 b 157 963 239 1019 190 999 b 104 822 132 938 103 892 l 104 722 b 133 640 104 692 114 664 b 199 590 149 621 171 604 b 338 544 247 565 304 551 l 865 425 l 865 424 b 1007 307 1003 399 1007 313 l 1007 186 b 860 50 1007 106 946 50 l 113 50 l 113 0 z m 588 1069 l 678 1221 l 618 1221 l 528 1069 z "},"į":{"ha":342,"x_min":0,"x_max":0,"o":"m 217 -218 l 142 -218 b 83 -190 117 -218 93 -207 b 90 -137 75 -176 78 -158 l 168 0 l 176 0 l 176 1018 l 126 1018 l 126 28 l 46 -112 b 40 -215 25 -149 24 -186 b 142 -268 60 -247 99 -268 l 217 -268 z "},"Ź":{"ha":1157,"x_min":0,"x_max":0,"o":"m 997 0 l 997 50 l 214 50 b 161 94 161 50 161 93 b 183 146 161 114 169 133 l 963 836 b 1001 924 986 858 1001 890 b 978 985 1001 946 992 968 b 897 1019 964 1000 940 1019 l 136 1019 l 136 969 l 897 969 b 951 924 950 969 951 926 b 929 874 951 906 943 886 l 150 183 l 150 182 b 111 94 125 160 111 128 b 135 33 111 74 119 50 b 214 0 147 18 172 0 z m 558 1074 l 649 1225 l 589 1225 l 499 1074 z "},"æ":{"ha":1963,"x_min":0,"x_max":0,"o":"m 917 846 b 1038 968 917 913 971 968 l 1792 968 l 1792 1017 l 1038 1017 b 868 846 944 1017 868 940 l 868 604 l 746 924 b 688 993 739 940 717 971 b 583 1026 658 1015 622 1026 b 479 993 546 1026 510 1015 b 415 906 451 971 429 940 l 60 -1 l 114 -1 l 286 442 l 868 442 l 868 169 b 1038 -1 868 75 944 -1 l 1792 -1 l 1792 49 l 1038 49 b 917 169 971 49 917 103 l 917 442 l 1726 442 l 1726 492 l 917 492 l 917 532 l 917 846 z m 461 888 b 583 978 483 943 529 978 b 699 906 639 978 685 943 l 858 492 l 306 492 l 461 888 z "},"З":{"ha":1232,"x_min":0,"x_max":0,"o":"m 1086 678 l 1086 844 b 913 1019 1086 940 1008 1019 l 286 1019 b 113 844 190 1019 113 940 l 161 844 b 286 969 161 914 217 969 l 913 969 b 1038 844 982 969 1038 914 l 1038 678 b 914 554 1038 610 982 554 b 913 554 914 554 913 554 l 286 554 l 286 554 l 286 504 l 286 504 l 913 504 b 914 504 913 504 914 504 b 1038 381 982 504 1038 449 l 1038 174 b 913 50 1038 106 982 50 l 286 50 b 161 174 217 50 161 106 l 113 174 b 286 0 113 78 190 0 l 913 0 b 1086 174 1008 0 1086 78 l 1086 381 b 1003 529 1086 443 1053 499 b 1086 678 1053 560 1086 615 z "},"з":{"ha":1232,"x_min":0,"x_max":0,"o":"m 1086 678 l 1086 844 b 913 1019 1086 940 1008 1019 l 286 1019 b 113 844 190 1019 113 940 l 161 844 b 286 969 161 914 217 969 l 913 969 b 1038 844 982 969 1038 914 l 1038 678 b 914 554 1038 610 982 554 b 913 554 914 554 913 554 l 286 554 l 286 554 l 286 504 l 286 504 l 913 504 b 914 504 913 504 914 504 b 1038 381 982 504 1038 449 l 1038 174 b 913 50 1038 106 982 50 l 286 50 b 161 174 217 50 161 106 l 113 174 b 286 0 113 78 190 0 l 913 0 b 1086 174 1008 0 1086 78 l 1086 381 b 1003 529 1086 443 1053 499 b 1086 678 1053 560 1086 615 z "},"и":{"ha":1246,"x_min":0,"x_max":0,"o":"m 161 1018 l 111 1018 l 111 93 b 129 32 111 69 117 49 b 174 0 139 17 156 6 b 238 1 193 -7 217 -7 b 290 43 258 8 278 24 l 972 940 l 972 942 b 1035 967 990 967 1017 972 b 1063 919 1053 961 1063 944 l 1063 -6 l 1113 -6 l 1113 919 b 1094 981 1113 943 1106 964 b 1050 1014 1083 996 1068 1008 b 986 1011 1029 1019 1007 1019 b 932 971 965 1004 946 990 l 251 72 l 250 72 b 189 47 233 47 206 42 b 161 93 171 53 161 69 z "},"й":{"ha":1246,"x_min":0,"x_max":0,"o":"m 161 1018 l 111 1018 l 111 93 b 129 32 111 69 117 49 b 174 0 139 17 156 6 b 238 1 193 -7 217 -7 b 290 43 258 8 278 24 l 972 940 l 972 942 b 1035 967 990 967 1017 972 b 1063 919 1053 961 1063 944 l 1063 -6 l 1113 -6 l 1113 919 b 1094 981 1113 943 1106 964 b 1050 1014 1083 996 1068 1008 b 986 1011 1029 1019 1007 1019 b 932 971 965 1004 946 990 l 251 72 l 250 72 b 189 47 233 47 206 42 b 161 93 171 53 161 69 z m 706 1076 b 854 1163 767 1076 824 1110 l 811 1188 b 706 1126 789 1150 749 1126 l 540 1126 b 435 1188 496 1126 456 1150 l 392 1163 b 540 1076 422 1110 479 1076 z "},"Ф":{"ha":1669,"x_min":0,"x_max":0,"o":"m 853 -94 l 853 0 l 1268 0 b 1532 264 1414 0 1532 118 l 1532 753 b 1268 1018 1532 899 1414 1018 l 853 1018 l 853 1090 l 803 1090 l 803 1018 l 375 1018 b 111 753 229 1018 111 899 l 111 264 b 375 0 111 118 229 0 l 803 0 l 803 -94 z m 803 968 l 803 50 l 375 50 b 160 264 257 50 160 146 l 160 753 b 375 968 160 871 257 968 z m 853 50 l 853 968 l 1268 968 b 1483 753 1386 968 1483 871 l 1483 264 b 1268 50 1483 146 1386 50 z "},"ф":{"ha":1669,"x_min":0,"x_max":0,"o":"m 853 -94 l 853 0 l 1268 0 b 1532 264 1414 0 1532 118 l 1532 753 b 1268 1018 1532 899 1414 1018 l 853 1018 l 853 1090 l 803 1090 l 803 1018 l 375 1018 b 111 753 229 1018 111 899 l 111 264 b 375 0 111 118 229 0 l 803 0 l 803 -94 z m 803 968 l 803 50 l 375 50 b 160 264 257 50 160 146 l 160 753 b 375 968 160 871 257 968 z m 853 50 l 853 968 l 1268 968 b 1483 753 1386 968 1483 871 l 1483 264 b 1268 50 1483 146 1386 50 z "},"Ч":{"ha":1278,"x_min":0,"x_max":0,"o":"m 118 1017 l 118 536 b 292 363 118 440 196 363 l 950 363 b 1074 414 999 363 1042 382 l 1074 0 l 1124 0 l 1124 529 l 1124 1018 l 1074 1018 l 1074 531 b 950 413 1071 465 1017 413 l 292 413 b 167 536 222 413 167 468 l 167 1017 z m 1124 1018 l 1074 1018 z "},"Ж":{"ha":2111,"x_min":0,"x_max":0,"o":"m 1625 499 b 1613 508 1621 503 1617 506 b 1625 518 1617 511 1621 515 b 1697 607 1650 539 1671 567 l 1985 1018 l 1924 1018 l 1657 635 b 1524 533 1610 564 1583 533 l 1064 533 l 1064 1018 l 1015 1018 l 1015 533 l 556 533 b 422 635 496 533 469 564 l 156 1018 l 94 1018 l 382 607 b 454 518 408 567 429 539 b 467 508 458 515 463 511 b 454 499 463 506 458 503 b 382 411 429 479 408 451 l 96 0 l 156 0 l 422 383 b 556 483 469 453 496 483 l 1015 483 l 1015 0 l 1064 0 l 1064 483 l 1524 483 b 1657 383 1583 483 1610 453 l 1924 0 l 1983 0 l 1697 411 b 1625 499 1671 451 1650 479 z "},"ж":{"ha":2111,"x_min":0,"x_max":0,"o":"m 1064 1018 l 1015 1018 l 1015 533 l 556 533 b 422 635 496 533 469 564 l 156 1018 l 94 1018 l 382 607 b 454 518 408 567 429 539 b 467 508 458 515 463 511 b 454 499 463 506 458 503 b 382 411 429 479 408 451 l 96 0 l 156 0 l 422 383 b 556 483 469 453 496 483 l 1015 483 l 1015 0 l 1064 0 z m 1114 483 l 1524 483 b 1657 383 1583 483 1610 453 l 1924 0 l 1983 0 l 1697 411 b 1625 499 1671 451 1650 479 b 1613 508 1621 503 1617 506 b 1625 518 1617 511 1621 515 b 1697 607 1650 539 1671 567 l 1985 1018 l 1924 1018 l 1657 635 b 1524 533 1610 564 1583 533 l 1114 533 z "},"я":{"ha":1333,"x_min":0,"x_max":0,"o":"m 1056 1 l 1106 1 l 1106 1019 l 329 1019 b 156 844 233 1019 156 940 l 156 565 b 329 392 156 469 233 392 l 408 392 l 113 0 l 175 0 l 471 392 l 971 392 l 971 442 l 329 442 b 204 565 260 442 204 497 l 204 844 b 329 969 204 914 260 969 l 1056 969 z "},"Ю":{"ha":1688,"x_min":0,"x_max":0,"o":"m 1294 0 b 1558 264 1440 0 1558 118 l 1558 754 b 1294 1019 1558 900 1440 1019 l 638 1019 b 374 754 492 1019 374 900 l 374 264 b 638 0 374 118 492 0 z m 638 969 l 1294 969 b 1510 754 1413 969 1510 872 l 1510 264 b 1294 50 1510 146 1413 50 l 638 50 b 422 264 519 50 422 146 l 422 754 b 638 969 422 872 519 969 z m 161 0 l 161 1018 l 111 1018 l 111 0 z m 125 481 l 410 481 l 410 531 l 125 531 z "},"ю":{"ha":1688,"x_min":0,"x_max":0,"o":"m 1294 0 b 1558 264 1440 0 1558 118 l 1558 754 b 1294 1019 1558 900 1440 1019 l 638 1019 b 374 754 492 1019 374 900 l 374 264 b 638 0 374 118 492 0 z m 638 969 l 1294 969 b 1510 754 1413 969 1510 872 l 1510 264 b 1294 50 1510 146 1413 50 l 638 50 b 422 264 519 50 422 146 l 422 754 b 638 969 422 872 519 969 z m 161 0 l 161 1018 l 111 1018 l 111 0 z m 125 481 l 410 481 l 410 531 l 125 531 z "},"ў":{"ha":1315,"x_min":0,"x_max":0,"o":"m 118 1017 l 118 569 b 292 396 118 474 196 396 l 950 396 b 1074 447 999 396 1042 415 l 1074 175 b 950 50 1074 106 1018 50 l 143 50 l 143 0 l 950 0 b 1124 175 1046 0 1124 79 l 1124 563 l 1124 569 l 1124 1018 l 1074 1018 l 1074 564 b 950 446 1071 499 1017 446 l 292 446 b 167 569 222 446 167 501 l 167 1017 z m 1124 1018 l 1074 1018 z m 740 1075 b 889 1161 801 1075 858 1108 l 846 1186 b 740 1125 824 1149 783 1125 l 575 1125 b 469 1186 531 1125 490 1149 l 426 1161 b 575 1075 457 1108 514 1075 z "},"д":{"ha":1367,"x_min":0,"x_max":0,"o":"m 1211 49 l 876 907 b 811 994 863 942 840 972 b 707 1028 782 1017 746 1028 b 603 994 669 1028 633 1017 b 539 907 575 972 553 942 l 203 49 l 69 49 l 69 0 l 1349 0 l 1349 49 l 1211 49 z m 257 49 l 585 889 b 707 979 607 944 653 979 b 829 889 763 979 808 944 l 1158 49 l 257 49 z "},"ч":{"ha":1278,"x_min":0,"x_max":0,"o":"m 118 1017 l 118 536 b 292 363 118 440 196 363 l 950 363 b 1074 414 999 363 1042 382 l 1074 0 l 1124 0 l 1124 529 l 1124 1018 l 1074 1018 l 1074 531 b 950 413 1071 465 1017 413 l 292 413 b 167 536 222 413 167 468 l 167 1017 z m 1124 1018 l 1074 1018 z "},"ъ":{"ha":1374,"x_min":0,"x_max":0,"o":"m 314 1018 l 3 1018 l 3 968 l 264 968 l 264 0 l 1054 0 b 1228 175 1150 0 1228 79 l 1228 454 b 1054 628 1228 550 1150 628 l 383 628 l 383 578 l 1054 578 b 1179 454 1124 578 1179 522 l 1179 175 b 1054 50 1179 106 1124 50 l 314 50 z "},"ш":{"ha":1788,"x_min":0,"x_max":0,"o":"m 1592 1018 l 1592 78 b 1583 57 1592 69 1589 63 b 1563 49 1578 53 1571 49 l 900 49 l 900 1018 l 851 1018 l 851 49 l 189 49 b 168 57 181 49 174 53 b 160 78 163 63 160 69 l 160 1018 l 111 1018 l 111 78 b 133 22 111 57 118 38 b 189 0 149 7 168 0 l 1563 0 b 1618 22 1583 0 1603 7 b 1640 78 1633 38 1640 57 l 1640 1018 z "},"ķ":{"ha":1288,"x_min":0,"x_max":0,"o":"m 160 1018 l 111 1018 l 111 0 l 160 0 z m 246 483 l 717 483 b 850 383 776 483 803 453 l 1117 0 l 1176 0 l 890 411 b 818 499 864 451 843 479 b 806 508 814 503 810 506 b 818 518 810 511 814 515 b 890 607 843 539 864 567 l 1178 1018 l 1117 1018 l 850 635 b 717 533 803 564 776 533 l 246 533 z m 515 -201 l 567 -50 l 619 -50 l 568 -201 l 515 -201 z "},"ļ":{"ha":1019,"x_min":0,"x_max":0,"o":"m 906 0 l 906 50 l 253 50 b 161 140 203 50 161 90 l 161 1018 l 111 1018 l 111 140 b 253 0 111 64 175 0 l 906 0 z "},"Ļ":{"ha":1019,"x_min":0,"x_max":0,"o":"m 906 0 l 906 50 l 253 50 b 161 140 203 50 161 90 l 161 1018 l 111 1018 l 111 140 b 253 0 111 64 175 0 z m 478 -201 l 531 -201 l 582 -50 l 529 -50 z "},"Ķ":{"ha":1288,"x_min":0,"x_max":0,"o":"m 819 499 b 807 508 815 503 811 506 b 819 518 811 511 815 515 b 892 607 844 539 865 567 l 1179 1018 l 1118 1018 l 851 635 b 718 533 804 564 778 533 l 161 533 l 161 1018 l 113 1018 l 113 0 l 161 0 l 161 483 l 718 483 b 851 383 778 483 804 453 l 1118 0 l 1178 0 l 892 411 b 819 499 865 451 844 479 z m 497 -201 l 549 -50 l 601 -50 l 550 -201 l 497 -201 z "},"Ģ":{"ha":1286,"x_min":0,"x_max":0,"o":"m 1161 0 l 1161 532 l 688 532 l 688 482 l 1113 482 l 1113 50 l 374 50 b 160 264 256 50 160 146 l 160 751 b 374 968 160 871 256 968 l 1156 968 l 1156 1018 l 374 1018 b 188 939 304 1018 238 990 b 111 751 138 888 111 821 l 111 264 b 374 0 111 118 229 0 z m 589 -201 l 642 -201 l 693 -50 l 640 -50 z "},"Ņ":{"ha":1356,"x_min":0,"x_max":0,"o":"m 161 919 b 189 965 161 943 171 960 b 250 940 206 971 233 965 l 251 940 l 981 42 b 1035 1 994 22 1014 8 b 1099 -1 1056 -7 1078 -7 b 1143 32 1117 4 1132 17 b 1161 93 1154 49 1161 69 l 1161 1018 l 1111 1018 l 1111 93 b 1083 46 1111 68 1101 51 b 1021 71 1065 40 1039 46 l 1021 72 l 290 969 b 238 1011 278 989 258 1004 b 174 1013 217 1019 193 1019 b 129 981 156 1007 139 996 b 111 919 117 964 111 943 l 111 0 l 161 0 z m 604 -201 l 657 -201 l 708 -50 l 656 -50 z "},"Ŗ":{"ha":1304,"x_min":0,"x_max":0,"o":"m 1138 0 l 842 392 l 921 392 b 1094 565 1017 392 1094 469 l 1094 844 b 921 1019 1094 940 1017 1019 l 113 1019 l 113 1 l 163 1 l 163 392 l 779 392 l 1075 0 l 1138 0 z m 163 969 l 921 969 b 1046 844 990 969 1046 914 l 1046 565 b 921 442 1046 497 990 442 l 163 442 l 163 969 z m 538 -201 l 589 -50 l 642 -50 l 590 -201 l 538 -201 z "},"ģ":{"ha":1286,"x_min":0,"x_max":0,"o":"m 1161 0 l 374 0 b 111 264 229 0 111 118 l 111 751 b 188 939 111 821 138 888 b 374 1018 238 990 304 1018 l 1156 1018 l 1156 968 l 374 968 b 160 751 256 968 160 871 l 160 264 b 374 50 160 146 256 50 l 1113 50 l 1113 482 l 688 482 l 688 532 l 1161 532 l 1161 0 z m 694 1075 l 643 1226 l 590 1226 l 642 1075 l 694 1075 z "},"щ":{"ha":1913,"x_min":0,"x_max":0,"o":"m 1735 26 b 1679 49 1719 42 1700 49 l 1635 49 b 1640 78 1639 58 1640 68 l 1640 1018 l 1592 1018 l 1592 78 b 1583 57 1592 69 1589 63 b 1563 49 1578 53 1571 49 l 900 49 l 900 1018 l 851 1018 l 851 49 l 189 49 b 168 57 181 49 174 53 b 160 78 163 63 160 69 l 160 1018 l 111 1018 l 111 78 b 133 22 111 57 118 38 b 189 0 149 7 168 0 l 1563 0 l 1679 0 b 1700 -8 1688 0 1694 -4 b 1708 -29 1706 -14 1708 -21 l 1708 -150 l 1757 -150 l 1757 -29 b 1735 26 1757 -8 1750 11 z "},"Щ":{"ha":1910,"x_min":0,"x_max":0,"o":"m 1735 26 b 1679 49 1719 42 1700 49 l 1635 49 b 1640 78 1639 58 1640 68 l 1640 1018 l 1592 1018 l 1592 78 b 1583 57 1592 69 1589 63 b 1563 49 1578 53 1571 49 l 900 49 l 900 1018 l 851 1018 l 851 49 l 189 49 b 168 57 181 49 174 53 b 160 78 163 63 160 69 l 160 1018 l 111 1018 l 111 78 b 133 22 111 57 118 38 b 189 0 149 7 168 0 l 1563 0 l 1679 0 b 1700 -8 1688 0 1694 -4 b 1708 -29 1706 -14 1708 -21 l 1708 -150 l 1757 -150 l 1757 -29 b 1735 26 1757 -8 1750 11 z "},"Ш":{"ha":1750,"x_min":0,"x_max":0,"o":"m 1592 1018 l 1592 78 b 1583 57 1592 69 1589 63 b 1563 49 1578 53 1571 49 l 900 49 l 900 1018 l 851 1018 l 851 49 l 189 49 b 168 57 181 49 174 53 b 160 78 163 63 160 69 l 160 1018 l 111 1018 l 111 78 b 133 22 111 57 118 38 b 189 0 149 7 168 0 l 1563 0 b 1618 22 1583 0 1603 7 b 1640 78 1633 38 1640 57 l 1640 1018 z "},"Ц":{"ha":1389,"x_min":0,"x_max":0,"o":"m 1221 26 b 1165 49 1206 42 1186 49 l 1121 49 b 1126 78 1125 58 1126 68 l 1126 1018 l 1078 1018 l 1078 78 b 1069 57 1078 69 1075 63 b 1049 49 1064 53 1057 49 l 189 49 b 168 57 181 49 174 53 b 160 78 163 63 160 69 l 160 1018 l 111 1018 l 111 78 b 133 22 111 57 118 38 b 189 0 149 7 168 0 l 1049 0 l 1165 0 b 1186 -8 1174 0 1181 -4 b 1194 -29 1192 -14 1194 -21 l 1194 -150 l 1243 -150 l 1243 -29 b 1221 26 1243 -8 1236 11 z "},"ц":{"ha":1360,"x_min":0,"x_max":0,"o":"m 1221 26 b 1165 49 1206 42 1186 49 l 1121 49 b 1126 78 1125 58 1126 68 l 1126 1018 l 1078 1018 l 1078 78 b 1069 57 1078 69 1075 63 b 1049 49 1064 53 1057 49 l 189 49 b 168 57 181 49 174 53 b 160 78 163 63 160 69 l 160 1018 l 111 1018 l 111 78 b 133 22 111 57 118 38 b 189 0 149 7 168 0 l 1049 0 l 1165 0 b 1186 -8 1174 0 1181 -4 b 1194 -29 1192 -14 1194 -21 l 1194 -150 l 1243 -150 l 1243 -29 b 1221 26 1243 -8 1236 11 z "},"ь":{"ha":1193,"x_min":0,"x_max":0,"o":"m 161 1018 l 111 1018 l 111 0 l 874 0 b 1047 175 969 0 1047 79 l 1047 454 b 874 628 1047 550 969 628 l 246 628 l 246 578 l 874 578 b 999 454 943 578 999 522 l 999 175 b 874 50 999 106 943 50 l 161 50 z "},"ы":{"ha":1346,"x_min":0,"x_max":0,"o":"m 161 1018 l 111 1018 l 111 0 l 874 0 b 1047 175 969 0 1047 79 l 1047 454 b 874 628 1047 550 969 628 l 246 628 l 246 578 l 874 578 b 999 454 943 578 999 522 l 999 175 b 874 50 999 106 943 50 l 161 50 z m 1208 0 l 1208 1018 l 1158 1018 l 1158 0 z "},"ё":{"ha":1147,"x_min":0,"x_max":0,"o":"m 246 483 l 982 483 l 982 533 l 246 533 z m 160 847 b 281 969 160 914 214 969 l 1035 969 l 1035 1018 l 281 1018 b 111 847 188 1018 111 942 l 111 171 b 281 0 111 76 188 0 l 1035 0 l 1035 50 l 281 50 b 160 171 214 50 160 104 z m 533 1074 l 533 1192 l 483 1192 l 483 1074 z m 756 1074 l 756 1192 l 706 1192 l 706 1074 z "},"ќ":{"ha":1288,"x_min":0,"x_max":0,"o":"m 160 1018 l 111 1018 l 111 0 l 160 0 z m 246 483 l 717 483 b 850 383 776 483 803 453 l 1117 0 l 1176 0 l 890 411 b 818 499 864 451 843 479 b 806 508 814 503 810 506 b 818 518 810 511 814 515 b 890 607 843 539 864 567 l 1178 1018 l 1117 1018 l 850 635 b 717 533 803 564 776 533 l 246 533 z m 568 839 l 658 990 l 718 990 l 628 839 z "},"Й":{"ha":1246,"x_min":0,"x_max":0,"o":"m 161 1018 l 111 1018 l 111 93 b 129 32 111 69 117 49 b 174 0 139 17 156 6 b 238 1 193 -7 217 -7 b 290 43 258 8 278 24 l 972 940 l 972 942 b 1035 967 990 967 1017 972 b 1063 919 1053 961 1063 944 l 1063 -6 l 1113 -6 l 1113 919 b 1094 981 1113 943 1106 964 b 1050 1014 1083 996 1068 1008 b 986 1011 1029 1019 1007 1019 b 932 971 965 1004 946 990 l 251 72 l 250 72 b 189 47 233 47 206 42 b 161 93 171 53 161 69 z m 706 1075 b 854 1161 767 1075 824 1108 l 811 1186 b 706 1125 789 1149 749 1125 l 540 1125 b 435 1186 496 1125 456 1149 l 392 1161 b 540 1075 422 1108 479 1075 z "},"Э":{"ha":1325,"x_min":0,"x_max":0,"o":"m 1044 854 b 936 972 1014 906 978 944 b 782 1018 890 1003 838 1018 l 111 1018 l 111 968 l 782 968 b 1001 829 896 968 964 893 b 1078 533 1047 751 1074 647 l 113 533 l 113 485 l 1078 485 b 1001 189 1074 371 1047 267 b 782 50 964 125 896 50 l 111 50 l 111 0 l 782 0 b 936 46 838 0 890 15 b 1044 164 978 74 1014 113 b 1128 510 1097 256 1128 378 b 1044 854 1128 640 1097 763 z "},"э":{"ha":1325,"x_min":0,"x_max":0,"o":"m 1044 854 b 936 972 1014 906 978 944 b 782 1018 890 1003 838 1018 l 111 1018 l 111 968 l 782 968 b 1001 829 896 968 964 893 b 1078 533 1047 751 1074 647 l 113 533 l 113 485 l 1078 485 b 1001 189 1074 371 1047 267 b 782 50 964 125 896 50 l 111 50 l 111 0 l 782 0 b 936 46 838 0 890 15 b 1044 164 978 74 1014 113 b 1128 510 1097 256 1128 378 b 1044 854 1128 640 1097 763 z "},"Ș":{"ha":1204,"x_min":0,"x_max":0,"o":"m 860 0 b 1000 53 915 0 965 18 b 1057 186 1036 86 1057 133 l 1057 306 b 1033 379 1057 311 1056 343 b 875 474 1013 413 968 456 l 349 593 b 154 722 285 607 154 638 l 154 822 b 193 929 153 876 174 910 b 283 969 217 954 251 969 l 1014 969 l 1014 1019 l 283 1019 b 157 963 239 1019 190 999 b 104 822 132 938 103 892 l 104 722 b 133 640 104 692 114 664 b 199 590 149 621 171 604 b 338 544 247 565 304 551 l 865 425 l 865 424 b 1007 307 1003 399 1007 313 l 1007 186 b 860 50 1007 106 946 50 l 113 50 l 113 0 z m 514 -201 l 567 -201 l 618 -50 l 565 -50 z "},"ș":{"ha":1157,"x_min":0,"x_max":0,"o":"m 860 0 b 1000 53 915 0 965 18 b 1057 186 1036 86 1057 133 l 1057 306 b 1033 379 1057 311 1056 343 b 875 474 1013 413 968 456 l 349 593 b 154 722 285 607 154 638 l 154 822 b 193 929 153 876 174 910 b 283 969 217 954 251 969 l 1014 969 l 1014 1019 l 283 1019 b 157 963 239 1019 190 999 b 104 822 132 938 103 892 l 104 722 b 133 640 104 692 114 664 b 199 590 149 621 171 604 b 338 544 247 565 304 551 l 865 425 l 865 424 b 1007 307 1003 399 1007 313 l 1007 186 b 860 50 1007 106 946 50 l 113 50 l 113 0 z m 526 -201 l 579 -201 l 631 -50 l 578 -50 z "},"ű":{"ha":1315,"x_min":0,"x_max":0,"o":"m 111 1018 l 111 264 b 375 0 111 118 229 0 l 893 0 b 1157 264 1039 0 1157 118 l 1157 1018 l 1108 1018 l 1108 264 b 893 50 1108 146 1011 50 l 375 50 b 160 264 257 50 160 146 l 160 1018 z m 563 1075 l 653 1226 l 593 1226 l 503 1075 z m 706 1075 l 796 1226 l 736 1226 l 646 1075 z "},"Ţ":{"ha":1050,"x_min":0,"x_max":0,"o":"m 508 0 l 508 968 l 968 968 l 968 1018 l 0 1018 l 0 968 l 458 968 l 458 0 z m 472 -201 l 525 -201 l 576 -50 l 524 -50 z "},"ŕ":{"ha":1281,"x_min":0,"x_max":0,"o":"m 161 969 l 888 969 b 1013 844 957 969 1013 914 l 1013 565 b 888 442 1013 497 957 442 l 246 442 l 246 392 l 746 392 l 1042 0 l 1104 0 l 808 392 l 888 392 b 1061 565 983 392 1061 469 l 1061 844 b 888 1019 1061 940 983 1019 l 111 1019 l 111 1 l 161 1 z m 528 1075 l 618 1226 l 558 1226 l 468 1075 z "},"˝":{"ha":1131,"x_min":0,"x_max":0,"o":"m 592 839 l 682 990 l 622 990 l 532 839 z m 735 839 l 825 990 l 765 990 l 675 839 z "},"Ő":{"ha":1465,"x_min":0,"x_max":0,"o":"m 1032 0 b 1296 264 1178 0 1296 118 l 1296 754 b 1032 1019 1296 900 1178 1019 l 375 1019 b 111 754 229 1019 111 900 l 111 264 b 375 0 111 118 229 0 z m 1032 969 b 1247 754 1150 969 1247 872 l 1247 264 b 1032 50 1247 146 1150 50 l 375 50 b 160 264 257 50 160 146 l 160 754 b 375 969 160 872 257 969 z m 631 1075 l 721 1226 l 661 1226 l 571 1075 z m 774 1075 l 864 1226 l 804 1226 l 714 1075 z "},"ţ":{"ha":1050,"x_min":0,"x_max":0,"o":"m 508 0 l 508 968 l 968 968 l 968 1018 l 0 1018 l 0 968 l 458 968 l 458 0 z m 472 -201 l 525 -201 l 576 -50 l 524 -50 z "},"#":{"ha":1239,"x_min":0,"x_max":0,"o":"m 743 0 l 821 317 l 1082 317 l 1082 367 l 833 367 l 910 678 l 1082 678 l 1082 728 l 922 728 l 993 1018 l 935 1018 l 864 728 l 408 728 l 479 1018 l 421 1018 l 350 728 l 111 728 l 111 678 l 338 678 l 261 367 l 111 367 l 111 317 l 249 317 l 171 0 l 229 0 l 307 317 l 763 317 l 685 0 z m 396 678 l 851 678 l 775 367 l 319 367 z "},"%":{"ha":1286,"x_min":0,"x_max":0,"o":"m 328 0 l 1022 1018 l 958 1018 l 264 0 z m 414 544 b 589 719 511 544 589 624 l 589 843 b 414 1019 589 940 511 1019 l 290 1019 b 115 843 194 1019 115 940 l 115 719 b 290 544 115 624 194 544 z m 414 969 b 540 843 483 969 540 913 l 540 719 b 414 594 540 650 483 594 l 290 594 b 165 719 221 594 165 650 l 165 843 b 290 969 165 913 221 969 z m 1011 3 b 1186 178 1108 3 1186 82 l 1186 301 b 1011 478 1186 399 1108 478 l 888 478 b 713 301 792 478 713 399 l 713 178 b 888 3 713 82 792 3 z m 1011 428 b 1138 301 1081 428 1138 371 l 1138 178 b 1011 53 1138 108 1081 53 l 888 53 b 763 178 818 53 763 108 l 763 301 b 888 428 763 371 818 428 z "},"Ӵ":{"ha":1278,"x_min":0,"x_max":0,"o":"m 118 1017 l 118 536 b 292 363 118 440 196 363 l 950 363 b 1074 414 999 363 1042 382 l 1074 0 l 1124 0 l 1124 529 l 1124 1018 l 1074 1018 l 1074 531 b 950 413 1071 465 1017 413 l 292 413 b 167 536 222 413 167 468 l 167 1017 z m 1124 1018 l 1074 1018 z m 539 1126 l 539 1244 l 489 1244 l 489 1126 z m 761 1126 l 761 1244 l 711 1244 l 711 1126 z "},"ӵ":{"ha":1278,"x_min":0,"x_max":0,"o":"m 118 1017 l 118 536 b 292 363 118 440 196 363 l 950 363 b 1074 414 999 363 1042 382 l 1074 0 l 1124 0 l 1124 529 l 1124 1018 l 1074 1018 l 1074 531 b 950 413 1071 465 1017 413 l 292 413 b 167 536 222 413 167 468 l 167 1017 z m 1124 1018 l 1074 1018 z m 539 1072 l 539 1190 l 489 1190 l 489 1072 z m 761 1072 l 761 1190 l 711 1190 l 711 1072 z "},"Ӹ":{"ha":1256,"x_min":0,"x_max":0,"o":"m 161 628 l 161 1018 l 111 1018 l 111 0 l 874 0 b 1047 175 969 0 1047 79 l 1047 454 b 874 628 1047 550 969 628 z m 161 578 l 874 578 b 999 454 943 578 999 522 l 999 175 b 874 50 999 106 943 50 l 161 50 z m 1189 0 l 1189 1018 l 1139 1018 l 1139 0 z m 542 1126 l 542 1244 l 492 1244 l 492 1126 z m 764 1126 l 764 1244 l 714 1244 l 714 1126 z "},"ӹ":{"ha":1256,"x_min":0,"x_max":0,"o":"m 542 840 l 542 958 l 492 958 l 492 840 z m 764 840 l 764 958 l 714 958 l 714 840 z "},"Ӂ":{"ha":2111,"x_min":0,"x_max":0,"o":"m 1625 499 b 1613 508 1621 503 1617 506 b 1625 518 1617 511 1621 515 b 1697 607 1650 539 1671 567 l 1985 1018 l 1924 1018 l 1657 635 b 1524 533 1610 564 1583 533 l 1064 533 l 1064 1018 l 1015 1018 l 1015 533 l 556 533 b 422 635 496 533 469 564 l 156 1018 l 94 1018 l 382 607 b 454 518 408 567 429 539 b 467 508 458 515 463 511 b 454 499 463 506 458 503 b 382 411 429 479 408 451 l 96 0 l 156 0 l 422 383 b 556 483 469 453 496 483 l 1015 483 l 1015 0 l 1064 0 l 1064 483 l 1524 483 b 1657 383 1583 483 1610 453 l 1924 0 l 1983 0 l 1697 411 b 1625 499 1671 451 1650 479 z m 1138 1142 b 1286 1228 1199 1142 1256 1175 l 1243 1253 b 1138 1192 1221 1215 1181 1192 l 972 1192 b 867 1253 928 1192 888 1215 l 824 1228 b 972 1142 854 1175 911 1142 z "},"ӂ":{"ha":2111,"x_min":0,"x_max":0,"o":"m 1064 1018 l 1015 1018 l 1015 533 l 556 533 b 422 635 496 533 469 564 l 156 1018 l 94 1018 l 382 607 b 454 518 408 567 429 539 b 467 508 458 515 463 511 b 454 499 463 506 458 503 b 382 411 429 479 408 451 l 96 0 l 156 0 l 422 383 b 556 483 469 453 496 483 l 1015 483 l 1015 0 l 1064 0 z m 1114 483 l 1524 483 b 1657 383 1583 483 1610 453 l 1924 0 l 1983 0 l 1697 411 b 1625 499 1671 451 1650 479 b 1613 508 1621 503 1617 506 b 1625 518 1617 511 1621 515 b 1697 607 1650 539 1671 567 l 1985 1018 l 1924 1018 l 1657 635 b 1524 533 1610 564 1583 533 l 1114 533 z m 1124 1063 b 1272 1149 1185 1063 1242 1096 l 1229 1174 b 1124 1113 1207 1136 1167 1113 l 958 1113 b 853 1174 914 1113 874 1136 l 810 1149 b 958 1063 840 1096 897 1063 z "},"Ӯ":{"ha":1315,"x_min":0,"x_max":0,"o":"m 118 1017 l 118 569 b 292 396 118 474 196 396 l 950 396 b 1074 447 999 396 1042 415 l 1074 175 b 950 50 1074 106 1018 50 l 143 50 l 143 0 l 950 0 b 1124 175 1046 0 1124 79 l 1124 563 l 1124 569 l 1124 1018 l 1074 1018 l 1074 564 b 950 446 1071 499 1017 446 l 292 446 b 167 569 222 446 167 501 l 167 1017 z m 1124 1018 l 1074 1018 z m 432 1154 l 882 1154 l 882 1204 l 432 1204 z "},"ӯ":{"ha":1315,"x_min":0,"x_max":0,"o":"m 118 1017 l 118 569 b 292 396 118 474 196 396 l 950 396 b 1074 447 999 396 1042 415 l 1074 175 b 950 50 1074 106 1018 50 l 143 50 l 143 0 l 950 0 b 1124 175 1046 0 1124 79 l 1124 563 l 1124 569 l 1124 1018 l 1074 1018 l 1074 564 b 950 446 1071 499 1017 446 l 292 446 b 167 569 222 446 167 501 l 167 1017 z m 1124 1018 l 1074 1018 z m 397 1018 l 847 1018 l 847 1068 l 397 1068 z "},"Ӱ":{"ha":1315,"x_min":0,"x_max":0,"o":"m 118 1017 l 118 569 b 292 396 118 474 196 396 l 950 396 b 1074 447 999 396 1042 415 l 1074 175 b 950 50 1074 106 1018 50 l 143 50 l 143 0 l 950 0 b 1124 175 1046 0 1124 79 l 1124 563 l 1124 569 l 1124 1018 l 1074 1018 l 1074 564 b 950 446 1071 499 1017 446 l 292 446 b 167 569 222 446 167 501 l 167 1017 z m 1124 1018 l 1074 1018 z m 571 1126 l 571 1244 l 521 1244 l 521 1126 z m 793 1126 l 793 1244 l 743 1244 l 743 1126 z "},"ӱ":{"ha":1315,"x_min":0,"x_max":0,"o":"m 118 1017 l 118 569 b 292 396 118 474 196 396 l 950 396 b 1074 447 999 396 1042 415 l 1074 175 b 950 50 1074 106 1018 50 l 143 50 l 143 0 l 950 0 b 1124 175 1046 0 1124 79 l 1124 563 l 1124 569 l 1124 1018 l 1074 1018 l 1074 564 b 950 446 1071 499 1017 446 l 292 446 b 167 569 222 446 167 501 l 167 1017 z m 1124 1018 l 1074 1018 z m 528 1021 l 528 1139 l 478 1139 l 478 1021 z m 750 1021 l 750 1139 l 700 1139 l 700 1021 z "},"Ӟ":{"ha":1232,"x_min":0,"x_max":0,"o":"m 1086 678 l 1086 844 b 913 1019 1086 940 1008 1019 l 286 1019 b 113 844 190 1019 113 940 l 161 844 b 286 969 161 914 217 969 l 913 969 b 1038 844 982 969 1038 914 l 1038 678 b 914 554 1038 610 982 554 b 913 554 914 554 913 554 l 286 554 l 286 554 l 286 504 l 286 504 l 913 504 b 914 504 913 504 914 504 b 1038 381 982 504 1038 449 l 1038 174 b 913 50 1038 106 982 50 l 286 50 b 161 174 217 50 161 106 l 113 174 b 286 0 113 78 190 0 l 913 0 b 1086 174 1008 0 1086 78 l 1086 381 b 1003 529 1086 443 1053 499 b 1086 678 1053 560 1086 615 z m 529 1126 l 529 1244 l 479 1244 l 479 1126 z m 751 1126 l 751 1244 l 701 1244 l 701 1126 z "},"ӟ":{"ha":1232,"x_min":0,"x_max":0,"o":"m 1086 678 l 1086 844 b 913 1019 1086 940 1008 1019 l 286 1019 b 113 844 190 1019 113 940 l 161 844 b 286 969 161 914 217 969 l 913 969 b 1038 844 982 969 1038 914 l 1038 678 b 914 554 1038 610 982 554 b 913 554 914 554 913 554 l 286 554 l 286 554 l 286 504 l 286 504 l 913 504 b 914 504 913 504 914 504 b 1038 381 982 504 1038 449 l 1038 174 b 913 50 1038 106 982 50 l 286 50 b 161 174 217 50 161 106 l 113 174 b 286 0 113 78 190 0 l 913 0 b 1086 174 1008 0 1086 78 l 1086 381 b 1003 529 1086 443 1053 499 b 1086 678 1053 560 1086 615 z m 529 1079 l 529 1197 l 479 1197 l 479 1079 z m 751 1079 l 751 1197 l 701 1197 l 701 1079 z "},"ӝ":{"ha":2111,"x_min":0,"x_max":0,"o":"m 1064 1018 l 1015 1018 l 1015 533 l 556 533 b 422 635 496 533 469 564 l 156 1018 l 94 1018 l 382 607 b 454 518 408 567 429 539 b 467 508 458 515 463 511 b 454 499 463 506 458 503 b 382 411 429 479 408 451 l 96 0 l 156 0 l 422 383 b 556 483 469 453 496 483 l 1015 483 l 1015 0 l 1064 0 z m 1114 483 l 1524 483 b 1657 383 1583 483 1610 453 l 1924 0 l 1983 0 l 1697 411 b 1625 499 1671 451 1650 479 b 1613 508 1621 503 1617 506 b 1625 518 1617 511 1621 515 b 1697 607 1650 539 1671 567 l 1985 1018 l 1924 1018 l 1657 635 b 1524 533 1610 564 1583 533 l 1114 533 z m 956 1076 l 956 1194 l 906 1194 l 906 1076 z m 1178 1076 l 1178 1194 l 1128 1194 l 1128 1076 z "},"Ӝ":{"ha":2111,"x_min":0,"x_max":0,"o":"m 1625 499 b 1613 508 1621 503 1617 506 b 1625 518 1617 511 1621 515 b 1697 607 1650 539 1671 567 l 1985 1018 l 1924 1018 l 1657 635 b 1524 533 1610 564 1583 533 l 1064 533 l 1064 1018 l 1015 1018 l 1015 533 l 556 533 b 422 635 496 533 469 564 l 156 1018 l 94 1018 l 382 607 b 454 518 408 567 429 539 b 467 508 458 515 463 511 b 454 499 463 506 458 503 b 382 411 429 479 408 451 l 96 0 l 156 0 l 422 383 b 556 483 469 453 496 483 l 1015 483 l 1015 0 l 1064 0 l 1064 483 l 1524 483 b 1657 383 1583 483 1610 453 l 1924 0 l 1983 0 l 1697 411 b 1625 499 1671 451 1650 479 z m 969 1126 l 969 1244 l 919 1244 l 919 1126 z m 1192 1126 l 1192 1244 l 1142 1244 l 1142 1126 z "},"ӛ":{"ha":1157,"x_min":0,"x_max":0,"o":""},"Ғ":{"ha":1157,"x_min":0,"x_max":0,"o":""},"Ӣ":{"ha":1301,"x_min":0,"x_max":0,"o":"m 161 1018 l 111 1018 l 111 93 b 129 32 111 69 117 49 b 174 0 139 17 156 6 b 238 1 193 -7 217 -7 b 290 43 258 8 278 24 l 972 940 l 972 942 b 1035 967 990 967 1017 972 b 1063 919 1053 961 1063 944 l 1063 -6 l 1113 -6 l 1113 919 b 1094 981 1113 943 1106 964 b 1050 1014 1083 996 1068 1008 b 986 1011 1029 1019 1007 1019 b 932 971 965 1004 946 990 l 251 72 l 250 72 b 189 47 233 47 206 42 b 161 93 171 53 161 69 z m 396 1074 l 846 1074 l 846 1124 l 396 1124 z "},"ӣ":{"ha":1246,"x_min":0,"x_max":0,"o":"m 161 1018 l 111 1018 l 111 93 b 129 32 111 69 117 49 b 174 0 139 17 156 6 b 238 1 193 -7 217 -7 b 290 43 258 8 278 24 l 972 940 l 972 942 b 1035 967 990 967 1017 972 b 1063 919 1053 961 1063 944 l 1063 -6 l 1113 -6 l 1113 919 b 1094 981 1113 943 1106 964 b 1050 1014 1083 996 1068 1008 b 986 1011 1029 1019 1007 1019 b 932 971 965 1004 946 990 l 251 72 l 250 72 b 189 47 233 47 206 42 b 161 93 171 53 161 69 z m 383 1075 l 833 1075 l 833 1125 l 383 1125 z "},"Ӥ":{"ha":1301,"x_min":0,"x_max":0,"o":"m 161 1018 l 111 1018 l 111 93 b 129 32 111 69 117 49 b 174 0 139 17 156 6 b 238 1 193 -7 217 -7 b 290 43 258 8 278 24 l 972 940 l 972 942 b 1035 967 990 967 1017 972 b 1063 919 1053 961 1063 944 l 1063 -6 l 1113 -6 l 1113 919 b 1094 981 1113 943 1106 964 b 1050 1014 1083 996 1068 1008 b 986 1011 1029 1019 1007 1019 b 932 971 965 1004 946 990 l 251 72 l 250 72 b 189 47 233 47 206 42 b 161 93 171 53 161 69 z m 494 1071 l 494 1189 l 444 1189 l 444 1071 z m 717 1071 l 717 1189 l 667 1189 l 667 1071 z "},"ӥ":{"ha":1246,"x_min":0,"x_max":0,"o":"m 161 1018 l 111 1018 l 111 93 b 129 32 111 69 117 49 b 174 0 139 17 156 6 b 238 1 193 -7 217 -7 b 290 43 258 8 278 24 l 972 940 l 972 942 b 1035 967 990 967 1017 972 b 1063 919 1053 961 1063 944 l 1063 -6 l 1113 -6 l 1113 919 b 1094 981 1113 943 1106 964 b 1050 1014 1083 996 1068 1008 b 986 1011 1029 1019 1007 1019 b 932 971 965 1004 946 990 l 251 72 l 250 72 b 189 47 233 47 206 42 b 161 93 171 53 161 69 z m 531 1018 l 531 1136 l 481 1136 l 481 1018 z m 753 1018 l 753 1136 l 703 1136 l 703 1018 z "},"Ӧ":{"ha":1517,"x_min":0,"x_max":0,"o":"m 1032 0 b 1296 264 1178 0 1296 118 l 1296 754 b 1032 1019 1296 900 1178 1019 l 375 1019 b 111 754 229 1019 111 900 l 111 264 b 375 0 111 118 229 0 z m 1032 969 b 1247 754 1150 969 1247 872 l 1247 264 b 1032 50 1247 146 1150 50 l 375 50 b 160 264 257 50 160 146 l 160 754 b 375 969 160 872 257 969 z m 617 1126 l 617 1244 l 567 1244 l 567 1126 z m 839 1126 l 839 1244 l 789 1244 l 789 1126 z "},"ӧ":{"ha":1483,"x_min":0,"x_max":0,"o":"m 1032 0 b 1296 264 1178 0 1296 118 l 1296 754 b 1032 1019 1296 900 1178 1019 l 375 1019 b 111 754 229 1019 111 900 l 111 264 b 375 0 111 118 229 0 z m 1032 969 b 1247 754 1150 969 1247 872 l 1247 264 b 1032 50 1247 146 1150 50 l 375 50 b 160 264 257 50 160 146 l 160 754 b 375 969 160 872 257 969 z m 626 1076 l 626 1194 l 576 1194 l 576 1076 z m 849 1076 l 849 1194 l 799 1194 l 799 1076 z "},"Ӓ":{"ha":1236,"x_min":0,"x_max":0,"o":"m 238 308 l 938 308 l 1058 0 l 1111 0 l 757 907 b 692 994 743 942 721 972 b 588 1028 663 1017 626 1028 b 483 994 550 1028 514 1017 b 419 907 456 972 433 942 l 64 0 l 118 0 z m 588 979 b 710 889 643 979 689 944 l 918 358 l 257 358 l 465 889 b 588 979 488 944 533 979 z m 504 1126 l 504 1244 l 454 1244 l 454 1126 z m 726 1126 l 726 1244 l 676 1244 l 676 1126 z "},"ӓ":{"ha":1236,"x_min":0,"x_max":0,"o":"m 493 889 b 615 979 515 944 561 979 b 738 889 671 979 717 944 l 946 358 l 376 358 l 376 308 l 965 308 l 1086 0 l 1139 0 l 785 907 b 719 994 771 942 749 972 b 615 1028 690 1017 654 1028 b 511 994 578 1028 542 1017 b 447 907 483 972 461 942 l 92 0 l 146 0 z m 532 1069 l 532 1188 l 482 1188 l 482 1069 z m 754 1069 l 754 1188 l 704 1188 l 704 1069 z "},"Ӭ":{"ha":1325,"x_min":0,"x_max":0,"o":"m 1044 854 b 936 972 1014 906 978 944 b 782 1018 890 1003 838 1018 l 111 1018 l 111 968 l 782 968 b 1001 829 896 968 964 893 b 1078 533 1047 751 1074 647 l 113 533 l 113 485 l 1078 485 b 1001 189 1074 371 1047 267 b 782 50 964 125 896 50 l 111 50 l 111 0 l 782 0 b 936 46 838 0 890 15 b 1044 164 978 74 1014 113 b 1128 510 1097 256 1128 378 b 1044 854 1128 640 1097 763 z m 463 1074 l 463 1192 l 413 1192 l 413 1074 z m 685 1074 l 685 1192 l 635 1192 l 635 1074 z "},"ӭ":{"ha":1325,"x_min":0,"x_max":0,"o":"m 1044 854 b 936 972 1014 906 978 944 b 782 1018 890 1003 838 1018 l 111 1018 l 111 968 l 782 968 b 1001 829 896 968 964 893 b 1078 533 1047 751 1074 647 l 113 533 l 113 485 l 1078 485 b 1001 189 1074 371 1047 267 b 782 50 964 125 896 50 l 111 50 l 111 0 l 782 0 b 936 46 838 0 890 15 b 1044 164 978 74 1014 113 b 1128 510 1097 256 1128 378 b 1044 854 1128 640 1097 763 z m 438 1072 l 438 1190 l 388 1190 l 388 1072 z m 660 1072 l 660 1190 l 610 1190 l 610 1072 z "},"Ӕ":{"ha":1157,"x_min":0,"x_max":0,"o":""},"Ѐ":{"ha":1147,"x_min":0,"x_max":0,"o":"m 111 171 b 281 0 111 76 188 0 l 979 0 l 979 50 l 281 50 b 160 171 214 50 160 104 l 160 483 l 926 483 l 926 533 l 160 533 l 160 847 b 281 969 160 914 214 969 l 979 969 l 979 1018 l 281 1018 b 111 847 188 1018 111 942 l 111 171 z m 621 1075 l 531 1226 l 471 1226 l 561 1075 z "},"Ѝ":{"ha":1301,"x_min":0,"x_max":0,"o":"m 161 1018 l 111 1018 l 111 93 b 129 32 111 69 117 49 b 174 0 139 17 156 6 b 238 1 193 -7 217 -7 b 290 43 258 8 278 24 l 972 940 l 972 942 b 1035 967 990 967 1017 972 b 1063 919 1053 961 1063 944 l 1063 -6 l 1113 -6 l 1113 919 b 1094 981 1113 943 1106 964 b 1050 1014 1083 996 1068 1008 b 986 1011 1029 1019 1007 1019 b 932 971 965 1004 946 990 l 251 72 l 250 72 b 189 47 233 47 206 42 b 161 93 171 53 161 69 z m 656 1075 l 565 1226 l 506 1226 l 596 1075 z "},"Њ":{"ha":2021,"x_min":0,"x_max":0,"o":"m 1026 533 l 1026 1018 l 976 1018 l 976 533 l 165 533 l 165 1018 l 115 1018 l 115 0 l 165 0 l 165 483 l 976 483 l 976 0 l 1683 0 b 1857 175 1779 0 1857 79 l 1857 360 b 1683 533 1857 456 1779 533 z m 1026 483 l 1683 483 b 1808 360 1753 483 1808 428 l 1808 175 b 1683 50 1808 106 1753 50 l 1026 50 z "},"Ī":{"ha":342,"x_min":0,"x_max":0,"o":"m 176 0 l 176 1018 l 126 1018 l 126 0 z m -74 1124 l 376 1124 l 376 1174 l -74 1174 z "},"Ĩ":{"ha":342,"x_min":0,"x_max":0,"o":"m 176 0 l 176 1018 l 126 1018 l 126 0 z m 265 1099 b 292 1100 275 1099 283 1099 b 413 1163 339 1106 381 1128 l 376 1196 b 285 1149 353 1171 321 1154 b 185 1171 250 1144 215 1153 b 51 1200 146 1196 99 1207 b -69 1138 6 1194 -37 1172 l -32 1104 b 58 1151 -8 1131 24 1147 b 158 1129 93 1156 129 1149 b 265 1099 190 1108 228 1099 z "},"ĩ":{"ha":342,"x_min":0,"x_max":0,"o":"m 176 0 l 176 1018 l 126 1018 l 126 0 z m 265 1092 b 292 1093 275 1092 283 1092 b 413 1156 339 1099 381 1121 l 376 1189 b 285 1142 353 1164 321 1147 b 185 1164 250 1138 215 1146 b 51 1193 146 1189 99 1200 b -69 1131 6 1188 -37 1165 l -32 1097 b 58 1144 -8 1124 24 1140 b 158 1122 93 1149 129 1142 b 265 1092 190 1101 228 1092 z "},"Ĭ":{"ha":342,"x_min":0,"x_max":0,"o":"m 176 0 l 176 1018 l 126 1018 l 126 0 z m 235 1124 b 383 1210 296 1124 353 1157 l 340 1235 b 235 1174 318 1197 278 1174 l 69 1174 b -36 1235 25 1174 -15 1197 l -79 1210 b 69 1124 -49 1157 8 1124 z "},"ĭ":{"ha":342,"x_min":0,"x_max":0,"o":"m 176 0 l 176 1018 l 126 1018 l 126 0 z m 233 1124 b 382 1210 294 1124 351 1157 l 339 1235 b 233 1174 317 1197 276 1174 l 68 1174 b -37 1235 24 1174 -17 1197 l -81 1210 b 68 1124 -50 1157 7 1124 z "},"ġ":{"ha":1286,"x_min":0,"x_max":0,"o":"m 1161 0 l 1161 532 l 688 532 l 688 482 l 1113 482 l 1113 50 l 374 50 b 160 264 256 50 160 146 l 160 751 b 374 968 160 871 256 968 l 1156 968 l 1156 1018 l 374 1018 b 188 939 304 1018 238 990 b 111 751 138 888 111 821 l 111 264 b 374 0 111 118 229 0 z m 668 1113 l 668 1231 l 618 1231 l 618 1113 z "},"Ġ":{"ha":1286,"x_min":0,"x_max":0,"o":"m 1161 0 l 1161 532 l 688 532 l 688 482 l 1113 482 l 1113 50 l 374 50 b 160 264 256 50 160 146 l 160 751 b 374 968 160 871 256 968 l 1156 968 l 1156 1018 l 374 1018 b 188 939 304 1018 238 990 b 111 751 138 888 111 821 l 111 264 b 374 0 111 118 229 0 z m 668 1107 l 668 1225 l 618 1225 l 618 1107 z "},"ŉ":{"ha":1374,"x_min":0,"x_max":0,"o":"m 1136 0 l 1193 0 l 1193 1018 l 1143 1018 l 1143 64 l 228 1018 l 168 1018 l 168 1 l 218 1 l 218 956 z m 172 1074 l 225 1074 l 276 1225 l 224 1225 z "},"ĉ":{"ha":1204,"x_min":0,"x_max":0,"o":"m 1068 1019 l 375 1019 b 111 754 229 1019 111 900 l 111 264 b 375 0 111 118 229 0 l 1068 0 l 1068 50 l 375 50 b 160 264 257 50 160 146 l 160 754 b 375 969 160 872 257 969 l 1068 969 z m 642 1218 l 454 1071 l 535 1071 l 642 1154 l 747 1071 l 825 1071 z "},"Ĉ":{"ha":1204,"x_min":0,"x_max":0,"o":"m 1068 1019 l 375 1019 b 111 754 229 1019 111 900 l 111 264 b 375 0 111 118 229 0 l 1068 0 l 1068 50 l 375 50 b 160 264 257 50 160 146 l 160 754 b 375 969 160 872 257 969 l 1068 969 z m 643 1221 l 456 1074 l 536 1074 l 643 1157 l 749 1074 l 826 1074 z "},"Ŵ":{"ha":2172,"x_min":0,"x_max":0,"o":"m 1550 -6 b 1654 29 1589 -6 1625 6 b 1718 117 1683 50 1706 81 l 2072 1018 l 2018 1018 l 1672 133 b 1550 44 1651 78 1606 44 b 1428 135 1496 44 1460 71 l 1111 957 b 1032 1018 1097 996 1067 1018 b 953 957 997 1018 967 996 l 636 135 b 514 44 604 71 568 44 b 392 133 458 44 413 78 l 46 1018 l -7 1018 l 346 117 b 410 29 358 81 381 50 b 514 -6 439 6 475 -6 b 615 26 553 -6 586 6 b 682 114 640 47 663 75 l 682 115 l 999 939 b 1032 969 1006 958 1018 969 b 1065 939 1046 969 1058 958 l 1382 117 l 1382 115 l 1382 114 b 1449 26 1401 75 1424 47 b 1550 -6 1478 6 1511 -6 z m 1032 1219 l 844 1072 l 925 1072 l 1032 1156 l 1138 1072 l 1215 1072 z "},"ŵ":{"ha":2172,"x_min":0,"x_max":0,"o":"m 1550 -6 b 1654 29 1589 -6 1625 6 b 1718 117 1683 50 1706 81 l 2072 1018 l 2018 1018 l 1672 133 b 1550 44 1651 78 1606 44 b 1428 135 1496 44 1460 71 l 1111 957 b 1032 1018 1097 996 1067 1018 b 953 957 997 1018 967 996 l 636 135 b 514 44 604 71 568 44 b 392 133 458 44 413 78 l 46 1018 l -7 1018 l 346 117 b 410 29 358 81 381 50 b 514 -6 439 6 475 -6 b 615 26 553 -6 586 6 b 682 114 640 47 663 75 l 682 115 l 999 939 b 1032 969 1006 958 1018 969 b 1065 939 1046 969 1058 958 l 1382 117 l 1382 115 l 1382 114 b 1449 26 1401 75 1424 47 b 1550 -6 1478 6 1511 -6 z m 1031 1217 l 843 1069 l 924 1069 l 1031 1153 l 1136 1069 l 1214 1069 z "},"Ŷ":{"ha":1232,"x_min":0,"x_max":0,"o":"m 567 388 b 643 421 596 390 621 401 b 715 508 668 442 689 468 l 1071 1018 l 1010 1018 l 675 536 b 542 436 628 467 601 436 b 410 538 483 436 458 467 l 74 1018 l 14 1018 l 368 508 b 517 388 411 447 447 397 l 517 0 l 567 0 z m 547 1217 l 360 1069 l 440 1069 l 547 1153 l 653 1069 l 731 1069 z "},"ŷ":{"ha":1153,"x_min":0,"x_max":0,"o":"m 542 386 b 643 421 582 386 615 397 b 715 508 668 442 689 468 l 1071 1018 l 1010 1018 l 675 536 b 542 436 628 467 601 436 b 410 538 483 436 458 467 l 74 1018 l 14 1018 l 368 508 b 542 386 417 440 456 386 z m 567 0 l 567 357 l 517 357 l 517 0 z m 549 1217 l 361 1069 l 442 1069 l 549 1153 l 654 1069 l 732 1069 z "},"ǅ":{"ha":2467,"x_min":0,"x_max":0,"o":"m 935 0 b 1199 264 1081 0 1199 118 l 1199 753 b 935 1018 1199 899 1081 1018 l 111 1018 l 111 0 z m 160 50 l 160 968 l 935 968 b 1150 753 1053 968 1150 871 l 1150 264 b 935 50 1150 146 1053 50 z m 2272 0 l 2272 50 l 1489 50 b 1436 94 1436 50 1436 93 b 1458 146 1436 114 1444 133 l 2238 836 b 2276 924 2261 858 2276 890 b 2253 985 2276 946 2267 968 b 2172 1019 2239 1000 2215 1019 l 1411 1019 l 1411 969 l 2172 969 b 2226 924 2225 969 2226 926 b 2204 874 2226 906 2218 886 l 1425 183 l 1425 182 b 1386 94 1400 160 1386 128 b 1410 33 1386 74 1394 50 b 1489 0 1422 18 1447 0 z m 593 1068 l 781 1214 l 750 1254 l 593 1132 l 440 1253 l 410 1214 z "},"Ț":{"ha":1050,"x_min":0,"x_max":0,"o":"m 508 0 l 508 968 l 968 968 l 968 1018 l 0 1018 l 0 968 l 458 968 l 458 0 z m 414 -193 l 467 -193 l 518 -42 l 465 -42 z "},"ț":{"ha":1050,"x_min":0,"x_max":0,"o":"m 508 0 l 508 968 l 968 968 l 968 1018 l 0 1018 l 0 968 l 458 968 l 458 0 z m 418 -201 l 471 -201 l 522 -50 l 469 -50 z "},"ȫ":{"ha":1374,"x_min":0,"x_max":0,"o":"m 1032 0 b 1296 264 1178 0 1296 118 l 1296 754 b 1032 1019 1296 900 1178 1019 l 375 1019 b 111 754 229 1019 111 900 l 111 264 b 375 0 111 118 229 0 z m 1032 969 b 1247 754 1150 969 1247 872 l 1247 264 b 1032 50 1247 146 1150 50 l 375 50 b 160 264 257 50 160 146 l 160 754 b 375 969 160 872 257 969 z m 588 1232 l 588 1350 l 538 1350 l 538 1232 z m 810 1232 l 810 1350 l 760 1350 l 760 1232 z m 461 1107 l 911 1107 l 911 1157 l 461 1157 z "},"Ȫ":{"ha":1374,"x_min":0,"x_max":0,"o":"m 1032 0 b 1296 264 1178 0 1296 118 l 1296 754 b 1032 1019 1296 900 1178 1019 l 375 1019 b 111 754 229 1019 111 900 l 111 264 b 375 0 111 118 229 0 z m 1032 969 b 1247 754 1150 969 1247 872 l 1247 264 b 1032 50 1247 146 1150 50 l 375 50 b 160 264 257 50 160 146 l 160 754 b 375 969 160 872 257 969 z m 586 1196 l 586 1314 l 536 1314 l 536 1196 z m 808 1196 l 808 1314 l 758 1314 l 758 1196 z m 461 1074 l 911 1074 l 911 1124 l 461 1124 z "},"Đ":{"ha":1358,"x_min":0,"x_max":0,"o":"m 935 0 b 1199 264 1081 0 1199 118 l 1199 753 b 935 1018 1199 899 1081 1018 l 111 1018 l 111 0 z m 160 50 l 160 968 l 935 968 b 1150 753 1053 968 1150 871 l 1150 264 b 935 50 1150 146 1053 50 z m 424 1122 l 874 1122 l 874 1172 l 424 1172 z "},"Ĝ":{"ha":1286,"x_min":0,"x_max":0,"o":"m 1161 0 l 1161 532 l 688 532 l 688 482 l 1113 482 l 1113 50 l 374 50 b 160 264 256 50 160 146 l 160 751 b 374 968 160 871 256 968 l 1156 968 l 1156 1018 l 374 1018 b 188 939 304 1018 238 990 b 111 751 138 888 111 821 l 111 264 b 374 0 111 118 229 0 z m 643 1219 l 456 1072 l 536 1072 l 643 1156 l 749 1072 l 826 1072 z "},"ĝ":{"ha":1286,"x_min":0,"x_max":0,"o":"m 1161 0 l 1161 532 l 688 532 l 688 482 l 1113 482 l 1113 50 l 374 50 b 160 264 256 50 160 146 l 160 751 b 374 968 160 871 256 968 l 1156 968 l 1156 1018 l 374 1018 b 188 939 304 1018 238 990 b 111 751 138 888 111 821 l 111 264 b 374 0 111 118 229 0 z m 639 1217 l 451 1069 l 532 1069 l 639 1153 l 744 1069 l 822 1069 z "},"ĕ":{"ha":1147,"x_min":0,"x_max":0,"o":"m 246 483 l 982 483 l 982 533 l 246 533 z m 160 847 b 281 969 160 914 214 969 l 1035 969 l 1035 1018 l 281 1018 b 111 847 188 1018 111 942 l 111 171 b 281 0 111 76 188 0 l 1035 0 l 1035 50 l 281 50 b 160 171 214 50 160 104 z m 658 1122 b 807 1208 719 1122 776 1156 l 764 1233 b 658 1172 742 1196 701 1172 l 493 1172 b 388 1233 449 1172 408 1196 l 344 1208 b 493 1122 375 1156 432 1122 z "},"Ĕ":{"ha":1164,"x_min":0,"x_max":0,"o":"m 111 171 b 281 0 111 76 188 0 l 1035 0 l 1035 50 l 281 50 b 160 171 214 50 160 104 l 160 483 l 982 483 l 982 533 l 160 533 l 160 847 b 281 969 160 914 214 969 l 1035 969 l 1035 1018 l 281 1018 b 111 847 188 1018 111 942 l 111 171 z m 664 1121 b 813 1207 725 1121 782 1154 l 769 1232 b 664 1171 747 1194 707 1171 l 499 1171 b 393 1232 454 1171 414 1194 l 350 1207 b 499 1121 381 1154 438 1121 z "},"Ĵ":{"ha":835,"x_min":0,"x_max":0,"o":"m 622 1018 l 622 264 b 407 50 622 146 525 50 l 83 50 l 83 0 l 407 0 b 671 264 553 0 671 118 l 671 1018 z m 642 1221 l 454 1074 l 535 1074 l 642 1157 l 747 1074 l 825 1074 z "},"ĵ":{"ha":835,"x_min":0,"x_max":0,"o":"m 622 1018 l 622 264 b 407 50 622 146 525 50 l 83 50 l 83 0 l 407 0 b 671 264 553 0 671 118 l 671 1018 z m 644 1219 l 457 1072 l 538 1072 l 644 1156 l 750 1072 l 828 1072 z "},"Ŭ":{"ha":1315,"x_min":0,"x_max":0,"o":"m 111 1018 l 111 264 b 375 0 111 118 229 0 l 893 0 b 1157 264 1039 0 1157 118 l 1157 1018 l 1108 1018 l 1108 264 b 893 50 1108 146 1011 50 l 375 50 b 160 264 257 50 160 146 l 160 1018 z m 701 1107 b 850 1193 763 1107 819 1140 l 807 1218 b 701 1157 785 1181 744 1157 l 536 1157 b 431 1218 492 1157 451 1181 l 388 1193 b 536 1107 418 1140 475 1107 z "},"ŭ":{"ha":1315,"x_min":0,"x_max":0,"o":"m 111 1018 l 111 264 b 375 0 111 118 229 0 l 893 0 b 1157 264 1039 0 1157 118 l 1157 1018 l 1108 1018 l 1108 264 b 893 50 1108 146 1011 50 l 375 50 b 160 264 257 50 160 146 l 160 1018 z m 710 1101 b 858 1188 771 1101 828 1135 l 815 1213 b 710 1151 793 1175 753 1151 l 544 1151 b 439 1213 500 1151 460 1175 l 396 1188 b 544 1101 426 1135 483 1101 z "},"Ċ":{"ha":1204,"x_min":0,"x_max":0,"o":"m 1068 1019 l 375 1019 b 111 754 229 1019 111 900 l 111 264 b 375 0 111 118 229 0 l 1068 0 l 1068 50 l 375 50 b 160 264 257 50 160 146 l 160 754 b 375 969 160 872 257 969 l 1068 969 z m 654 1100 l 654 1218 l 604 1218 l 604 1100 z "},"ċ":{"ha":1204,"x_min":0,"x_max":0,"o":"m 1068 1019 l 375 1019 b 111 754 229 1019 111 900 l 111 264 b 375 0 111 118 229 0 l 1068 0 l 1068 50 l 375 50 b 160 264 257 50 160 146 l 160 754 b 375 969 160 872 257 969 l 1068 969 z m 668 1101 l 668 1219 l 618 1219 l 618 1101 z "},"Ŀ":{"ha":1019,"x_min":0,"x_max":0,"o":"m 906 0 l 906 50 l 253 50 b 161 140 203 50 161 90 l 161 1018 l 111 1018 l 111 140 b 253 0 111 64 175 0 z m 535 538 l 535 656 l 485 656 l 485 538 z "},"ŀ":{"ha":1235,"x_min":0,"x_max":0,"o":"m 906 0 l 906 50 l 253 50 b 161 140 203 50 161 90 l 161 1018 l 111 1018 l 111 140 b 253 0 111 64 175 0 z m 521 533 l 521 651 l 471 651 l 471 533 z "},"Ŝ":{"ha":1222,"x_min":0,"x_max":0,"o":"m 860 0 b 1000 53 915 0 965 18 b 1057 186 1036 86 1057 133 l 1057 306 b 1033 379 1057 311 1056 343 b 875 474 1013 413 968 456 l 349 593 b 154 722 285 607 154 638 l 154 822 b 193 929 153 876 174 910 b 283 969 217 954 251 969 l 1014 969 l 1014 1019 l 283 1019 b 157 963 239 1019 190 999 b 104 822 132 938 103 892 l 104 722 b 133 640 104 692 114 664 b 199 590 149 621 171 604 b 338 544 247 565 304 551 l 865 425 l 865 424 b 1007 307 1003 399 1007 313 l 1007 186 b 860 50 1007 106 946 50 l 113 50 l 113 0 z m 578 1225 l 390 1078 l 471 1078 l 578 1161 l 683 1078 l 761 1078 z "},"ŝ":{"ha":1157,"x_min":0,"x_max":0,"o":"m 860 0 b 1000 53 915 0 965 18 b 1057 186 1036 86 1057 133 l 1057 306 b 1033 379 1057 311 1056 343 b 875 474 1013 413 968 456 l 349 593 b 154 722 285 607 154 638 l 154 822 b 193 929 153 876 174 910 b 283 969 217 954 251 969 l 1014 969 l 1014 1019 l 283 1019 b 157 963 239 1019 190 999 b 104 822 132 938 103 892 l 104 722 b 133 640 104 692 114 664 b 199 590 149 621 171 604 b 338 544 247 565 304 551 l 865 425 l 865 424 b 1007 307 1003 399 1007 313 l 1007 186 b 860 50 1007 106 946 50 l 113 50 l 113 0 z m 576 1218 l 389 1071 l 469 1071 l 576 1154 l 682 1071 l 760 1071 z "},"Ş":{"ha":1221,"x_min":0,"x_max":0,"o":"m 656 -268 b 728 -233 683 -265 710 -254 b 757 -160 747 -214 757 -187 b 728 -86 757 -132 747 -106 b 656 -51 710 -65 683 -53 l 572 -51 l 590 0 l 860 0 b 1000 51 915 0 965 18 b 1057 186 1036 86 1057 133 l 1057 306 b 1033 379 1057 311 1056 343 b 875 474 1013 413 968 453 l 349 593 b 154 722 285 607 154 638 l 154 828 b 193 929 154 879 174 910 b 283 969 217 954 251 969 l 1014 969 l 1014 1019 l 283 1019 b 157 963 239 1019 190 999 b 104 822 132 938 104 892 l 104 722 b 133 640 104 692 114 664 b 199 590 149 621 171 604 b 338 544 247 565 304 551 l 865 424 b 1007 307 1003 399 1007 313 l 1007 186 b 860 50 1007 106 946 50 l 113 50 l 113 0 l 536 0 l 503 -100 l 653 -100 b 707 -160 683 -103 707 -129 b 653 -218 707 -190 683 -215 l 464 -218 l 464 -268 l 656 -268 z "},"Ŏ":{"ha":1503,"x_min":0,"x_max":0,"o":"m 1032 0 b 1296 264 1178 0 1296 118 l 1296 754 b 1032 1019 1296 900 1178 1019 l 375 1019 b 111 754 229 1019 111 900 l 111 264 b 375 0 111 118 229 0 z m 1032 969 b 1247 754 1150 969 1247 872 l 1247 264 b 1032 50 1247 146 1150 50 l 375 50 b 160 264 257 50 160 146 l 160 754 b 375 969 160 872 257 969 z m 778 1124 b 926 1210 839 1124 896 1157 l 883 1235 b 778 1174 861 1197 821 1174 l 613 1174 b 507 1235 568 1174 528 1197 l 464 1210 b 613 1124 494 1157 551 1124 z "},"ŏ":{"ha":1468,"x_min":0,"x_max":0,"o":"m 1032 0 b 1296 264 1178 0 1296 118 l 1296 754 b 1032 1019 1296 900 1178 1019 l 375 1019 b 111 754 229 1019 111 900 l 111 264 b 375 0 111 118 229 0 z m 1032 969 b 1247 754 1150 969 1247 872 l 1247 264 b 1032 50 1247 146 1150 50 l 375 50 b 160 264 257 50 160 146 l 160 754 b 375 969 160 872 257 969 z m 781 1125 b 929 1211 842 1125 899 1158 l 886 1236 b 781 1175 864 1199 824 1175 l 615 1175 b 510 1236 571 1175 531 1199 l 467 1211 b 615 1125 497 1158 554 1125 z "},"Ĥ":{"ha":1278,"x_min":0,"x_max":0,"o":"m 1110 0 l 1110 1018 l 1060 1018 l 1060 533 l 165 533 l 165 1018 l 115 1018 l 115 0 l 165 0 l 165 483 l 1060 483 l 1060 0 z m 601 1218 l 414 1071 l 494 1071 l 601 1154 l 707 1071 l 785 1071 z "},"ĥ":{"ha":1301,"x_min":0,"x_max":0,"o":"m 1133 0 l 1133 1018 l 1083 1018 l 1083 533 l 246 533 l 246 483 l 1083 483 l 1083 0 z m 161 0 l 161 1018 l 111 1018 l 111 0 z m 603 1214 l 415 1067 l 496 1067 l 603 1150 l 708 1067 l 786 1067 z "},"Ũ":{"ha":1315,"x_min":0,"x_max":0,"o":"m 111 1018 l 111 264 b 375 0 111 118 229 0 l 893 0 b 1157 264 1039 0 1157 118 l 1157 1018 l 1108 1018 l 1108 264 b 893 50 1108 146 1011 50 l 375 50 b 160 264 257 50 160 146 l 160 1018 z m 724 1104 b 750 1106 733 1104 742 1104 b 871 1168 797 1111 839 1133 l 835 1201 b 743 1154 811 1176 779 1160 b 643 1176 708 1150 674 1158 b 510 1206 604 1201 557 1213 b 389 1143 464 1200 421 1178 l 426 1110 b 517 1157 450 1136 482 1153 b 617 1135 551 1161 588 1154 b 724 1104 649 1114 686 1104 z "},"ũ":{"ha":1315,"x_min":0,"x_max":0,"o":"m 111 1018 l 111 264 b 375 0 111 118 229 0 l 893 0 b 1157 264 1039 0 1157 118 l 1157 1018 l 1108 1018 l 1108 264 b 893 50 1108 146 1011 50 l 375 50 b 160 264 257 50 160 146 l 160 1018 z m 726 1082 b 753 1083 736 1082 744 1082 b 874 1146 800 1089 842 1111 l 838 1179 b 746 1132 814 1154 782 1138 b 646 1154 711 1128 676 1136 b 513 1183 607 1179 560 1190 b 392 1121 467 1178 424 1156 l 429 1088 b 519 1135 453 1114 485 1131 b 619 1113 554 1139 590 1132 b 726 1082 651 1092 689 1082 z "}}}
